<svg width="265" height="177" viewBox="0 0 265 177" fill="none" xmlns="http://www.w3.org/2000/svg">
<path d="M188.45 68.249C266.981 129.097 155.686 181.104 126.042 134.818C100.038 181.104 -11.2567 128.057 55.3127 68.2489C-4.49559 28.7235 77.1552 -36.8055 126.042 26.1233C159.847 -37.8457 260.22 52.1269 188.45 68.249Z" fill="#EAEBEE"/>
<circle cx="253" cy="47.5034" r="12" fill="#EAEBEE"/>
<circle cx="203.5" cy="159.003" r="17.5" fill="#EAEBEE"/>
<circle cx="7.5" cy="97.0034" r="7.5" fill="#EAEBEE"/>
<circle cx="10" cy="82.5034" r="3" fill="#EAEBEE"/>
<circle cx="15" cy="68.5034" r="3" fill="#EAEBEE"/>
<circle cx="218" cy="173.503" r="3" fill="#EAEBEE"/>
<circle cx="224" cy="47.5034" r="3" fill="#EAEBEE"/>
<circle cx="234" cy="50.5034" r="3" fill="#EAEBEE"/>
<path d="M88.9375 64.625C88.9375 63.0744 90.1994 61.8125 91.75 61.8125H108.213V59.9375H91.75C89.1662 59.9375 87.0625 62.0412 87.0625 64.625V111.5H88.9375V64.625Z" fill="#8193B1"/>
<path d="M177.063 64.625V112.175H178.938V64.625C178.938 62.0412 176.836 59.9375 174.25 59.9375H157.788V61.8125H174.25C175.801 61.8125 177.063 63.0744 177.063 64.625Z" fill="#8193B1"/>
<path d="M105.194 65.5625H93.625C92.0744 65.5625 90.8125 66.8244 90.8125 68.375V111.5H92.6875V68.375C92.6875 67.8575 93.1075 67.4375 93.625 67.4375H105.194V65.5625Z" fill="#8193B1"/>
<path d="M175.187 108.425V68.375C175.187 66.8244 173.926 65.5625 172.375 65.5625H160.806V67.4375H172.375C172.891 67.4375 173.312 67.8575 173.312 68.375V108.425H175.187Z" fill="#8193B1"/>
<path d="M89.875 127.438H176.125C181.814 127.438 186.438 122.851 186.438 117.125C186.438 115.574 185.176 114.312 183.625 114.312H180.737V116.188H183.625C184.141 116.188 184.562 116.608 184.562 117.125C184.562 121.82 180.777 125.562 176.125 125.562H89.875C85.2231 125.562 81.4375 121.777 81.4375 117.125C81.4375 116.608 81.8575 116.188 82.375 116.188H120.812V117.125C120.812 118.676 122.074 119.938 123.625 119.938H142.375C143.926 119.938 145.188 118.676 145.188 117.125V116.188H159.906V114.312C152.078 114.312 90.6775 114.312 82.375 114.312C80.8244 114.312 79.5625 115.574 79.5625 117.125C79.5625 122.812 84.1881 127.438 89.875 127.438ZM143.312 116.188V117.125C143.312 117.642 142.891 118.062 142.375 118.062H123.625C123.107 118.062 122.688 117.642 122.688 117.125V116.188H143.312Z" fill="#8193B1"/>
<path d="M104.875 91.8125H97.375C95.8244 91.8125 94.5625 93.0744 94.5625 94.625C94.5625 96.1756 95.8244 97.4375 97.375 97.4375H104.875C106.426 97.4375 107.688 96.1756 107.688 94.625C107.688 93.0744 106.426 91.8125 104.875 91.8125ZM104.875 95.5625H97.375C96.8575 95.5625 96.4375 95.1425 96.4375 94.625C96.4375 94.1075 96.8575 93.6875 97.375 93.6875H104.875C105.392 93.6875 105.812 94.1075 105.812 94.625C105.812 95.1425 105.392 95.5625 104.875 95.5625Z" fill="#8193B1"/>
<path d="M104.875 99.3125H97.375C95.8244 99.3125 94.5625 100.574 94.5625 102.125C94.5625 103.676 95.8244 104.938 97.375 104.938H104.875C106.426 104.938 107.688 103.676 107.688 102.125C107.688 100.574 106.426 99.3125 104.875 99.3125ZM104.875 103.062H97.375C96.8575 103.062 96.4375 102.642 96.4375 102.125C96.4375 101.608 96.8575 101.188 97.375 101.188H104.875C105.392 101.188 105.812 101.608 105.812 102.125C105.812 102.642 105.392 103.062 104.875 103.062Z" fill="#8193B1"/>
<path d="M133 104.938C139.482 104.938 145.435 102.65 150.111 98.8494L153.323 102.061C152.787 103.205 153.079 104.443 153.874 105.239L170.939 122.304C172.769 124.156 175.724 124.158 177.556 122.308C179.412 120.47 179.399 117.515 177.556 115.694L160.486 98.6281C159.957 98.0956 159.252 97.805 158.498 97.8031C158.582 97.8031 157.984 97.76 157.309 98.075L154.097 94.8631C157.9 90.185 160.188 84.2319 160.188 77.75C160.188 62.7594 147.991 50.5625 133 50.5625C118.009 50.5625 105.812 62.7594 105.812 77.75C105.812 92.7406 118.009 104.938 133 104.938ZM159.162 99.9519L176.234 117.024C177.346 118.123 177.346 119.878 176.234 120.976C176.232 120.978 176.228 120.982 176.226 120.984C175.165 122.058 173.337 122.062 172.268 120.98L155.2 103.912C154.834 103.546 154.833 102.954 155.2 102.586L157.834 99.95C158.202 99.5881 158.792 99.5825 159.162 99.9519ZM155.862 99.275L154.525 100.612L151.516 97.6025C151.977 97.1713 152.421 96.7269 152.853 96.2656L155.862 99.275ZM133 52.4375C146.958 52.4375 158.312 63.7925 158.312 77.75C158.312 91.7075 146.958 103.063 133 103.063C119.043 103.063 107.688 91.7075 107.688 77.75C107.688 63.7925 119.043 52.4375 133 52.4375Z" fill="#8193B1"/>
<path d="M133 101.188C145.924 101.188 156.438 90.6744 156.438 77.75C156.438 64.8256 145.924 54.3125 133 54.3125C120.076 54.3125 109.562 64.8256 109.562 77.75C109.562 90.6744 120.076 101.188 133 101.188ZM133 56.1875C144.889 56.1875 154.562 65.8606 154.562 77.75C154.562 89.6394 144.889 99.3125 133 99.3125C121.111 99.3125 111.438 89.6394 111.438 77.75C111.438 65.8606 121.111 56.1875 133 56.1875Z" fill="#8193B1"/>
<path d="M127.034 86.7557C128.862 88.5838 131.836 88.5838 133.664 86.7557L145.596 74.8232C146.693 73.7263 146.693 71.9413 145.596 70.8444L142.945 68.1932C141.884 67.13 140.026 67.1338 138.966 68.1932L130.349 76.8125L127.034 73.4975C125.937 72.4007 124.154 72.4007 123.057 73.4975L120.406 76.1488C119.305 77.2494 119.309 79.0307 120.406 80.1257L127.034 86.7557ZM121.731 77.4763L124.382 74.825C124.748 74.4594 125.342 74.4613 125.708 74.825L129.687 78.8019C130.052 79.1675 130.647 79.1675 131.012 78.8019L140.292 69.5207C140.659 69.1532 141.256 69.1569 141.619 69.5207L144.271 72.1719C144.636 72.5375 144.636 73.1319 144.271 73.4994L132.338 85.4319C131.243 86.5269 129.458 86.5288 128.359 85.4319L121.731 78.8C121.366 78.4363 121.364 77.8457 121.731 77.4763Z" fill="#8193B1"/>
</svg>
