<svg width="13" height="13" viewBox="0 0 13 13" fill="none" xmlns="http://www.w3.org/2000/svg">
<g clip-path="url(#clip0_5034_29134)">
<path d="M12.1234 10.5641H8.30094C8.09305 10.5641 7.9243 10.3956 7.9243 10.1874V9.42667C7.9243 9.21877 8.09305 9.05002 8.30094 9.05002H9.91555L6.6118 5.74651L5.21117 7.14713C4.91539 7.44268 4.43609 7.44268 4.14031 7.14713L0.610391 3.61674C0.463203 3.46979 0.463203 3.2312 0.610391 3.08424L1.14828 2.54612C1.29523 2.39917 1.53383 2.39917 1.68078 2.54612L4.67586 5.5412L6.07625 4.14057C6.37201 3.84472 6.85137 3.8446 7.14711 4.14057L10.9859 7.9794V6.36479C10.9859 6.1569 11.1545 5.98815 11.3626 5.98815H12.1234C12.3315 5.98815 12.5 6.1569 12.5 6.36479V10.1874C12.5 10.3956 12.3315 10.5641 12.1234 10.5641Z" fill="#D92D20"/>
</g>
<defs>
<clipPath id="clip0_5034_29134">
<rect width="12" height="12" fill="white" transform="matrix(1 0 0 -1 0.5 12.5)"/>
</clipPath>
</defs>
</svg>
