<svg width="145" height="36" viewBox="0 0 145 36" fill="none" xmlns="http://www.w3.org/2000/svg">
<g clip-path="url(#clip0_4537_40412)">
<path d="M57.7617 9.65682V11.936L57.9441 11.9976C58.5435 12.1981 59.4575 12.9093 59.9201 13.5315L60.1617 13.8551V11.348V8.84086L58.9674 8.1024L57.7617 7.37305V9.65682Z" fill="url(#paint0_linear_4537_40412)"/>
<path d="M48.1717 8.58548C47.9948 8.63776 47.8303 8.72529 47.6881 8.8428C47.5459 8.96031 47.429 9.10537 47.3443 9.26925C47.2104 9.48417 47.1518 9.73758 47.1779 9.98948C47.1591 10.2124 47.2017 10.4363 47.301 10.6368C47.4255 10.8938 47.6211 11.1097 47.8646 11.2589C48.108 11.4081 48.3892 11.4843 48.6747 11.4785C48.9602 11.4728 49.238 11.3853 49.4753 11.2264C49.7126 11.0675 49.8993 10.8439 50.0133 10.5821C50.1627 10.1828 50.1529 9.74131 49.9859 9.34902C49.8331 9.01856 49.5623 8.7571 49.2267 8.61586C48.8911 8.47462 48.5149 8.46379 48.1717 8.58548Z" fill="url(#paint1_linear_4537_40412)"/>
<path d="M89.5721 9.0415C89.2567 9.19036 88.9966 9.43532 88.8291 9.74122C88.6559 10.1727 88.6559 10.6544 88.8291 11.086C89.0152 11.4086 89.3018 11.6616 89.6451 11.8062C90.038 11.9205 90.4575 11.9029 90.8394 11.756C91.1321 11.5841 91.3694 11.3317 91.5231 11.029C91.6623 10.6282 91.6623 10.1922 91.5231 9.79136C91.3649 9.48281 91.117 9.22935 90.812 9.06429C90.4149 8.90771 89.9747 8.89962 89.5721 9.0415Z" fill="url(#paint2_linear_4537_40412)"/>
<path d="M83.6822 10.2564L82.5106 11.0268L82.4947 11.3732L82.4764 11.7128H81.6445V14.0672H82.4719L82.4947 16.6177L82.5152 19.1727L82.6679 19.6285C82.8109 20.1061 83.0713 20.5403 83.4252 20.8914C83.7792 21.2426 84.2154 21.4995 84.6941 21.6388C85.3284 21.7604 85.9804 21.7565 86.6132 21.6274L86.9756 21.5271L86.9939 20.4559V19.3892L86.3693 19.3664C85.6104 19.3391 85.3824 19.2502 85.1819 18.9106C84.954 18.5322 84.9289 18.147 84.9289 16.0479V14.0672H86.7158V11.7265L85.8406 11.7105L84.9585 11.6946L84.9403 10.5891C84.9515 10.2236 84.9332 9.85773 84.8856 9.49512C84.8719 9.49512 84.3294 9.84612 83.6822 10.2564Z" fill="url(#paint3_linear_4537_40412)"/>
<path d="M95.2954 10.4841L94.1239 11.2476L94.108 11.5941L94.0897 11.9405H93.2031V14.2881H94.0966V16.7952C94.0966 19.5736 94.0966 19.6237 94.4704 20.3782C95.1017 21.6796 96.6698 22.2973 98.2151 21.8574L98.5616 21.7571V19.6009H98.0145C97.3559 19.6009 97.1439 19.5462 96.9046 19.3115C96.5695 18.9878 96.5513 18.8306 96.5513 16.4351V14.2881H98.3359V11.9451H96.549V10.8282C96.563 10.4578 96.55 10.0868 96.5103 9.71826C96.4852 9.71826 95.9427 10.0647 95.2954 10.4841Z" fill="url(#paint4_linear_4537_40412)"/>
<path d="M65.7735 12.4467C65.1726 12.5188 64.5925 12.7121 64.0685 13.0151C63.5445 13.318 63.0874 13.7242 62.7251 14.2091C62.3628 14.694 62.1028 15.2474 61.9607 15.8357C61.8187 16.4241 61.7977 17.0352 61.8989 17.632C62.0158 18.3579 62.312 19.0431 62.7605 19.6258C63.209 20.2084 63.7957 20.67 64.4676 20.9687C65.0617 21.2529 65.7175 21.3838 66.3753 21.3494C67.8841 21.3494 68.8163 20.9687 69.826 19.9476L70.2613 19.5055L69.3291 18.8696C68.8163 18.5186 68.3741 18.2223 68.3468 18.2177C68.2099 18.2686 68.0844 18.346 67.9775 18.4456C67.5481 18.8106 66.9949 18.9967 66.4322 18.9653C65.9285 18.9653 65.8396 18.9539 65.5616 18.8149C65.1245 18.5699 64.7664 18.2054 64.5291 17.7642C64.3832 17.4907 64.3673 17.4086 64.3673 16.9049C64.3673 16.4012 64.3787 16.3191 64.5519 15.9727C64.7455 15.55 65.0855 15.2116 65.5092 15.02C65.7827 14.8923 65.8943 14.8764 66.3798 14.8764C66.8653 14.8764 66.9724 14.8923 67.173 15.004C67.4305 15.1385 67.8043 15.4439 67.8043 15.5169C67.5231 15.5728 67.2362 15.5957 66.9496 15.5852C66.1063 15.6012 66.0858 15.6057 65.81 15.7676C65.6368 15.876 65.4906 16.0225 65.3824 16.1959C65.2742 16.3692 65.2069 16.5649 65.1855 16.7681C65.1602 16.9381 65.1764 17.1117 65.2328 17.274C65.2891 17.4363 65.384 17.5826 65.5092 17.7003L65.7371 17.9283H70.5462L70.5234 16.9231C70.4892 15.7835 70.4323 15.5169 70.0676 14.7579C69.7866 14.1852 69.3891 13.6775 68.9006 13.2673C67.9947 12.6184 66.8814 12.3262 65.7735 12.4467Z" fill="url(#paint5_linear_4537_40412)"/>
<path d="M55.0098 12.5037C54.0316 12.6723 53.1372 13.1611 52.4672 13.8935C51.7971 14.6258 51.3895 15.5601 51.3084 16.5494C51.2738 17.1605 51.3574 17.7727 51.5545 18.3522C51.79 19.0168 52.1783 19.6168 52.6882 20.1038C53.1981 20.5908 53.8154 20.9511 54.4902 21.1557C55.4476 21.4078 56.4598 21.3569 57.387 21.0098C57.5717 20.9368 57.7267 20.8753 57.738 20.8753C57.7564 20.9389 57.7626 21.0054 57.7563 21.0713V21.2673H60.1563V19.0405C60.1563 17.3152 60.1381 16.7066 60.072 16.3374C59.7529 14.514 58.5928 13.1351 56.9472 12.6154C56.3124 12.4688 55.6573 12.431 55.0098 12.5037ZM56.5004 15.0428C56.6736 15.1239 56.8398 15.2192 56.9973 15.3277C57.3198 15.6101 57.5567 15.9773 57.6811 16.3875C57.8003 16.8467 57.755 17.333 57.553 17.7622C57.3511 18.1915 57.0053 18.5365 56.5756 18.7374C56.3061 18.876 56.0017 18.9323 55.7004 18.8992C55.2127 18.8992 55.142 18.8833 54.8343 18.7214C54.4046 18.5109 54.0639 18.1542 53.8734 17.7152C53.683 17.2762 53.6552 16.7836 53.795 16.326C53.8798 16.0115 54.0417 15.7231 54.2662 15.4871C54.4907 15.251 54.7706 15.0748 55.0805 14.9744C55.545 14.8141 56.0534 14.8386 56.5004 15.0428Z" fill="url(#paint6_linear_4537_40412)"/>
<path d="M47.4297 16.9139V21.322H49.8867V12.5037H47.4297V16.9139Z" fill="url(#paint7_linear_4537_40412)"/>
<path d="M72.3242 16.8843V21.2672H74.7789V12.5037H72.3242V16.8843Z" fill="url(#paint8_linear_4537_40412)"/>
<path d="M76.2225 12.5356C76.145 12.5356 75.9945 12.5766 75.9034 12.5926L75.7188 12.6199V14.8991L76.0834 14.8672C76.7239 14.8057 77.1706 15.0951 77.4168 15.7196C77.5444 16.0547 77.6059 17.3151 77.6128 19.6604V21.2695H80.0698V18.9903C80.0698 15.7584 79.99 15.1157 79.5228 14.204C79.0976 13.4468 78.392 12.887 77.5581 12.645C77.1206 12.5437 76.6706 12.5068 76.2225 12.5356Z" fill="url(#paint9_linear_4537_40412)"/>
<path d="M114.43 12.9002L114.188 12.9549V15.5668L114.512 15.4164C114.759 15.3014 115.033 15.252 115.305 15.2728C115.599 15.2366 115.898 15.2991 116.153 15.4506C116.626 15.6843 116.999 16.0808 117.203 16.5674C117.393 17.0667 117.377 17.6209 117.158 18.1082C116.974 18.5443 116.637 18.8979 116.21 19.1019C115.933 19.2571 115.614 19.3209 115.298 19.2842C115.007 19.3154 114.713 19.2633 114.45 19.1338C114.022 18.9248 113.677 18.5791 113.468 18.1515L113.317 17.8347L113.299 15.4164L113.283 13.005H110.84V24.8296H113.295V24.0865C113.295 22.5663 113.313 21.3219 113.333 21.3219C113.463 21.3606 113.59 21.4071 113.714 21.4609C114.595 21.7859 115.556 21.8273 116.461 21.5792C117.367 21.3311 118.172 20.806 118.765 20.0774C119.396 19.2912 119.737 18.3117 119.731 17.3036C119.759 16.3761 119.478 15.4656 118.933 14.7144C118.396 13.9264 117.609 13.342 116.7 13.0551C116.29 12.9042 115.853 12.8383 115.417 12.8614C115.087 12.8445 114.757 12.8575 114.43 12.9002Z" fill="url(#paint10_linear_4537_40412)"/>
<path d="M124.433 12.9502C123.856 13.0886 123.312 13.3411 122.834 13.6928C122.357 14.0445 121.954 14.4884 121.65 14.9981C121.346 15.5079 121.148 16.0733 121.066 16.661C120.984 17.2488 121.021 17.8469 121.174 18.4203C121.429 19.4196 122.03 20.2963 122.87 20.8956C123.709 21.4949 124.734 21.7783 125.762 21.6955C126.321 21.6598 126.869 21.5239 127.38 21.2944C127.46 21.2602 127.476 21.283 127.476 21.4562V21.6522H129.876V12.9502H127.596L127.581 15.3319C127.565 17.6773 127.558 17.7274 127.435 18.0397C127.222 18.5236 126.847 18.9184 126.375 19.1565C126.098 19.3135 125.779 19.3782 125.463 19.3411C125.172 19.3712 124.878 19.3191 124.615 19.1907C124.189 18.9875 123.839 18.6517 123.619 18.2334C123.435 17.8938 123.428 17.8596 123.428 17.2693C123.428 16.679 123.428 16.6425 123.619 16.3029C123.839 15.8859 124.19 15.5528 124.618 15.3547C124.88 15.2253 125.174 15.1731 125.465 15.2043C125.737 15.1805 126.011 15.2219 126.263 15.3251L126.528 15.4482V14.2106C126.528 12.7428 126.639 12.9 125.577 12.8613C125.193 12.8284 124.807 12.8585 124.433 12.9502Z" fill="url(#paint11_linear_4537_40412)"/>
<path d="M133.926 12.9277C133.094 13.1283 132.358 13.714 132.102 14.3841C131.943 14.8507 131.902 15.3497 131.984 15.836C132.184 16.6109 132.547 17.0531 133.793 17.9853C134.429 18.4639 134.726 18.726 134.842 18.9106C135.042 19.2297 135.042 19.273 134.842 19.4258C134.778 19.4758 134.704 19.5108 134.625 19.5282C134.547 19.5455 134.465 19.5448 134.386 19.526C133.944 19.4873 133.771 19.2981 133.702 18.7602C133.657 18.4708 133.625 18.3636 133.568 18.3864C133.468 18.4252 131.63 19.4805 131.58 19.526C131.53 19.5716 131.676 20.1164 131.849 20.4628C132.173 21.1055 132.713 21.5067 133.534 21.7186C134.869 22.0605 136.453 21.5067 137.046 20.497C137.327 19.991 137.444 19.4097 137.379 18.8344C137.314 18.259 137.071 17.7183 136.683 17.2878C136.326 16.9612 135.95 16.6567 135.555 16.3762C134.484 15.583 134.384 15.4941 134.384 15.2981C134.384 15.1363 134.466 15.0702 134.719 15.0702C134.846 15.0702 134.913 15.1203 135.054 15.3232C135.111 15.4222 135.189 15.5078 135.282 15.5739C135.323 15.5739 137.253 14.5459 137.333 14.4844C137.333 14.4844 137.183 14.2724 136.987 14.0286C136.711 13.6522 136.361 13.3364 135.959 13.1009C135.312 12.8462 134.606 12.786 133.926 12.9277Z" fill="url(#paint12_linear_4537_40412)"/>
<path d="M141.1 12.9504C140.029 13.2398 139.354 13.9441 139.197 14.9424C139.149 15.3302 139.191 15.7236 139.317 16.0932C139.444 16.4627 139.653 16.7986 139.928 17.0757C140.292 17.4061 140.672 17.7172 141.068 18.0079C141.889 18.6142 142.1 18.8285 142.208 19.1179C142.338 19.453 141.791 19.6581 141.348 19.453C141.109 19.3344 140.997 19.1293 140.947 18.7099C140.946 18.5912 140.923 18.4738 140.879 18.3635C140.851 18.3635 138.864 19.4689 138.809 19.5191C138.755 19.5692 138.976 20.2165 139.117 20.5014C139.35 20.9064 139.685 21.2434 140.088 21.4792C141.629 22.2222 143.659 21.7071 144.341 20.3897C144.544 20.016 144.655 19.5988 144.662 19.1734C144.67 18.748 144.574 18.327 144.384 17.9464C144.156 17.4495 143.849 17.135 142.789 16.3509C141.633 15.4917 141.544 15.4028 141.633 15.2113C141.686 15.0997 141.74 15.07 141.891 15.07C142.103 15.07 142.187 15.1316 142.372 15.4347L142.495 15.6284L142.668 15.5236C142.768 15.4666 143.231 15.2113 143.701 14.9583C143.995 14.8114 144.278 14.6438 144.548 14.4569C144.439 14.2767 144.314 14.1065 144.175 13.9487C143.52 13.1509 143.046 12.9048 142.069 12.8615C141.743 12.8321 141.415 12.8622 141.1 12.9504Z" fill="url(#paint13_linear_4537_40412)"/>
<path d="M88.9609 17.3221V21.7688H91.4157V12.8936H88.9609V17.3221Z" fill="url(#paint14_linear_4537_40412)"/>
<path d="M100.062 13.0277C100.062 13.1667 102.87 18.8716 102.916 18.8283C102.962 18.785 103.256 18.1582 103.6 17.3924L104.256 16.0089L103.543 14.5069L102.834 13.0049H101.451C100.687 13.0049 100.062 13.0163 100.062 13.0277Z" fill="url(#paint15_linear_4537_40412)"/>
<path d="M106.403 13.4858C106.287 13.7525 105.51 15.4391 104.684 17.2419C103.859 19.0448 102.736 21.479 102.205 22.6619L101.238 24.8112L102.528 24.8272C102.973 24.8438 103.418 24.8347 103.862 24.7998C103.896 24.7611 109.282 13.2966 109.366 13.0733C109.386 13.0231 109.092 13.0049 107.998 13.0049H106.615L106.403 13.4858Z" fill="url(#paint16_linear_4537_40412)"/>
<path d="M22.4647 0.708676C20.9981 2.22787 19.7763 3.96558 18.843 5.8597C18.4031 6.76 18.3325 7.0996 18.5604 7.41869C18.6326 7.53006 18.7297 7.62323 18.8439 7.69093C18.9581 7.75862 19.0864 7.79901 19.2187 7.80894C19.3511 7.81887 19.484 7.79807 19.607 7.74816C19.7301 7.69826 19.8399 7.6206 19.9279 7.52125C20.0621 7.33329 20.176 7.13159 20.2675 6.91954C21.1337 5.1213 22.2765 3.47007 23.6544 2.02606C24.3017 1.3423 24.4134 1.17136 24.4134 0.824916C24.4134 0.58104 24.3405 0.430611 24.0898 0.141151C23.9553 0.00211874 23.912 -0.00927734 23.5428 -0.00927734H23.1348L22.4647 0.708676Z" fill="url(#paint17_linear_4537_40412)"/>
<path d="M28.4058 4.17993C28.0662 4.32124 26.6143 5.78905 26.2063 6.40216C25.7984 7.01527 26.1243 7.73551 26.8149 7.80388C27.1613 7.83579 27.4303 7.68536 27.7266 7.29562C27.8497 7.13835 28.3078 6.65971 28.7386 6.22894C29.6252 5.34689 29.7141 5.1919 29.5978 4.77252C29.562 4.64208 29.4964 4.52171 29.4063 4.42086C29.3161 4.32002 29.2038 4.24145 29.0782 4.19132C28.8599 4.1223 28.6263 4.11834 28.4058 4.17993Z" fill="url(#paint18_linear_4537_40412)"/>
<path d="M23.7487 4.33049C23.3909 4.50827 22.5088 5.8325 21.8114 7.22054C21.3874 8.07525 21.3419 8.19832 21.3419 8.48323C21.3297 8.57165 21.3364 8.66166 21.3615 8.7473C21.3866 8.83295 21.4297 8.91229 21.4877 8.9801C21.5714 9.09028 21.6802 9.17882 21.8051 9.2383C21.9301 9.29778 22.0674 9.32648 22.2057 9.32198C22.641 9.32198 22.7983 9.18295 23.1174 8.49462C23.5298 7.64174 24.006 6.82118 24.5419 6.03991C24.9499 5.44731 25.0114 5.32423 25.0114 5.12822C25.0117 4.979 24.9742 4.83213 24.9023 4.70136C24.8305 4.57059 24.7266 4.46019 24.6005 4.38049C24.4743 4.30079 24.33 4.2544 24.181 4.24566C24.0321 4.23691 23.8833 4.2661 23.7487 4.33049Z" fill="url(#paint19_linear_4537_40412)"/>
<path d="M30.9015 6.47514C30.6325 6.53668 30.3271 6.77144 29.6958 7.38683C28.5053 8.53013 27.6139 9.94832 27.0997 11.5168C26.7322 12.595 26.5428 13.7258 26.5391 14.8649C26.5619 15.2729 26.5846 15.355 26.7123 15.5282C26.809 15.6614 26.9424 15.7636 27.0962 15.8223C27.25 15.881 27.4175 15.8936 27.5784 15.8587C28.0753 15.7242 28.2371 15.4347 28.2918 14.5686C28.3654 12.7966 28.9767 11.089 30.0445 9.67288C30.3874 9.24606 30.755 8.83966 31.1454 8.45578C31.9203 7.69224 31.9864 7.58512 31.9317 7.18854C31.9153 7.07195 31.875 6.96002 31.8132 6.8598C31.7515 6.75958 31.6696 6.67324 31.5728 6.60621C31.476 6.53919 31.3664 6.49294 31.2509 6.47039C31.1353 6.44783 31.0164 6.44945 30.9015 6.47514Z" fill="url(#paint20_linear_4537_40412)"/>
<path d="M33.0504 8.86387C32.2458 9.2878 31.1632 10.5095 30.6048 11.6377C30.2925 12.2576 30.2538 12.5197 30.4087 12.8274C30.5037 13.0042 30.6544 13.1447 30.8374 13.2271C31.0203 13.3095 31.2254 13.3293 31.4207 13.2833C31.7375 13.1761 31.8766 13.0212 32.1729 12.4559C32.5394 11.7483 33.0403 11.119 33.6475 10.6029C34.1763 10.1471 34.3313 9.90547 34.2789 9.53624C34.2623 9.40035 34.2136 9.27036 34.1368 9.15703C34.06 9.04371 33.9573 8.95032 33.8373 8.8846C33.7172 8.81887 33.5832 8.78271 33.4463 8.77911C33.3095 8.7755 33.1737 8.80456 33.0504 8.86387Z" fill="url(#paint21_linear_4537_40412)"/>
<path d="M24.4412 10.2427C24.1016 10.3589 23.9443 10.5937 23.7574 11.2638C22.8571 14.5539 23.181 18.0589 24.6691 21.1282C25.3278 22.473 25.5808 22.7738 26.0594 22.7738C26.1724 22.7772 26.2849 22.7579 26.3902 22.717C26.4956 22.6762 26.5917 22.6146 26.6728 22.536C26.754 22.4574 26.8186 22.3633 26.8628 22.2593C26.907 22.1553 26.9299 22.0435 26.9301 21.9305C26.9301 21.7026 26.864 21.5339 26.5107 20.8593C25.5854 19.0724 25.166 17.6684 25.027 15.8792C24.9298 14.5086 25.0654 13.1315 25.4281 11.8062C25.5294 11.5062 25.5772 11.1906 25.5694 10.874C25.544 10.7543 25.4933 10.6414 25.4207 10.5428C25.3481 10.4442 25.2553 10.3623 25.1485 10.3025C25.0416 10.2428 24.9233 10.2065 24.8013 10.1962C24.6793 10.1859 24.5566 10.2017 24.4412 10.2427Z" fill="url(#paint22_linear_4537_40412)"/>
<path d="M4.27212 10.4204C3.93252 10.5891 3.81628 10.8762 3.72511 11.8449C3.59637 13.5679 3.56821 15.297 3.64078 17.0233C3.73195 18.3908 3.88238 19.5646 3.99862 19.8153C4.07113 19.9522 4.17957 20.0668 4.31229 20.1467C4.44501 20.2265 4.59699 20.2688 4.7519 20.2688C4.90681 20.2688 5.05879 20.2265 5.19151 20.1467C5.32423 20.0668 5.43267 19.9522 5.50518 19.8153C5.6237 19.5874 5.61686 19.3595 5.46188 17.9464C5.31286 16.2477 5.29382 14.5402 5.4049 12.8386C5.53481 11.0905 5.53481 10.9515 5.4049 10.7327C5.28322 10.5554 5.1028 10.4268 4.89552 10.3697C4.68825 10.3126 4.46744 10.3305 4.27212 10.4204Z" fill="url(#paint23_linear_4537_40412)"/>
<path d="M7.5491 10.4501C7.16391 10.6667 7.06363 11.0473 6.9679 12.5881C6.94055 13.0621 6.94511 13.1738 7.034 13.3356C7.10825 13.4732 7.21873 13.5879 7.35349 13.6672C7.48825 13.7466 7.64214 13.7875 7.79849 13.7856C7.95484 13.7837 8.1077 13.7391 8.24052 13.6566C8.37333 13.5741 8.48103 13.4568 8.55195 13.3174C8.69326 13.0234 8.86649 11.2296 8.77988 10.9402C8.74436 10.8174 8.68126 10.7044 8.59539 10.6097C8.50952 10.515 8.40315 10.4412 8.28441 10.394C8.16567 10.3467 8.03769 10.3272 7.91025 10.3369C7.78281 10.3466 7.65928 10.3854 7.5491 10.4501Z" fill="url(#paint24_linear_4537_40412)"/>
<path d="M10.9325 10.3818C10.7218 10.5036 10.5557 10.6897 10.4584 10.9128C10.3513 11.1863 10.1781 13.0553 10.1439 14.2883C10.1006 15.7015 10.1895 17.3311 10.3239 17.6114C10.3859 17.7614 10.4951 17.8871 10.6349 17.9694C10.7748 18.0516 10.9377 18.086 11.0989 18.0673C11.5068 18.0673 11.6915 17.9556 11.8533 17.6114C11.965 17.3835 11.9695 17.3493 11.9034 16.171C11.8304 14.7349 11.8808 13.2953 12.0538 11.8678C12.1427 11.0587 12.1427 11.0587 12.0265 10.8057C11.9232 10.6176 11.7569 10.4719 11.5567 10.3944C11.3566 10.3168 11.1356 10.3123 10.9325 10.3818Z" fill="url(#paint25_linear_4537_40412)"/>
<path d="M17.6585 10.3656C17.2346 10.5274 17.0773 10.8351 16.9383 11.8106C16.7518 13.0366 16.6839 14.2777 16.7354 15.5166C16.7408 16.6309 16.8469 17.7423 17.0523 18.8375C17.1981 19.6306 17.2984 19.8813 17.5332 20.0933C17.5991 20.1602 17.68 20.2104 17.7692 20.2397C17.8584 20.269 17.9533 20.2767 18.046 20.262C18.1991 20.2783 18.3536 20.2494 18.4905 20.179C18.6274 20.1085 18.7407 19.9995 18.8164 19.8654C18.9349 19.6375 18.9053 19.1816 18.7115 18.0853C18.3696 16.1136 18.3565 14.0989 18.6728 12.1229C18.8164 11.1474 18.8164 10.9468 18.6545 10.7121C18.5463 10.5567 18.3916 10.4395 18.2127 10.3772C18.0339 10.315 17.8399 10.3109 17.6585 10.3656Z" fill="url(#paint26_linear_4537_40412)"/>
<path d="M20.9232 10.4044C20.6292 10.5321 20.4993 10.7326 20.3876 11.2249C20.2152 12.0071 20.0941 12.7997 20.0252 13.5976C19.991 14.0945 20.0024 14.1879 20.1027 14.4227C20.1315 14.5068 20.1785 14.5834 20.2404 14.6473C20.3022 14.7111 20.3774 14.7605 20.4605 14.7919C20.5881 14.8648 20.733 14.9018 20.8798 14.899C21.0267 14.8962 21.1701 14.8537 21.2947 14.776C21.6298 14.6073 21.7187 14.3999 21.7962 13.6204C21.8304 13.2671 21.9192 12.6198 21.9967 12.1845C22.0589 11.8413 22.1038 11.4952 22.1312 11.1474C22.1272 11.0068 22.0882 10.8694 22.0178 10.7476C21.9474 10.6257 21.8477 10.5234 21.7279 10.4497C21.6081 10.3759 21.4718 10.3332 21.3313 10.3253C21.1908 10.3174 21.0506 10.3446 20.9232 10.4044Z" fill="url(#paint27_linear_4537_40412)"/>
<path d="M34.4307 12.0797C33.9292 12.2529 33.3708 13.1692 33.1634 14.1561C33.0061 14.8496 33.0488 15.5736 33.2865 16.2438C33.4418 16.7766 33.7087 17.2702 34.0694 17.6918C34.4302 18.1135 34.8765 18.4535 35.3788 18.6894C36.2449 19.1316 36.915 18.8353 36.915 18.0057C36.915 17.6433 36.7418 17.4313 36.2176 17.135C35.7127 16.8839 35.3043 16.4739 35.0552 15.968C34.8888 15.6216 34.8774 15.5555 34.8774 15.0016V14.4113L35.2284 13.7276C35.3767 13.4595 35.4929 13.1749 35.5748 12.8797C35.5584 12.6771 35.4759 12.4856 35.34 12.3344C35.2041 12.1833 35.0224 12.081 34.8227 12.0432C34.6909 12.0287 34.5575 12.0411 34.4307 12.0797Z" fill="url(#paint28_linear_4537_40412)"/>
<path d="M13.9445 12.6701C13.8129 12.7385 13.7005 12.8388 13.6177 12.9618C13.5349 13.0848 13.4843 13.2267 13.4705 13.3744C13.3975 13.8302 13.4545 16.5653 13.5548 17.5886C13.6551 18.571 13.8329 19.6035 13.9445 19.8154C14.0129 19.9275 14.0974 20.0288 14.1952 20.1163C14.2615 20.1739 14.3393 20.2167 14.4234 20.2418C14.5075 20.267 14.596 20.2739 14.683 20.2622C15.1981 20.2622 15.4876 20.0046 15.5263 19.5146C15.5014 19.0264 15.4481 18.5401 15.3668 18.0582C15.1981 16.9733 15.1867 16.7453 15.1594 15.0428C15.1252 13.0165 15.1161 12.9208 14.7856 12.7202C14.5201 12.6039 14.2219 12.5862 13.9445 12.6701Z" fill="url(#paint29_linear_4537_40412)"/>
<path d="M0.768557 13.4472C0.670708 13.4951 0.586343 13.5667 0.523076 13.6555C0.459808 13.7442 0.419628 13.8473 0.406162 13.9554V14.0945L0.367415 13.9554C0.318382 14.549 0.304682 15.1449 0.32639 15.7401C0.32639 17.9167 0.431233 19.1794 0.61585 19.4916C0.689654 19.6246 0.797682 19.7354 0.928733 19.8125C1.05978 19.8897 1.20908 19.9304 1.36115 19.9304C1.51322 19.9304 1.66252 19.8897 1.79357 19.8125C1.92463 19.7354 2.03265 19.6246 2.10646 19.4916C2.2113 19.307 2.2113 19.2637 2.1452 18.2062C2.09962 17.6045 2.05631 16.3828 2.03352 15.5167L1.99933 13.9212L1.83751 13.7161C1.72418 13.547 1.55217 13.4259 1.35473 13.3762C1.15728 13.3265 0.948436 13.3518 0.768557 13.4472Z" fill="url(#paint30_linear_4537_40412)"/>
<path d="M30.54 13.7525C30.0704 13.9257 29.9086 14.2721 29.9633 14.965C30.0089 15.528 30.0978 15.7468 30.3439 15.8972C30.4345 15.9638 30.5375 16.0118 30.6468 16.0384C30.756 16.065 30.8695 16.0696 30.9806 16.052C31.0917 16.0344 31.1982 15.9949 31.2939 15.9359C31.3896 15.8769 31.4727 15.7994 31.5382 15.708C31.6955 15.5052 31.7001 15.4664 31.7001 14.9377C31.7291 14.6696 31.6907 14.3985 31.5884 14.1491C31.49 13.9684 31.3301 13.829 31.1377 13.7563C30.9454 13.6835 30.7332 13.6821 30.54 13.7525Z" fill="url(#paint31_linear_4537_40412)"/>
<path d="M36.8895 14.033C36.4702 14.2107 36.2855 14.6848 36.4086 15.2728C36.4861 15.674 36.6365 15.8791 36.9442 15.9976C37.1382 16.0806 37.3562 16.0883 37.5556 16.0192C37.7549 15.9501 37.9213 15.8091 38.0223 15.6238C38.1385 15.4552 38.1499 15.3822 38.134 15.0426C38.0998 14.5458 37.9539 14.2449 37.6531 14.0763C37.5388 14.008 37.4096 13.9683 37.2766 13.9608C37.1437 13.9533 37.0109 13.978 36.8895 14.033Z" fill="url(#paint32_linear_4537_40412)"/>
<path d="M7.27077 15.2546C6.91293 15.4825 6.87419 15.6512 6.90837 16.6609C6.95852 18.0626 7.16365 19.6011 7.31635 19.8814C7.62177 20.3897 8.45596 20.3783 8.78873 19.8609C8.91864 19.6535 8.9118 19.3754 8.76138 18.0785C8.71579 17.6888 8.66109 17.0233 8.64514 16.5993C8.61551 16.0136 8.57676 15.7674 8.49927 15.5965C8.44376 15.4907 8.36718 15.3974 8.27425 15.3223C8.18132 15.2472 8.07401 15.192 7.95892 15.16C7.84383 15.1279 7.72341 15.1198 7.60506 15.1361C7.48671 15.1524 7.37294 15.1927 7.27077 15.2546Z" fill="url(#paint33_linear_4537_40412)"/>
<path d="M20.4651 15.7743C20.3278 15.8477 20.2152 15.9599 20.1414 16.0969C20.0676 16.234 20.0359 16.3897 20.0502 16.5447C20.0502 17.2148 20.2622 18.4524 20.4195 18.7487C20.5182 18.9061 20.6651 19.0275 20.8383 19.0949C21.0115 19.1622 21.2018 19.1719 21.3809 19.1225C21.5601 19.0731 21.7185 18.9673 21.8327 18.8207C21.9469 18.6741 22.0108 18.4946 22.0149 18.3088C21.9582 17.5553 21.8369 16.808 21.6525 16.0752C21.4588 15.7128 20.8821 15.5669 20.4651 15.7743Z" fill="url(#paint34_linear_4537_40412)"/>
<path d="M27.3981 16.2254C27.3035 16.261 27.2139 16.3084 27.1314 16.3667C26.7075 16.6676 26.6961 17.226 27.0972 18.336C27.3092 18.9286 27.4824 19.1018 27.8904 19.1337C28.0008 19.1519 28.1137 19.1478 28.2226 19.1219C28.3314 19.096 28.434 19.0486 28.5243 18.9827C28.6147 18.9167 28.691 18.8334 28.7489 18.7376C28.8068 18.6419 28.845 18.5356 28.8613 18.4249C28.8955 18.1582 28.6334 17.1075 28.3918 16.6015C28.2574 16.2984 27.7947 16.132 27.3981 16.2254Z" fill="url(#paint35_linear_4537_40412)"/>
<path d="M30.6947 16.4329C30.2868 16.6175 30.1249 17.0141 30.2548 17.5041C30.4668 18.3246 31.1665 19.4255 31.9734 20.2392C32.6936 20.9526 33.0834 21.2215 33.4412 21.2534C33.5949 21.2714 33.7507 21.2477 33.8922 21.1851C34.0337 21.1224 34.1558 21.0229 34.2459 20.8971C34.3359 20.7712 34.3906 20.6235 34.4042 20.4693C34.4178 20.3151 34.3899 20.1601 34.3232 20.0204C34.1665 19.8112 33.9808 19.6255 33.7717 19.4688C33.0267 18.8958 32.4374 18.145 32.0577 17.2853C31.7113 16.5651 31.554 16.4033 31.1597 16.3736C31.0022 16.3578 30.8432 16.3781 30.6947 16.4329Z" fill="url(#paint36_linear_4537_40412)"/>
<path d="M28.4305 19.3845C28.2806 19.4548 28.1576 19.572 28.0803 19.7184C28.003 19.8649 27.9755 20.0325 28.002 20.1959C28.018 20.4467 28.075 20.5629 28.3918 21.037C28.8843 21.7587 29.4638 22.417 30.1171 22.9971C30.7029 23.5054 30.8921 23.6102 31.234 23.6102C31.3784 23.6035 31.5189 23.5608 31.6426 23.486C31.7664 23.4112 31.8695 23.3067 31.9426 23.1819C32.0157 23.0572 32.0566 22.9162 32.0614 22.7716C32.0662 22.6271 32.0348 22.4837 31.9701 22.3544C31.8528 22.1803 31.7081 22.0264 31.5417 21.8985C30.8374 21.307 30.2232 20.6159 29.7183 19.8472C29.5018 19.5236 29.3901 19.4165 29.21 19.3435C29.0875 19.2828 28.9514 19.2547 28.8149 19.2618C28.6784 19.269 28.546 19.3113 28.4305 19.3845Z" fill="url(#paint37_linear_4537_40412)"/>
<path d="M21.429 19.7379C21.2543 19.8097 21.1099 19.9397 21.0201 20.1058C20.9304 20.272 20.9009 20.4641 20.9367 20.6495C21.1702 21.3762 21.4637 22.0821 21.8142 22.7601C22.7084 24.5477 23.9122 26.1628 25.3698 27.5305C26.0284 28.1573 26.3133 28.3191 26.6598 28.2621C27.1156 28.1801 27.4963 27.6536 27.3732 27.2365C27.2957 26.9516 27.2182 26.8558 26.4797 26.1356C24.912 24.637 23.6759 22.8264 22.8512 20.8205C22.6962 20.4353 22.5276 20.0661 22.4843 19.9931C22.3654 19.8346 22.1951 19.7223 22.0025 19.6758C21.8099 19.6292 21.6071 19.6511 21.429 19.7379Z" fill="url(#paint38_linear_4537_40412)"/>
<path d="M27.0769 22.8512C26.9739 22.8725 26.878 22.9197 26.7983 22.9883C26.7186 23.0568 26.6576 23.1446 26.6211 23.2432C26.5608 23.3791 26.5316 23.5268 26.5355 23.6754C26.5395 23.8241 26.5765 23.97 26.6439 24.1025C27.0705 24.6416 27.5534 25.1336 28.0843 25.5703C28.5083 25.9099 28.7316 25.9942 29.0712 25.9327C29.2207 25.8873 29.3568 25.8061 29.4676 25.696C29.5785 25.586 29.6607 25.4505 29.7071 25.3014C29.8257 24.8729 29.7185 24.7042 28.7316 23.756C28.2507 23.3002 27.804 22.8854 27.7379 22.8444C27.6328 22.8016 27.5202 22.7801 27.4067 22.7813C27.2932 22.7825 27.1811 22.8062 27.0769 22.8512Z" fill="url(#paint39_linear_4537_40412)"/>
<path d="M20.3116 24.8045C20.1348 24.8835 19.9908 25.0215 19.9044 25.1948C19.8179 25.3681 19.7943 25.5661 19.8375 25.7549C19.915 26.1059 20.5623 27.0677 21.4056 28.0934C21.9982 28.8022 23.1082 29.9532 23.3088 30.0581C23.4938 30.136 23.6981 30.1559 23.8946 30.1152C24.0912 30.0745 24.2708 29.9751 24.4096 29.8301C24.4781 29.7648 24.5297 29.6837 24.5599 29.594C24.59 29.5042 24.5979 29.4085 24.5828 29.315C24.5828 28.9253 24.5601 28.8865 23.833 28.1321C22.9848 27.2547 22.2124 26.3069 21.5241 25.2991C21.1709 24.784 20.7538 24.6153 20.3116 24.8045Z" fill="url(#paint40_linear_4537_40412)"/>
<path d="M108.677 28.5082V33.6797H107.766V28.5082H108.677ZM109.817 31.4712H108.395V30.7076H109.762C109.971 30.7217 110.177 30.6538 110.337 30.5185C110.405 30.4485 110.458 30.3648 110.493 30.2729C110.527 30.181 110.541 30.083 110.535 29.9851C110.541 29.8902 110.526 29.7951 110.49 29.7071C110.454 29.619 110.398 29.5403 110.327 29.4769C110.158 29.3476 109.947 29.2844 109.735 29.2991H108.367V28.4991H109.817C110.253 28.474 110.682 28.6076 111.027 28.8751C111.173 29.0018 111.288 29.16 111.364 29.3376C111.44 29.5153 111.474 29.7079 111.465 29.9008C111.474 30.179 111.394 30.4528 111.237 30.6826C111.069 30.9043 110.833 31.0645 110.565 31.1384V31.0404C110.852 31.0844 111.113 31.2358 111.294 31.4641C111.475 31.6924 111.563 31.9807 111.54 32.2712C111.547 32.5357 111.479 32.7968 111.342 33.0233C111.204 33.2392 111.002 33.4071 110.765 33.5042C110.476 33.623 110.166 33.6797 109.853 33.6706H108.365V32.8706H109.815C110.029 32.886 110.241 32.821 110.41 32.6883C110.48 32.6197 110.535 32.5367 110.57 32.4451C110.605 32.3535 110.621 32.2553 110.615 32.1572C110.62 32.0626 110.603 31.968 110.567 31.8805C110.531 31.7929 110.475 31.7146 110.405 31.6512C110.238 31.5265 110.032 31.4659 109.824 31.4803L109.817 31.4712Z" fill="#00B8A9"/>
<path d="M112.693 30.1858L113.833 33.4109L113.377 34.2952L111.793 30.1926L112.693 30.1858ZM111.873 35.3004V34.587H112.39C112.49 34.5883 112.59 34.5752 112.686 34.5482C112.773 34.5191 112.852 34.469 112.914 34.4023C112.994 34.3117 113.053 34.2053 113.088 34.0901L114.537 30.1858H115.428L113.717 34.4593C113.622 34.7317 113.456 34.9735 113.236 35.159C113.028 35.3131 112.774 35.3933 112.515 35.387C112.401 35.3877 112.286 35.3824 112.171 35.371C112.07 35.3564 111.97 35.3328 111.873 35.3004Z" fill="#00B8A9"/>
<path d="M118.861 28.5083V33.6798H117.949V28.5083H118.861ZM120.001 31.8975H118.633V31.0907H119.8C120.058 31.1118 120.314 31.0298 120.511 30.8627C120.595 30.7753 120.66 30.6715 120.702 30.5577C120.744 30.444 120.762 30.3228 120.755 30.2018C120.762 30.0821 120.745 29.9621 120.703 29.8498C120.661 29.7375 120.595 29.6353 120.511 29.5499C120.316 29.3879 120.067 29.3064 119.814 29.322H118.546V28.5151H119.991C120.309 28.5059 120.623 28.5789 120.903 28.7271C121.154 28.8641 121.36 29.0696 121.498 29.3197C121.637 29.5933 121.71 29.8959 121.71 30.2029C121.71 30.5099 121.637 30.8125 121.498 31.0861C121.358 31.3376 121.149 31.544 120.896 31.681C120.623 31.834 120.314 31.9126 120.001 31.9089V31.8975Z" fill="#00B8A9"/>
<path d="M124.546 30.1721V30.9698H124.227C123.956 30.9535 123.689 31.0444 123.484 31.2228C123.389 31.3232 123.315 31.4428 123.269 31.5736C123.222 31.7044 123.204 31.8435 123.215 31.9818V33.6798H122.352V30.1926H123.165L123.236 30.9151H123.152C123.193 30.6928 123.31 30.492 123.484 30.3476C123.677 30.191 123.92 30.11 124.168 30.1197C124.23 30.1197 124.291 30.1197 124.35 30.1197C124.417 30.1302 124.483 30.1478 124.546 30.1721Z" fill="#00B8A9"/>
<path d="M126.573 33.7735C126.254 33.781 125.939 33.7023 125.661 33.5456C125.398 33.3892 125.182 33.1638 125.037 32.8937C124.881 32.6017 124.802 32.2744 124.809 31.9433C124.805 31.6081 124.883 31.2771 125.037 30.9792C125.178 30.709 125.391 30.4827 125.652 30.325C125.93 30.1671 126.245 30.0882 126.564 30.0971C126.883 30.0903 127.198 30.169 127.476 30.325C127.728 30.4708 127.933 30.686 128.066 30.945C128.212 31.2391 128.284 31.5647 128.276 31.8931V32.137H125.276L125.29 31.5832H127.419C127.423 31.4761 127.406 31.3692 127.366 31.2694C127.327 31.1697 127.267 31.0793 127.191 31.0042C127.022 30.8494 126.8 30.7674 126.571 30.7763C126.391 30.7697 126.214 30.8139 126.058 30.904C125.915 30.9935 125.804 31.1271 125.744 31.2846C125.668 31.483 125.631 31.6944 125.636 31.9068C125.615 32.2122 125.701 32.5156 125.88 32.7638C125.971 32.8636 126.084 32.9415 126.209 32.9916C126.335 33.0417 126.47 33.0628 126.605 33.0533C126.809 33.0617 127.011 33.0152 127.191 32.9188C127.263 32.8785 127.327 32.824 127.379 32.7587C127.43 32.6933 127.468 32.6183 127.489 32.5382H128.289C128.227 32.8998 128.025 33.2224 127.726 33.4362C127.389 33.6714 126.984 33.7899 126.573 33.7735Z" fill="#00B8A9"/>
<path d="M129.813 33.6798H128.949V30.1857H129.742L129.847 30.8079L129.749 30.7236C129.831 30.5364 129.967 30.3777 130.139 30.2678C130.349 30.1311 130.595 30.0626 130.846 30.0718C131.121 30.0587 131.391 30.1444 131.609 30.3134C131.808 30.4775 131.95 30.7 132.015 30.9493H131.873C131.92 30.6934 132.064 30.4655 132.275 30.3134C132.501 30.1489 132.776 30.064 133.056 30.0718C133.235 30.0602 133.414 30.0861 133.582 30.1477C133.75 30.2093 133.903 30.3053 134.032 30.4296C134.267 30.6923 134.389 31.0371 134.371 31.3891V33.6684H133.514V31.6171C133.53 31.4099 133.462 31.2052 133.328 31.0473C133.263 30.9819 133.184 30.931 133.099 30.8976C133.013 30.8642 132.921 30.8492 132.828 30.8535C132.701 30.8521 132.575 30.8835 132.464 30.9447C132.351 31.0096 132.26 31.1053 132.199 31.2205C132.127 31.3678 132.093 31.5307 132.099 31.6946V33.6752H131.238V31.6102C131.252 31.407 131.186 31.2062 131.053 31.0518C130.99 30.9876 130.913 30.9373 130.829 30.9043C130.745 30.8714 130.655 30.8564 130.565 30.8604C130.434 30.8589 130.305 30.8894 130.189 30.9493C130.073 31.0115 129.98 31.1078 129.92 31.225C129.85 31.3712 129.816 31.5324 129.822 31.6946L129.813 33.6798Z" fill="#00B8A9"/>
<path d="M136.011 33.6799H135.211V28.4172H136.075V30.6965C136.19 30.4982 136.362 30.3393 136.569 30.2406C136.797 30.1326 137.047 30.078 137.299 30.0811C137.601 30.0697 137.901 30.1491 138.158 30.309C138.401 30.473 138.593 30.7031 138.71 30.9722C138.845 31.2816 138.912 31.6168 138.906 31.9546C138.912 32.2801 138.842 32.6025 138.7 32.8959C138.572 33.1606 138.37 33.3829 138.119 33.5364C137.854 33.6927 137.55 33.7716 137.242 33.7643C136.996 33.7678 136.754 33.709 136.537 33.5933C136.337 33.4892 136.173 33.3262 136.068 33.1261L136.011 33.6799ZM136.082 31.9181C136.078 32.1103 136.12 32.3007 136.202 32.4742C136.277 32.6304 136.396 32.7612 136.544 32.8503C136.704 32.9393 136.884 32.9841 137.066 32.9802C137.249 32.9849 137.43 32.9384 137.588 32.8458C137.734 32.7571 137.85 32.627 137.921 32.472C137.996 32.2974 138.035 32.1093 138.035 31.9193C138.035 31.7292 137.996 31.5411 137.921 31.3665C137.849 31.2107 137.734 31.0792 137.588 30.9882C137.431 30.8937 137.25 30.8463 137.066 30.8514C136.883 30.8475 136.702 30.8949 136.544 30.9882C136.397 31.0786 136.278 31.209 136.202 31.3643C136.12 31.534 136.079 31.7205 136.082 31.909V31.9181Z" fill="#00B8A9"/>
<path d="M140.462 33.6799H139.605V28.4172H140.462V33.6799Z" fill="#00B8A9"/>
<path d="M141.881 30.1858L143.021 33.4109L142.549 34.2952L140.965 30.1926L141.881 30.1858ZM141.061 35.3004V34.587H141.578C141.678 34.5884 141.778 34.5754 141.874 34.5482C141.961 34.5196 142.04 34.4694 142.102 34.4023C142.182 34.3122 142.241 34.2056 142.275 34.0901L143.727 30.1858H144.618L142.907 34.4593C142.812 34.732 142.645 34.9738 142.424 35.159C142.216 35.3134 141.962 35.3936 141.703 35.387C141.588 35.3877 141.474 35.3824 141.359 35.371C141.258 35.356 141.158 35.3323 141.061 35.3004Z" fill="#00B8A9"/>
</g>
<defs>
<linearGradient id="paint0_linear_4537_40412" x1="16.5239" y1="10.6141" x2="146.004" y2="10.6141" gradientUnits="userSpaceOnUse">
<stop stop-color="#F14FF2"/>
<stop offset="1" stop-color="#3827D6"/>
</linearGradient>
<linearGradient id="paint1_linear_4537_40412" x1="16.5248" y1="9.98492" x2="146.005" y2="9.98492" gradientUnits="userSpaceOnUse">
<stop stop-color="#F14FF2"/>
<stop offset="1" stop-color="#3827D6"/>
</linearGradient>
<linearGradient id="paint2_linear_4537_40412" x1="16.5255" y1="10.4113" x2="146.006" y2="10.4113" gradientUnits="userSpaceOnUse">
<stop stop-color="#F14FF2"/>
<stop offset="1" stop-color="#3827D6"/>
</linearGradient>
<linearGradient id="paint3_linear_4537_40412" x1="16.525" y1="15.6057" x2="146.005" y2="15.6057" gradientUnits="userSpaceOnUse">
<stop stop-color="#F14FF2"/>
<stop offset="1" stop-color="#3827D6"/>
</linearGradient>
<linearGradient id="paint4_linear_4537_40412" x1="16.5281" y1="15.8562" x2="146.008" y2="15.8562" gradientUnits="userSpaceOnUse">
<stop stop-color="#F14FF2"/>
<stop offset="1" stop-color="#3827D6"/>
</linearGradient>
<linearGradient id="paint5_linear_4537_40412" x1="16.522" y1="16.8798" x2="146.002" y2="16.8798" gradientUnits="userSpaceOnUse">
<stop stop-color="#F14FF2"/>
<stop offset="1" stop-color="#3827D6"/>
</linearGradient>
<linearGradient id="paint6_linear_4537_40412" x1="16.5252" y1="16.889" x2="146.005" y2="16.889" gradientUnits="userSpaceOnUse">
<stop stop-color="#F14FF2"/>
<stop offset="1" stop-color="#3827D6"/>
</linearGradient>
<linearGradient id="paint7_linear_4537_40412" x1="16.5258" y1="16.9139" x2="146.006" y2="16.9139" gradientUnits="userSpaceOnUse">
<stop stop-color="#F14FF2"/>
<stop offset="1" stop-color="#3827D6"/>
</linearGradient>
<linearGradient id="paint8_linear_4537_40412" x1="16.5245" y1="16.8843" x2="146.004" y2="16.8843" gradientUnits="userSpaceOnUse">
<stop stop-color="#F14FF2"/>
<stop offset="1" stop-color="#3827D6"/>
</linearGradient>
<linearGradient id="paint9_linear_4537_40412" x1="16.523" y1="16.8934" x2="146.003" y2="16.8934" gradientUnits="userSpaceOnUse">
<stop stop-color="#F14FF2"/>
<stop offset="1" stop-color="#3827D6"/>
</linearGradient>
<linearGradient id="paint10_linear_4537_40412" x1="16.5258" y1="18.8421" x2="146.006" y2="18.8421" gradientUnits="userSpaceOnUse">
<stop stop-color="#F14FF2"/>
<stop offset="1" stop-color="#3827D6"/>
</linearGradient>
<linearGradient id="paint11_linear_4537_40412" x1="16.5279" y1="17.2784" x2="146.008" y2="17.2784" gradientUnits="userSpaceOnUse">
<stop stop-color="#F14FF2"/>
<stop offset="1" stop-color="#3827D6"/>
</linearGradient>
<linearGradient id="paint12_linear_4537_40412" x1="16.5255" y1="17.3357" x2="146.005" y2="17.3357" gradientUnits="userSpaceOnUse">
<stop stop-color="#F14FF2"/>
<stop offset="1" stop-color="#3827D6"/>
</linearGradient>
<linearGradient id="paint13_linear_4537_40412" x1="16.5224" y1="17.3378" x2="146.003" y2="17.3378" gradientUnits="userSpaceOnUse">
<stop stop-color="#F14FF2"/>
<stop offset="1" stop-color="#3827D6"/>
</linearGradient>
<linearGradient id="paint14_linear_4537_40412" x1="16.5273" y1="17.3312" x2="146.008" y2="17.3312" gradientUnits="userSpaceOnUse">
<stop stop-color="#F14FF2"/>
<stop offset="1" stop-color="#3827D6"/>
</linearGradient>
<linearGradient id="paint15_linear_4537_40412" x1="16.5224" y1="15.9154" x2="146.002" y2="15.9154" gradientUnits="userSpaceOnUse">
<stop stop-color="#F14FF2"/>
<stop offset="1" stop-color="#3827D6"/>
</linearGradient>
<linearGradient id="paint16_linear_4537_40412" x1="16.5221" y1="18.9172" x2="146.002" y2="18.9172" gradientUnits="userSpaceOnUse">
<stop stop-color="#F14FF2"/>
<stop offset="1" stop-color="#3827D6"/>
</linearGradient>
<linearGradient id="paint17_linear_4537_40412" x1="-5.401" y1="3.90642" x2="41.4004" y2="3.90642" gradientUnits="userSpaceOnUse">
<stop stop-color="#F14FF2"/>
<stop offset="1" stop-color="#3827D6"/>
</linearGradient>
<linearGradient id="paint18_linear_4537_40412" x1="-5.39955" y1="5.97139" x2="41.4019" y2="5.97139" gradientUnits="userSpaceOnUse">
<stop stop-color="#F14FF2"/>
<stop offset="1" stop-color="#3827D6"/>
</linearGradient>
<linearGradient id="paint19_linear_4537_40412" x1="-5.40246" y1="6.78293" x2="41.399" y2="6.78293" gradientUnits="userSpaceOnUse">
<stop stop-color="#F14FF2"/>
<stop offset="1" stop-color="#3827D6"/>
</linearGradient>
<linearGradient id="paint20_linear_4537_40412" x1="-5.3996" y1="11.1658" x2="41.4018" y2="11.1658" gradientUnits="userSpaceOnUse">
<stop stop-color="#F14FF2"/>
<stop offset="1" stop-color="#3827D6"/>
</linearGradient>
<linearGradient id="paint21_linear_4537_40412" x1="-5.40005" y1="11.0451" x2="41.4014" y2="11.0451" gradientUnits="userSpaceOnUse">
<stop stop-color="#F14FF2"/>
<stop offset="1" stop-color="#3827D6"/>
</linearGradient>
<linearGradient id="paint22_linear_4537_40412" x1="-5.40057" y1="16.4855" x2="41.4008" y2="16.4855" gradientUnits="userSpaceOnUse">
<stop stop-color="#F14FF2"/>
<stop offset="1" stop-color="#3827D6"/>
</linearGradient>
<linearGradient id="paint23_linear_4537_40412" x1="-5.40315" y1="15.3002" x2="41.3983" y2="15.3002" gradientUnits="userSpaceOnUse">
<stop stop-color="#F14FF2"/>
<stop offset="1" stop-color="#3827D6"/>
</linearGradient>
<linearGradient id="paint24_linear_4537_40412" x1="-5.40368" y1="12.0593" x2="41.3977" y2="12.0593" gradientUnits="userSpaceOnUse">
<stop stop-color="#F14FF2"/>
<stop offset="1" stop-color="#3827D6"/>
</linearGradient>
<linearGradient id="paint25_linear_4537_40412" x1="-5.40266" y1="14.1926" x2="41.3987" y2="14.1926" gradientUnits="userSpaceOnUse">
<stop stop-color="#F14FF2"/>
<stop offset="1" stop-color="#3827D6"/>
</linearGradient>
<linearGradient id="paint26_linear_4537_40412" x1="-5.40258" y1="15.2933" x2="41.3988" y2="15.2933" gradientUnits="userSpaceOnUse">
<stop stop-color="#F14FF2"/>
<stop offset="1" stop-color="#3827D6"/>
</linearGradient>
<linearGradient id="paint27_linear_4537_40412" x1="-5.40172" y1="12.613" x2="41.3997" y2="12.613" gradientUnits="userSpaceOnUse">
<stop stop-color="#F14FF2"/>
<stop offset="1" stop-color="#3827D6"/>
</linearGradient>
<linearGradient id="paint28_linear_4537_40412" x1="-5.40317" y1="15.462" x2="41.3982" y2="15.462" gradientUnits="userSpaceOnUse">
<stop stop-color="#F14FF2"/>
<stop offset="1" stop-color="#3827D6"/>
</linearGradient>
<linearGradient id="paint29_linear_4537_40412" x1="-5.40373" y1="16.4399" x2="41.3977" y2="16.4399" gradientUnits="userSpaceOnUse">
<stop stop-color="#F14FF2"/>
<stop offset="1" stop-color="#3827D6"/>
</linearGradient>
<linearGradient id="paint30_linear_4537_40412" x1="-5.40128" y1="16.6358" x2="41.4001" y2="16.6358" gradientUnits="userSpaceOnUse">
<stop stop-color="#F14FF2"/>
<stop offset="1" stop-color="#3827D6"/>
</linearGradient>
<linearGradient id="paint31_linear_4537_40412" x1="-5.3987" y1="14.8807" x2="41.4027" y2="14.8807" gradientUnits="userSpaceOnUse">
<stop stop-color="#F14FF2"/>
<stop offset="1" stop-color="#3827D6"/>
</linearGradient>
<linearGradient id="paint32_linear_4537_40412" x1="-5.40136" y1="15.013" x2="41.4001" y2="15.013" gradientUnits="userSpaceOnUse">
<stop stop-color="#F14FF2"/>
<stop offset="1" stop-color="#3827D6"/>
</linearGradient>
<linearGradient id="paint33_linear_4537_40412" x1="-5.40167" y1="17.6911" x2="41.3998" y2="17.6911" gradientUnits="userSpaceOnUse">
<stop stop-color="#F14FF2"/>
<stop offset="1" stop-color="#3827D6"/>
</linearGradient>
<linearGradient id="paint34_linear_4537_40412" x1="-5.40404" y1="17.4131" x2="41.3974" y2="17.4131" gradientUnits="userSpaceOnUse">
<stop stop-color="#F14FF2"/>
<stop offset="1" stop-color="#3827D6"/>
</linearGradient>
<linearGradient id="paint35_linear_4537_40412" x1="-5.4021" y1="17.6682" x2="41.3993" y2="17.6682" gradientUnits="userSpaceOnUse">
<stop stop-color="#F14FF2"/>
<stop offset="1" stop-color="#3827D6"/>
</linearGradient>
<linearGradient id="paint36_linear_4537_40412" x1="-5.39894" y1="18.8101" x2="41.4025" y2="18.8101" gradientUnits="userSpaceOnUse">
<stop stop-color="#F14FF2"/>
<stop offset="1" stop-color="#3827D6"/>
</linearGradient>
<linearGradient id="paint37_linear_4537_40412" x1="-5.40214" y1="21.4358" x2="41.3993" y2="21.4358" gradientUnits="userSpaceOnUse">
<stop stop-color="#F14FF2"/>
<stop offset="1" stop-color="#3827D6"/>
</linearGradient>
<linearGradient id="paint38_linear_4537_40412" x1="-5.39968" y1="23.9658" x2="41.4018" y2="23.9658" gradientUnits="userSpaceOnUse">
<stop stop-color="#F14FF2"/>
<stop offset="1" stop-color="#3827D6"/>
</linearGradient>
<linearGradient id="paint39_linear_4537_40412" x1="-5.39962" y1="24.3669" x2="41.4018" y2="24.3669" gradientUnits="userSpaceOnUse">
<stop stop-color="#F14FF2"/>
<stop offset="1" stop-color="#3827D6"/>
</linearGradient>
<linearGradient id="paint40_linear_4537_40412" x1="-5.40024" y1="27.4347" x2="41.4012" y2="27.4347" gradientUnits="userSpaceOnUse">
<stop stop-color="#F14FF2"/>
<stop offset="1" stop-color="#3827D6"/>
</linearGradient>
<clipPath id="clip0_4537_40412">
<rect width="144.336" height="35.378" fill="white" transform="translate(0.332031)"/>
</clipPath>
</defs>
</svg>
