<svg width="40" height="40" viewBox="0 0 40 40" fill="none" xmlns="http://www.w3.org/2000/svg">
<g clip-path="url(#clip0_19019_104718)">
<circle cx="20" cy="20" r="20" fill="#FEDF89"/>
<g clip-path="url(#clip1_19019_104718)">
<path d="M20 28.3307C15.3975 28.3307 11.6666 24.5999 11.6666 19.9974C11.6666 15.3949 15.3975 11.6641 20 11.6641C24.6025 11.6641 28.3333 15.3949 28.3333 19.9974C28.3333 24.5999 24.6025 28.3307 20 28.3307ZM20 26.6641C21.7681 26.6641 23.4638 25.9617 24.714 24.7114C25.9642 23.4612 26.6666 21.7655 26.6666 19.9974C26.6666 18.2293 25.9642 16.5336 24.714 15.2834C23.4638 14.0331 21.7681 13.3307 20 13.3307C18.2318 13.3307 16.5362 14.0331 15.2859 15.2834C14.0357 16.5336 13.3333 18.2293 13.3333 19.9974C13.3333 21.7655 14.0357 23.4612 15.2859 24.7114C16.5362 25.9617 18.2318 26.6641 20 26.6641ZM19.1666 22.4974H20.8333V24.1641H19.1666V22.4974ZM19.1666 15.8307H20.8333V20.8307H19.1666V15.8307Z" fill="#DC6803"/>
</g>
</g>
<defs>
<clipPath id="clip0_19019_104718">
<rect width="40" height="40" fill="white"/>
</clipPath>
<clipPath id="clip1_19019_104718">
<rect width="20" height="20" fill="white" transform="translate(10 10)"/>
</clipPath>
</defs>
</svg>
