<svg width="120" height="38" viewBox="0 0 120 38" fill="none" xmlns="http://www.w3.org/2000/svg">
<path d="M23.3717 12.5503C23.1756 7.96114 17.9886 3.8957 12.0811 3.69905H1.3458L0.924726 3.18362H0.660522V12.5503C0.660522 17.3361 5.91363 21.2049 12.0151 21.4015C17.9886 21.2049 23.1756 17.1436 23.3717 12.5503Z" fill="white"/>
<path d="M6.35328 32.7968C4.05801 32.6705 2.05172 30.0582 1.98979 27.1064L2.05378 21.6976L1.89072 21.532V21.4016L6.48744 21.4554C8.88385 21.4843 10.789 24.1298 10.8509 27.1789C10.7168 30.1617 8.65061 32.7264 6.35328 32.7968Z" fill="white"/>
<path d="M44.188 14.5106C44.6937 15.4855 44.9476 16.6282 44.9476 17.9385C44.9476 19.2156 44.6937 20.3417 44.188 21.3167C43.7153 22.2544 42.9826 23.0389 42.0806 23.575C41.1827 24.107 40.163 24.374 39.0195 24.372C38.0886 24.372 37.2795 24.2002 36.5942 23.8565C35.9379 23.5378 35.3723 23.0555 34.9533 22.4572V29.135H32.3051V11.6478H34.6086L34.9285 13.5149C35.942 12.1715 37.3063 11.4987 39.0216 11.4987C40.1651 11.4987 41.1848 11.7575 42.0827 12.2729C42.9867 12.7966 43.7195 13.5749 44.188 14.5106ZM42.254 17.9364C42.254 16.6923 41.9155 15.6843 41.2364 14.9142C40.5594 14.1442 39.6718 13.7592 38.5799 13.7571C37.4859 13.7571 36.6025 14.138 35.9337 14.8997C35.265 15.6615 34.9306 16.6571 34.9326 17.8888C34.9326 19.1515 35.267 20.174 35.9358 20.9586C36.6046 21.7431 37.4859 22.1364 38.582 22.1385C39.6759 22.1385 40.5614 21.7452 41.2384 20.9586C41.9175 20.172 42.256 19.166 42.254 17.9364Z" fill="white"/>
<path d="M53.4001 14.1338H52.2256C51.1316 14.1338 50.339 14.4899 49.8498 15.204C49.3606 15.9161 49.115 16.8207 49.115 17.9178V24.2312H46.4709V11.6478H48.8219L49.115 13.5398C49.4577 12.9664 49.9386 12.4903 50.5124 12.1508C51.0842 11.8155 51.8499 11.6478 52.8159 11.6478H53.4021L53.4001 14.1338Z" fill="white"/>
<path d="M56.3517 12.2998C57.2744 11.7679 58.3312 11.5008 59.5242 11.5008C60.7338 11.5008 61.7988 11.7472 62.7215 12.2377C63.6297 12.7138 64.3852 13.4363 64.9032 14.3222C65.4337 15.2227 65.7062 16.2804 65.7227 17.4914C65.7227 17.8288 65.6979 18.1662 65.6504 18.4994H56.1948V18.6505C56.2568 19.7476 56.6015 20.615 57.2269 21.2546C57.8523 21.8942 58.6759 22.213 59.6997 22.213C60.5171 22.213 61.2023 22.0205 61.7576 21.6355C62.3149 21.2484 62.707 20.6646 62.8598 20.0022H65.5039C65.2975 21.2442 64.637 22.3641 63.6545 23.1465C62.6493 23.9621 61.3964 24.3699 59.8937 24.3699C58.5871 24.3699 57.4477 24.1049 56.4776 23.573C55.5261 23.0575 54.7438 22.2772 54.2257 21.325C53.6952 20.3583 53.431 19.2363 53.431 17.9592C53.431 16.6654 53.689 15.5332 54.203 14.5582C54.6881 13.6122 55.4332 12.8298 56.3517 12.2998ZM61.9371 14.4154C61.3241 13.8979 60.5521 13.6412 59.6212 13.6412C58.8018 13.6246 58.005 13.9082 57.3796 14.4402C56.7521 14.9722 56.3889 15.6801 56.2898 16.5661H63.027C62.9114 15.647 62.5481 14.9308 61.9371 14.4154Z" fill="white"/>
<path d="M86.3698 17.127V24.2271H83.7257V17.1519C83.7257 16.0548 83.5048 15.2185 83.0652 14.6451C82.6235 14.0717 81.9712 13.7861 81.1063 13.7861C80.192 13.7861 79.4695 14.109 78.937 14.7569C78.4045 15.4027 78.1403 16.2928 78.1423 17.4272V24.2312H75.4714V17.1519C75.4714 16.0382 75.2464 15.1978 74.7985 14.6327C74.3485 14.0676 73.6921 13.7861 72.8294 13.7861C71.9315 13.7861 71.2173 14.1214 70.6868 14.7942C70.1564 15.4648 69.8901 16.3673 69.8901 17.4955V24.2271H67.2439V11.6478H69.5474L69.8426 13.2934C70.7405 12.1135 71.9645 11.5153 73.5167 11.4987C74.3981 11.4987 75.1742 11.6871 75.8429 12.0639C76.5117 12.4406 77.0277 13.014 77.3869 13.784C77.81 13.0802 78.4107 12.5006 79.1269 12.1011C79.8452 11.6995 80.71 11.4987 81.7235 11.4987C83.0961 11.4987 84.2149 11.9459 85.0797 12.838C85.9384 13.7323 86.3718 15.1626 86.3698 17.127Z" fill="white"/>
<path d="M100.04 14.4982C100.546 15.4648 100.8 16.6095 100.8 17.9364C100.8 19.1991 100.546 20.3169 100.04 21.2898C99.5655 22.2316 98.8348 23.0182 97.9328 23.5626C97.0349 24.1029 96.0132 24.372 94.8697 24.372C93.9388 24.372 93.1317 24.196 92.4444 23.8441C91.7798 23.5109 91.208 23.0182 90.7787 22.4096L90.4608 24.2271H88.1573V7.02966H90.8014V13.517C91.7983 12.1736 93.1524 11.5008 94.8676 11.5008C96.0112 11.5008 97.0308 11.7596 97.9308 12.275C98.8348 12.7946 99.5676 13.5667 100.04 14.4982ZM98.1041 17.9364C98.1041 16.7089 97.7656 15.705 97.0865 14.9266C96.4095 14.1463 95.522 13.7571 94.428 13.7571C93.334 13.7571 92.4527 14.1421 91.7839 14.9122C91.1151 15.6822 90.7787 16.6799 90.7787 17.9095C90.7787 19.1536 91.1131 20.1699 91.7839 20.9544C92.4527 21.741 93.3361 22.1343 94.428 22.1343C95.522 22.1343 96.4095 21.7452 97.0865 20.9689C97.7656 20.1906 98.1041 19.1805 98.1041 17.9364Z" fill="white"/>
<path d="M104.963 7.02966V24.2271H102.317V7.02966H104.963Z" fill="white"/>
<path d="M112.503 21.3519L115.909 11.6499H118.722L113.04 26.1936C112.819 26.7918 112.549 27.3714 112.233 27.9261C112.014 28.3029 111.7 28.6154 111.327 28.8349C110.968 29.0398 110.487 29.1433 109.882 29.1433H107.04V26.8063H108.901C109.407 26.8063 109.76 26.7276 109.954 26.5724C110.15 26.4171 110.354 26.0694 110.567 25.5291L111.081 24.3244L106.181 11.6499H108.994L112.503 21.3519Z" fill="white"/>
</svg>
