<svg width="32" height="32" viewBox="0 0 32 32" fill="none" xmlns="http://www.w3.org/2000/svg">
<circle cx="16" cy="16" r="15.5" fill="#F0F1F6" stroke="#7986A4"/>
<path d="M16.0001 17.7102C16.9427 17.7102 17.7068 16.9461 17.7068 16.0035C17.7068 15.061 16.9427 14.2969 16.0001 14.2969C15.0576 14.2969 14.2935 15.061 14.2935 16.0035C14.2935 16.9461 15.0576 17.7102 16.0001 17.7102Z" fill="#04070D"/>
<path d="M21.9733 17.7102C22.9158 17.7102 23.6799 16.9461 23.6799 16.0035C23.6799 15.061 22.9158 14.2969 21.9733 14.2969C21.0307 14.2969 20.2666 15.061 20.2666 16.0035C20.2666 16.9461 21.0307 17.7102 21.9733 17.7102Z" fill="#04070D"/>
<path d="M10.0267 17.7102C10.9693 17.7102 11.7334 16.9461 11.7334 16.0035C11.7334 15.061 10.9693 14.2969 10.0267 14.2969C9.08417 14.2969 8.32007 15.061 8.32007 16.0035C8.32007 16.9461 9.08417 17.7102 10.0267 17.7102Z" fill="#04070D"/>
</svg>
