<svg width="20" height="5" viewBox="0 0 20 5" fill="none" xmlns="http://www.w3.org/2000/svg">
<path fill-rule="evenodd" clip-rule="evenodd" d="M10 5C9.67169 5 9.34661 4.93534 9.04329 4.8097C8.73998 4.68406 8.46438 4.49991 8.23223 4.26777C8.00009 4.03562 7.81594 3.76002 7.6903 3.45671C7.56466 3.15339 7.5 2.8283 7.5 2.5C7.5 2.1717 7.56466 1.84661 7.6903 1.54329C7.81594 1.23998 8.00009 0.964379 8.23223 0.732233C8.46438 0.500086 8.73998 0.315938 9.04329 0.190301C9.34661 0.0646642 9.67169 -9.78424e-09 10 0C10.663 1.97602e-08 11.2989 0.263392 11.7678 0.732233C12.2366 1.20107 12.5 1.83696 12.5 2.5C12.5 3.16304 12.2366 3.79893 11.7678 4.26777C11.2989 4.73661 10.663 5 10 5ZM2.5 5C2.1717 5 1.84661 4.93534 1.54329 4.8097C1.23998 4.68406 0.964379 4.49991 0.732233 4.26777C0.500086 4.03562 0.315938 3.76002 0.190301 3.45671C0.0646642 3.15339 0 2.8283 0 2.5C0 2.1717 0.0646642 1.84661 0.190301 1.54329C0.315938 1.23998 0.500086 0.964379 0.732233 0.732233C0.964379 0.500086 1.23998 0.315938 1.54329 0.190301C1.84661 0.0646642 2.1717 -9.78424e-09 2.5 0C3.16304 1.97602e-08 3.79893 0.263392 4.26777 0.732233C4.73661 1.20107 5 1.83696 5 2.5C5 3.16304 4.73661 3.79893 4.26777 4.26777C3.79893 4.73661 3.16304 5 2.5 5ZM17.5 5C17.1717 5 16.8466 4.93534 16.5433 4.8097C16.24 4.68406 15.9644 4.49991 15.7322 4.26777C15.5001 4.03562 15.3159 3.76002 15.1903 3.45671C15.0647 3.15339 15 2.8283 15 2.5C15 2.1717 15.0647 1.84661 15.1903 1.54329C15.3159 1.23998 15.5001 0.964379 15.7322 0.732233C15.9644 0.500086 16.24 0.315938 16.5433 0.190301C16.8466 0.0646642 17.1717 -9.78424e-09 17.5 0C18.163 1.97602e-08 18.7989 0.263392 19.2678 0.732233C19.7366 1.20107 20 1.83696 20 2.5C20 3.16304 19.7366 3.79893 19.2678 4.26777C18.7989 4.73661 18.163 5 17.5 5Z" fill="#2D4875"/>
</svg>
