<svg width="1062" height="870" viewBox="0 0 1062 870" fill="none" xmlns="http://www.w3.org/2000/svg">
<g id="No Results">
<g id="circle">
<path id="Stroke 1" d="M34.0349 399.374V408.374" stroke="#D2D8DF" stroke-width="2.921" stroke-linecap="round"/>
<g id="Group 8">
<path id="Stroke 2" d="M13.8215 404.25L21.1758 411.821" stroke="#D2D8DF" stroke-width="2.921" stroke-linecap="round"/>
<path id="Stroke 4" d="M5.2207 424.403H15.6196" stroke="#D2D8DF" stroke-width="2.921" stroke-linecap="round"/>
<path id="Stroke 6" d="M12.98 444.915L20.3343 437.344" stroke="#D2D8DF" stroke-width="2.921" stroke-linecap="round"/>
</g>
<path id="Stroke 9" d="M34.0349 447.374V438.374" stroke="#D2D8DF" stroke-width="2.921" stroke-linecap="round"/>
<path id="Stroke 10" d="M49.0349 441.374L43.0349 435.374" stroke="#D2D8DF" stroke-width="2.921" stroke-linecap="round"/>
<path id="Stroke 11" d="M61.0349 426.374H52.0349" stroke="#D2D8DF" stroke-width="2.921" stroke-linecap="round"/>
<path id="Stroke 12" d="M55.0349 405.374L49.0349 411.374" stroke="#D2D8DF" stroke-width="2.921" stroke-linecap="round"/>
<path id="Stroke 13" d="M517.036 6.37354V12.3735" stroke="#D2D8DF" stroke-width="2.921" stroke-linecap="round"/>
<path id="Stroke 15" d="M499.036 24.3735H505.036" stroke="#D2D8DF" stroke-width="2.921" stroke-linecap="round"/>
<path id="Stroke 16" d="M517.036 42.3735V36.3735" stroke="#D2D8DF" stroke-width="2.921" stroke-linecap="round"/>
<path id="Stroke 17" d="M532.036 24.3735H526.036" stroke="#D2D8DF" stroke-width="2.921" stroke-linecap="round"/>
<path id="Stroke 18" d="M169.036 258.374V267.374" stroke="#D2D8DF" stroke-width="2.921" stroke-linecap="round"/>
<path id="Stroke 19" d="M142.036 285.374H151.036" stroke="#D2D8DF" stroke-width="2.921" stroke-linecap="round"/>
<path id="Stroke 20" d="M169.036 309.374V300.374" stroke="#D2D8DF" stroke-width="2.921" stroke-linecap="round"/>
<path id="Stroke 21" d="M193.036 285.374H184.036" stroke="#D2D8DF" stroke-width="2.921" stroke-linecap="round"/>
<g id="Group 42">
<path id="Stroke 22" d="M814.797 585.49C821.966 585.49 827.781 591.306 827.781 598.477C827.781 605.651 821.966 611.465 814.797 611.465C807.628 611.465 801.813 605.651 801.813 598.477" stroke="#D2D8DF" stroke-width="2.921" stroke-linecap="round"/>
<path id="Fill 26" fill-rule="evenodd" clip-rule="evenodd" d="M874.22 467.664C881.93 465.259 893.747 455.83 896.482 445.686C898.963 454.653 909.362 465.259 918.745 466.061C908.183 469.801 898.084 480.911 896.482 489.639C895.392 480.743 881.425 468.96 874.22 467.664Z" fill="#EBECEE"/>
<path id="Fill 28" fill-rule="evenodd" clip-rule="evenodd" d="M82.8538 581.489C86.7097 580.287 92.6159 575.574 93.9836 570.502C95.2239 574.983 100.422 580.287 105.113 580.689C99.8338 582.557 94.7859 588.113 93.9836 592.477C93.4386 588.029 86.455 582.136 82.8538 581.489Z" fill="#EBECEE"/>
<path id="Fill 30" fill-rule="evenodd" clip-rule="evenodd" d="M154.41 164.165C154.41 169.729 149.902 174.236 144.342 174.236C138.78 174.236 134.274 169.729 134.274 164.165C134.274 158.604 138.78 154.095 144.342 154.095C149.902 154.095 154.41 158.604 154.41 164.165Z" fill="#D1D8DF"/>
<path id="Fill 32" fill-rule="evenodd" clip-rule="evenodd" d="M826.692 191.205C826.692 200.501 819.156 208.037 809.865 208.037C800.569 208.037 793.035 200.501 793.035 191.205C793.035 181.909 800.569 174.374 809.865 174.374C819.156 174.374 826.692 181.909 826.692 191.205Z" fill="#EBECEE"/>
<path id="Fill 34" fill-rule="evenodd" clip-rule="evenodd" d="M1059.78 145.602C1059.78 152.977 1053.8 158.954 1046.43 158.954C1039.06 158.954 1033.09 152.977 1033.09 145.602C1033.09 138.227 1039.06 132.25 1046.43 132.25C1053.8 132.25 1059.78 138.227 1059.78 145.602Z" fill="#EBECEE"/>
<path id="Stroke 36" fill-rule="evenodd" clip-rule="evenodd" d="M342.567 769.176C342.567 773.826 338.801 777.593 334.153 777.593C329.507 777.593 325.74 773.826 325.74 769.176C325.74 764.527 329.507 760.759 334.153 760.759C338.801 760.759 342.567 764.527 342.567 769.176Z" stroke="#D2D8DF" stroke-width="2.921" stroke-linecap="round"/>
<path id="Stroke 38" fill-rule="evenodd" clip-rule="evenodd" d="M337.561 99.4691C337.561 105.033 333.053 109.54 327.494 109.54C321.934 109.54 317.426 105.033 317.426 99.4691C317.426 93.9078 321.934 89.3987 327.494 89.3987C333.053 89.3987 337.561 93.9078 337.561 99.4691Z" stroke="#D2D8DF" stroke-width="2.921" stroke-linecap="round"/>
<path id="Stroke 40" fill-rule="evenodd" clip-rule="evenodd" d="M594.372 862.382C587.939 864.83 580.739 861.597 578.291 855.165C575.843 848.73 579.073 841.525 585.509 839.08C591.94 836.631 599.14 839.862 601.587 846.297C604.037 852.732 600.805 859.934 594.372 862.382Z" stroke="#D2D8DF" stroke-width="2.921" stroke-linecap="round"/>
</g>
</g>
<g id="search">
<g id="documents">
<path id="Fill 1" fill-rule="evenodd" clip-rule="evenodd" d="M590.539 624.374H344.525C327.209 624.374 313.036 610.158 313.036 592.784V241.956C313.036 224.582 327.209 210.374 344.525 210.374H590.539C607.862 210.374 622.036 224.582 622.036 241.956V592.784C622.036 610.158 607.862 624.374 590.539 624.374Z" fill="#E0E2EE"/>
<path id="Fill 3" fill-rule="evenodd" clip-rule="evenodd" d="M569.539 639.374H323.525C306.209 639.374 292.036 625.158 292.036 607.784V256.956C292.036 239.582 306.209 225.374 323.525 225.374H569.539C586.862 225.374 601.036 239.582 601.036 256.956V607.784C601.036 625.158 586.862 639.374 569.539 639.374Z" fill="#E8EBF2"/>
<path id="Fill 5" fill-rule="evenodd" clip-rule="evenodd" d="M549.111 651.215H302.589C285.237 651.215 271.034 637.058 271.034 619.756V270.381C271.034 253.079 285.237 238.929 302.589 238.929H549.111C566.47 238.929 580.673 253.079 580.673 270.381V619.756C580.673 637.058 566.47 651.215 549.111 651.215Z" fill="#D8DBEA"/>
<path id="Fill 8" fill-rule="evenodd" clip-rule="evenodd" d="M549.111 651.215H302.589C285.237 651.215 271.034 637.058 271.034 619.756V270.381C271.034 253.079 285.237 238.929 302.589 238.929H549.111C566.47 238.929 580.673 253.079 580.673 270.381V619.756C580.673 637.058 566.47 651.215 549.111 651.215Z" fill="#F1F2F7"/>
<path id="Fill 11" fill-rule="evenodd" clip-rule="evenodd" d="M513.579 345.374H331.492C326.292 345.374 322.036 341.324 322.036 336.377C322.036 331.423 326.292 327.374 331.492 327.374H513.579C518.779 327.374 523.036 331.423 523.036 336.377C523.036 341.324 518.779 345.374 513.579 345.374Z" fill="#E0E2EE"/>
<path id="Fill 13" fill-rule="evenodd" clip-rule="evenodd" d="M513.579 399.374H331.492C326.292 399.374 322.036 395.324 322.036 390.377C322.036 385.423 326.292 381.374 331.492 381.374H513.579C518.779 381.374 523.036 385.423 523.036 390.377C523.036 395.324 518.779 399.374 513.579 399.374Z" fill="#E0E2EE"/>
<path id="Fill 15" fill-rule="evenodd" clip-rule="evenodd" d="M513.579 453.374H331.492C326.292 453.374 322.036 449.324 322.036 444.377C322.036 439.43 326.292 435.374 331.492 435.374H513.579C518.779 435.374 523.036 439.43 523.036 444.377C523.036 449.324 518.779 453.374 513.579 453.374Z" fill="#E0E2EE"/>
<path id="Fill 17" fill-rule="evenodd" clip-rule="evenodd" d="M513.579 507.374H331.492C326.292 507.374 322.036 503.324 322.036 498.377C322.036 493.423 326.292 489.374 331.492 489.374H513.579C518.779 489.374 523.036 493.423 523.036 498.377C523.036 503.324 518.779 507.374 513.579 507.374Z" fill="#E0E2EE"/>
<path id="Fill 19" fill-rule="evenodd" clip-rule="evenodd" d="M426.539 561.374H331.533C326.31 561.374 322.036 557.324 322.036 552.377C322.036 547.423 326.31 543.374 331.533 543.374H426.539C431.761 543.374 436.036 547.423 436.036 552.377C436.036 557.324 431.761 561.374 426.539 561.374Z" fill="#E0E2EE"/>
</g>
<g id="search_2">
<path id="Fill 21" fill-rule="evenodd" clip-rule="evenodd" d="M618.301 491.584C581.89 527.988 525.523 532.095 484.601 503.988C479.371 500.332 474.393 496.225 469.751 491.584C467.362 489.202 465.109 486.744 462.987 484.156C458.742 478.989 455.024 473.477 451.978 467.783C446.61 458.165 442.961 447.959 440.968 437.409C434.54 404.326 444.152 368.716 469.751 343.129C495.412 317.465 531.028 307.916 564.117 314.282C574.66 316.335 584.876 319.984 594.495 325.289C600.199 328.404 605.634 332.121 610.811 336.365C613.391 338.48 615.85 340.739 618.232 343.129C622.881 347.77 627.05 352.739 630.638 357.976C658.757 398.883 654.642 455.249 618.301 491.584Z" fill="white" fill-opacity="0.1"/>
<path id="Fill 23" fill-rule="evenodd" clip-rule="evenodd" d="M608.112 484.413C570.232 522.3 508.845 522.293 470.958 484.413C433.121 446.576 433.121 385.181 471.008 347.302C508.845 309.464 570.232 309.464 608.07 347.302C645.95 385.181 645.95 446.576 608.112 484.413ZM627.552 327.84C578.93 279.218 500.14 279.218 451.518 327.84C402.903 376.455 402.861 455.295 451.476 503.917C495.728 548.155 565.087 552.144 613.871 515.822C618.636 512.27 623.225 508.287 627.602 503.917C631.972 499.54 635.955 494.951 639.5 490.186C675.822 441.395 671.797 372.085 627.552 327.84Z" fill="#E0E2EE"/>
<path id="Fill 25" fill-rule="evenodd" clip-rule="evenodd" d="M818.902 687.198L816.861 689.24C803.356 702.751 781.242 702.751 767.73 689.24L643.036 564.545L694.208 513.374L818.902 638.068C832.414 651.579 832.414 673.687 818.902 687.198Z" fill="#332ECF"/>
<path id="Fill 27" fill-rule="evenodd" clip-rule="evenodd" d="M642.188 486.374L679.036 523.221L652.876 549.374L616.036 512.526C620.898 508.901 625.573 504.837 630.047 500.378C634.506 495.918 638.57 491.236 642.188 486.374Z" fill="#E0E2EE"/>
<path id="Fill 29" fill-rule="evenodd" clip-rule="evenodd" d="M817.036 636.534L766.189 687.374L757.036 678.213L807.875 627.374L817.036 636.534Z" fill="#332ECF"/>
<path id="Fill 31" fill-rule="evenodd" clip-rule="evenodd" d="M697.036 515.134L644.797 567.374L637.036 559.613L689.274 507.374L697.036 515.134Z" fill="#332ECF"/>
<path id="Fill 33" fill-rule="evenodd" clip-rule="evenodd" d="M583.036 334.269L454.925 462.374C450.1 453.727 446.82 444.551 445.036 435.067L555.728 324.374C565.206 326.226 574.388 329.5 583.036 334.269Z" fill="white" fill-opacity="0.5"/>
<path id="Fill 35" fill-rule="evenodd" clip-rule="evenodd" d="M625.036 364.719L486.534 495.374C481.574 492.108 476.853 488.433 472.451 484.28C470.185 482.142 468.041 479.949 466.036 477.634L606.224 345.374C608.679 347.273 611.01 349.294 613.269 351.433C617.672 355.586 621.632 360.033 625.036 364.719Z" fill="white" fill-opacity="0.5"/>
</g>
</g>
</g>
</svg>
