<svg width="20" height="20" viewBox="0 0 20 20" fill="none" xmlns="http://www.w3.org/2000/svg">
<path d="M9.99998 11.6641C10.4583 11.6641 10.8508 11.5007 11.1775 11.1741C11.5041 10.8474 11.6672 10.4552 11.6666 9.9974C11.6666 9.53906 11.5033 9.14656 11.1766 8.8199C10.85 8.49323 10.4578 8.33017 9.99998 8.33073C9.54165 8.33073 9.14915 8.49406 8.82248 8.82073C8.49581 9.1474 8.33276 9.53962 8.33331 9.9974C8.33331 10.4557 8.49665 10.8482 8.82331 11.1749C9.14998 11.5016 9.5422 11.6646 9.99998 11.6641ZM9.99998 16.5807C10.5694 16.428 11.1355 16.1468 11.6983 15.7374C12.2611 15.328 12.7505 14.873 13.1666 14.3724L11.6666 12.8724C11.4166 13.0252 11.1491 13.1399 10.8641 13.2166C10.5791 13.2932 10.2911 13.3313 9.99998 13.3307C9.08331 13.3307 8.29859 13.0043 7.64581 12.3516C6.99304 11.6988 6.66665 10.9141 6.66665 9.9974C6.66665 9.08073 6.99304 8.29601 7.64581 7.64323C8.29859 6.99045 9.08331 6.66406 9.99998 6.66406C10.9166 6.66406 11.7014 6.99045 12.3541 7.64323C13.0069 8.29601 13.3333 9.08073 13.3333 9.9974C13.3333 10.303 13.295 10.5982 13.2183 10.8832C13.1416 11.1682 13.0272 11.4424 12.875 11.7057L14.125 12.9557C14.4028 12.3863 14.618 11.7891 14.7708 11.1641C14.9236 10.5391 15 9.90017 15 9.2474V5.3099L9.99998 3.4349L4.99998 5.3099V9.2474C4.99998 10.928 5.4722 12.4557 6.41665 13.8307C7.36109 15.2057 8.55553 16.1224 9.99998 16.5807ZM9.99998 18.2057C9.8472 18.2057 9.7047 18.1952 9.57248 18.1741C9.44026 18.153 9.31887 18.1218 9.20831 18.0807C7.48609 17.4418 6.07637 16.303 4.97915 14.6641C3.88192 13.0252 3.33331 11.2196 3.33331 9.2474V5.3099C3.33331 4.96267 3.43415 4.65017 3.63581 4.3724C3.83748 4.09462 4.09776 3.89323 4.41665 3.76823L9.41665 1.89323C9.61109 1.82378 9.80553 1.78906 9.99998 1.78906C10.1944 1.78906 10.3889 1.82378 10.5833 1.89323L15.5833 3.76823C15.9028 3.89323 16.1633 4.09462 16.365 4.3724C16.5666 4.65017 16.6672 4.96267 16.6666 5.3099V9.2474C16.6666 11.2196 16.118 13.0252 15.0208 14.6641C13.9236 16.303 12.5139 17.4418 10.7916 18.0807C10.6805 18.1224 10.5591 18.1538 10.4275 18.1749C10.2958 18.196 10.1533 18.2063 9.99998 18.2057Z" fill="white"/>
</svg>
