<svg width="20" height="20" viewBox="0 0 20 20" fill="none" xmlns="http://www.w3.org/2000/svg">
<path d="M9.99992 11.6641C10.4583 11.6641 10.8508 11.5007 11.1774 11.1741C11.5041 10.8474 11.6671 10.4552 11.6666 9.9974C11.6666 9.53906 11.5033 9.14656 11.1766 8.8199C10.8499 8.49323 10.4577 8.33017 9.99992 8.33073C9.54158 8.33073 9.14909 8.49406 8.82242 8.82073C8.49575 9.1474 8.3327 9.53962 8.33325 9.9974C8.33325 10.4557 8.49659 10.8482 8.82325 11.1749C9.14992 11.5016 9.54214 11.6646 9.99992 11.6641ZM9.99992 16.5807C10.5694 16.428 11.1355 16.1468 11.6983 15.7374C12.261 15.328 12.7505 14.873 13.1666 14.3724L11.6666 12.8724C11.4166 13.0252 11.1491 13.1399 10.8641 13.2166C10.5791 13.2932 10.291 13.3313 9.99992 13.3307C9.08325 13.3307 8.29853 13.0043 7.64575 12.3516C6.99297 11.6988 6.66659 10.9141 6.66659 9.9974C6.66659 9.08073 6.99297 8.29601 7.64575 7.64323C8.29853 6.99045 9.08325 6.66406 9.99992 6.66406C10.9166 6.66406 11.7013 6.99045 12.3541 7.64323C13.0069 8.29601 13.3333 9.08073 13.3333 9.9974C13.3333 10.303 13.2949 10.5982 13.2183 10.8832C13.1416 11.1682 13.0271 11.4424 12.8749 11.7057L14.1249 12.9557C14.4027 12.3863 14.618 11.7891 14.7708 11.1641C14.9235 10.5391 14.9999 9.90017 14.9999 9.2474V5.3099L9.99992 3.4349L4.99992 5.3099V9.2474C4.99992 10.928 5.47214 12.4557 6.41658 13.8307C7.36103 15.2057 8.55547 16.1224 9.99992 16.5807ZM9.99992 18.2057C9.84714 18.2057 9.70464 18.1952 9.57242 18.1741C9.4402 18.153 9.31881 18.1218 9.20825 18.0807C7.48603 17.4418 6.07631 16.303 4.97909 14.6641C3.88186 13.0252 3.33325 11.2196 3.33325 9.2474V5.3099C3.33325 4.96267 3.43409 4.65017 3.63575 4.3724C3.83742 4.09462 4.0977 3.89323 4.41659 3.76823L9.41659 1.89323C9.61103 1.82378 9.80547 1.78906 9.99992 1.78906C10.1944 1.78906 10.3888 1.82378 10.5833 1.89323L15.5833 3.76823C15.9027 3.89323 16.1633 4.09462 16.3649 4.3724C16.5666 4.65017 16.6671 4.96267 16.6666 5.3099V9.2474C16.6666 11.2196 16.118 13.0252 15.0208 14.6641C13.9235 16.303 12.5138 17.4418 10.7916 18.0807C10.6805 18.1224 10.5591 18.1538 10.4274 18.1749C10.2958 18.196 10.1533 18.2063 9.99992 18.2057Z" fill="#003E51"/>
<path d="M9.99992 11.6641C10.4583 11.6641 10.8508 11.5007 11.1774 11.1741C11.5041 10.8474 11.6671 10.4552 11.6666 9.9974C11.6666 9.53906 11.5033 9.14656 11.1766 8.8199C10.8499 8.49323 10.4577 8.33017 9.99992 8.33073C9.54158 8.33073 9.14909 8.49406 8.82242 8.82073C8.49575 9.1474 8.3327 9.53962 8.33325 9.9974C8.33325 10.4557 8.49659 10.8482 8.82325 11.1749C9.14992 11.5016 9.54214 11.6646 9.99992 11.6641ZM9.99992 16.5807C10.5694 16.428 11.1355 16.1468 11.6983 15.7374C12.261 15.328 12.7505 14.873 13.1666 14.3724L11.6666 12.8724C11.4166 13.0252 11.1491 13.1399 10.8641 13.2166C10.5791 13.2932 10.291 13.3313 9.99992 13.3307C9.08325 13.3307 8.29853 13.0043 7.64575 12.3516C6.99297 11.6988 6.66659 10.9141 6.66659 9.9974C6.66659 9.08073 6.99297 8.29601 7.64575 7.64323C8.29853 6.99045 9.08325 6.66406 9.99992 6.66406C10.9166 6.66406 11.7013 6.99045 12.3541 7.64323C13.0069 8.29601 13.3333 9.08073 13.3333 9.9974C13.3333 10.303 13.2949 10.5982 13.2183 10.8832C13.1416 11.1682 13.0271 11.4424 12.8749 11.7057L14.1249 12.9557C14.4027 12.3863 14.618 11.7891 14.7708 11.1641C14.9235 10.5391 14.9999 9.90017 14.9999 9.2474V5.3099L9.99992 3.4349L4.99992 5.3099V9.2474C4.99992 10.928 5.47214 12.4557 6.41658 13.8307C7.36103 15.2057 8.55547 16.1224 9.99992 16.5807ZM9.99992 18.2057C9.84714 18.2057 9.70464 18.1952 9.57242 18.1741C9.4402 18.153 9.31881 18.1218 9.20825 18.0807C7.48603 17.4418 6.07631 16.303 4.97909 14.6641C3.88186 13.0252 3.33325 11.2196 3.33325 9.2474V5.3099C3.33325 4.96267 3.43409 4.65017 3.63575 4.3724C3.83742 4.09462 4.0977 3.89323 4.41659 3.76823L9.41659 1.89323C9.61103 1.82378 9.80547 1.78906 9.99992 1.78906C10.1944 1.78906 10.3888 1.82378 10.5833 1.89323L15.5833 3.76823C15.9027 3.89323 16.1633 4.09462 16.3649 4.3724C16.5666 4.65017 16.6671 4.96267 16.6666 5.3099V9.2474C16.6666 11.2196 16.118 13.0252 15.0208 14.6641C13.9235 16.303 12.5138 17.4418 10.7916 18.0807C10.6805 18.1224 10.5591 18.1538 10.4274 18.1749C10.2958 18.196 10.1533 18.2063 9.99992 18.2057Z" fill="black" fill-opacity="0.2"/>
</svg>
