<svg width="37" height="36" viewBox="0 0 37 36" fill="none" xmlns="http://www.w3.org/2000/svg">
<rect width="36" height="36" transform="translate(0.5)" fill="#003E51"/>
<rect width="36" height="36" transform="translate(0.5)" fill="black" fill-opacity="0.2"/>
<path d="M22.3302 8.86428L27.619 14.1531C27.7818 14.3158 27.7818 14.5797 27.619 14.7424C27.5566 14.8048 27.476 14.8458 27.3888 14.8594L26.1603 15.0515L21.4463 10.3374L21.6231 9.09998C21.6557 8.87217 21.8667 8.71388 22.0945 8.74643C22.1838 8.75918 22.2664 8.80053 22.3302 8.86428ZM12.3291 24.7904C15.431 22.0142 18.9916 21.1838 22.8649 20.19L23.2369 16.8421L19.6558 13.2609L16.3078 13.6329C15.314 17.5062 14.4836 21.0667 11.7074 24.1687L10.5451 23.0064C12.9021 20.2566 13.786 17.2121 14.9645 12.1052L20.2678 11.5159L24.9819 16.23L24.3926 21.5332C19.2858 22.7118 16.2412 23.5957 13.4914 25.9527L12.3291 24.7904ZM16.7323 19.7655C16.0814 19.1147 16.0814 18.0593 16.7323 17.4085C17.3832 16.7576 18.4384 16.7576 19.0893 17.4085C19.7402 18.0593 19.7402 19.1147 19.0893 19.7655C18.4384 20.4164 17.3832 20.4164 16.7323 19.7655Z" fill="white"/>
</svg>
