<svg width="33" height="32" viewBox="0 0 33 32" fill="none" xmlns="http://www.w3.org/2000/svg">
<rect width="32" height="32" transform="translate(0.5)" fill="#003E51"/>
<rect width="32" height="32" transform="translate(0.5)" fill="black" fill-opacity="0.2"/>
<path opacity="0.8" d="M23.18 19.2135L21.0933 14.3335C20.7133 13.4402 20.1467 12.9335 19.5 12.9002C18.86 12.8668 18.24 13.3135 17.7667 14.1668L16.5 16.4402C16.2333 16.9202 15.8533 17.2068 15.44 17.2402C15.02 17.2802 14.6 17.0602 14.26 16.6268L14.1133 16.4402C13.64 15.8468 13.0533 15.5602 12.4533 15.6202C11.8533 15.6802 11.34 16.0935 11 16.7668L9.84667 19.0668C9.43333 19.9002 9.47333 20.8668 9.96 21.6535C10.4467 22.4402 11.2933 22.9135 12.22 22.9135H20.7267C21.62 22.9135 22.4533 22.4668 22.9467 21.7202C23.4533 20.9735 23.5333 20.0335 23.18 19.2135Z" fill="white"/>
<path d="M13.1467 13.5848C14.3911 13.5848 15.4 12.5759 15.4 11.3315C15.4 10.087 14.3911 9.07812 13.1467 9.07812C11.9022 9.07812 10.8933 10.087 10.8933 11.3315C10.8933 12.5759 11.9022 13.5848 13.1467 13.5848Z" fill="white"/>
</svg>
