<svg width="32" height="32" viewBox="0 0 32 32" fill="none" xmlns="http://www.w3.org/2000/svg">
<circle cx="16" cy="16" r="15.5" fill="#F0F1F6" stroke="#7986A4"/>
<path d="M10.2401 15.3633H23.0401C23.2098 15.3633 23.3726 15.4307 23.4926 15.5507C23.6127 15.6708 23.6801 15.8335 23.6801 16.0033C23.6801 16.173 23.6127 16.3358 23.4926 16.4558C23.3726 16.5759 23.2098 16.6433 23.0401 16.6433H10.2401C10.0704 16.6433 9.90757 16.5759 9.78755 16.4558C9.66753 16.3358 9.6001 16.173 9.6001 16.0033C9.6001 15.8335 9.66753 15.6708 9.78755 15.5507C9.90757 15.4307 10.0704 15.3633 10.2401 15.3633Z" fill="#003E51"/>
<path d="M10.2401 15.3633H23.0401C23.2098 15.3633 23.3726 15.4307 23.4926 15.5507C23.6127 15.6708 23.6801 15.8335 23.6801 16.0033C23.6801 16.173 23.6127 16.3358 23.4926 16.4558C23.3726 16.5759 23.2098 16.6433 23.0401 16.6433H10.2401C10.0704 16.6433 9.90757 16.5759 9.78755 16.4558C9.66753 16.3358 9.6001 16.173 9.6001 16.0033C9.6001 15.8335 9.66753 15.6708 9.78755 15.5507C9.90757 15.4307 10.0704 15.3633 10.2401 15.3633Z" fill="black" fill-opacity="0.2"/>
<path d="M10.5051 16.0024L15.8132 21.3092C15.9334 21.4294 16.0009 21.5924 16.0009 21.7624C16.0009 21.9323 15.9334 22.0953 15.8132 22.2155C15.6931 22.3357 15.5301 22.4032 15.3601 22.4032C15.1902 22.4032 15.0272 22.3357 14.907 22.2155L9.14701 16.4555C9.08741 16.396 9.04012 16.3254 9.00786 16.2477C8.97559 16.1699 8.95898 16.0865 8.95898 16.0024C8.95898 15.9182 8.97559 15.8348 9.00786 15.7571C9.04012 15.6793 9.08741 15.6087 9.14701 15.5492L14.907 9.78925C15.0272 9.66908 15.1902 9.60156 15.3601 9.60156C15.5301 9.60156 15.6931 9.66908 15.8132 9.78925C15.9334 9.90943 16.0009 10.0724 16.0009 10.2424C16.0009 10.4123 15.9334 10.5753 15.8132 10.6955L10.5051 16.0024Z" fill="#003E51"/>
<path d="M10.5051 16.0024L15.8132 21.3092C15.9334 21.4294 16.0009 21.5924 16.0009 21.7624C16.0009 21.9323 15.9334 22.0953 15.8132 22.2155C15.6931 22.3357 15.5301 22.4032 15.3601 22.4032C15.1902 22.4032 15.0272 22.3357 14.907 22.2155L9.14701 16.4555C9.08741 16.396 9.04012 16.3254 9.00786 16.2477C8.97559 16.1699 8.95898 16.0865 8.95898 16.0024C8.95898 15.9182 8.97559 15.8348 9.00786 15.7571C9.04012 15.6793 9.08741 15.6087 9.14701 15.5492L14.907 9.78925C15.0272 9.66908 15.1902 9.60156 15.3601 9.60156C15.5301 9.60156 15.6931 9.66908 15.8132 9.78925C15.9334 9.90943 16.0009 10.0724 16.0009 10.2424C16.0009 10.4123 15.9334 10.5753 15.8132 10.6955L10.5051 16.0024Z" fill="black" fill-opacity="0.2"/>
</svg>
