<svg width="13" height="12" viewBox="0 0 13 12" fill="none" xmlns="http://www.w3.org/2000/svg">
<g clip-path="url(#clip0_4623_26745)">
<path d="M12.1234 1.93604H8.30094C8.09305 1.93604 7.9243 2.10455 7.9243 2.31268V3.07346C7.9243 3.28135 8.09305 3.4501 8.30094 3.4501H9.91555L6.6118 6.75361L5.21117 5.35299C4.91539 5.05744 4.43609 5.05744 4.14031 5.35299L0.610391 8.88338C0.463203 9.03033 0.463203 9.26893 0.610391 9.41588L1.14828 9.954C1.29523 10.101 1.53383 10.101 1.68078 9.954L4.67586 6.95893L6.07625 8.35955C6.37201 8.6554 6.85137 8.65552 7.14711 8.35955L10.9859 4.52072V6.13533C10.9859 6.34322 11.1545 6.51197 11.3626 6.51197H12.1234C12.3315 6.51197 12.5 6.34322 12.5 6.13533V2.31268C12.5 2.10455 12.3315 1.93604 12.1234 1.93604Z" fill="#027A48"/>
</g>
<defs>
<clipPath id="clip0_4623_26745">
<rect width="12" height="12" fill="white" transform="translate(0.5)"/>
</clipPath>
</defs>
</svg>
