<svg width="138" height="152" viewBox="0 0 138 152" fill="none" xmlns="http://www.w3.org/2000/svg">
<path d="M69.19 151.011C107.127 151.011 137.88 132.191 137.88 108.975C137.88 85.7595 107.127 66.9395 69.19 66.9395C31.2536 66.9395 0.5 85.7595 0.5 108.975C0.5 132.191 31.2536 151.011 69.19 151.011Z" fill="#F5F5F5"/>
<path d="M112.287 114.434C112.518 114.273 112.701 114.054 112.817 113.798C112.933 113.542 112.978 113.259 112.946 112.98V50.0039C112.919 49.221 112.692 48.4581 112.287 47.7876L116.19 45.5349C116.595 46.2038 116.822 46.9649 116.85 47.7461V110.728C116.881 111.007 116.836 111.289 116.72 111.545C116.604 111.801 116.421 112.021 116.19 112.181L112.287 114.434Z" fill="#263238"/>
<path d="M112.287 47.7875C111.909 47.1022 111.363 46.525 110.699 46.1109L39.4281 4.96066C36.947 3.52809 32.9192 3.52809 30.4381 4.96066L28.881 5.85862C28.2446 6.18657 27.708 6.67946 27.3272 7.28574C26.9465 7.89202 26.7356 8.58944 26.7166 9.30511V77.4771C26.7363 76.7609 26.9474 76.0631 27.3281 75.4561C27.7087 74.8491 28.2449 74.3551 28.881 74.0254L30.4381 73.1275C32.9192 71.6949 36.947 71.6949 39.4281 73.1275L110.688 114.278C110.904 114.467 111.173 114.583 111.458 114.611C111.743 114.639 112.029 114.577 112.277 114.434C112.525 114.291 112.722 114.074 112.84 113.813C112.958 113.552 112.992 113.261 112.936 112.98V50.0038C112.912 49.2218 112.689 48.4589 112.287 47.7875Z" fill="#332ECF"/>
<path d="M26.9138 10.4731C26.348 8.75507 27.0487 6.91764 28.8862 5.85878L30.4433 4.96082C32.9244 3.52824 36.9522 3.52824 39.4333 4.96082L110.688 46.1111C111.352 46.5257 111.899 47.1028 112.277 47.7876L116.18 45.5349C115.8 44.8501 115.254 44.2718 114.592 43.8532L41.3745 1.59219C37.7048 -0.530728 32.1666 -0.530728 28.4917 1.59219L26.9345 2.48495C25.8667 3.07783 24.9486 3.90707 24.2505 4.90926C23.5524 5.91145 23.0928 7.06004 22.9067 8.26717C22.8558 8.61087 22.8298 8.95781 22.8289 9.30527C22.8552 11.4011 23.6902 13.4057 25.1594 14.9006L27.9778 12.2119C27.4973 11.7214 27.1337 11.1288 26.9138 10.4783" fill="#02004E"/>
<path d="M107.751 58.096V49.4642L36.1684 8.14784C35.4749 7.78452 34.7037 7.59473 33.9209 7.59473C33.138 7.59473 32.3668 7.78452 31.6734 8.14784L30.8948 8.59422C30.5771 8.75855 30.3093 9.00513 30.1194 9.30825C29.9295 9.61137 29.8244 9.95989 29.8152 10.3175V25.2505L107.751 58.096Z" fill="#332ECF"/>
<path opacity="0.2" d="M107.751 58.096V49.4642L36.1684 8.14784C35.4749 7.78452 34.7037 7.59473 33.9209 7.59473C33.138 7.59473 32.3668 7.78452 31.6734 8.14784L30.8948 8.59422C30.5771 8.75855 30.3093 9.00513 30.1194 9.30825C29.9295 9.61137 29.8244 9.95989 29.8152 10.3175V25.2505L107.751 58.096Z" fill="black"/>
<path d="M37.1391 6.46072C36.1457 5.93921 35.0404 5.66675 33.9184 5.66675C32.7964 5.66675 31.6912 5.93921 30.6977 6.46072L29.9243 6.9071C29.3912 7.20122 28.9322 7.61312 28.5823 8.11143C28.2324 8.60974 28.0009 9.18131 27.9052 9.78264C27.8807 9.95456 27.8686 10.128 27.8689 10.3017V12.6374L29.8153 14.6721V10.3432C29.8241 9.98551 29.9289 9.63675 30.1189 9.33354C30.3088 9.03033 30.5769 8.78385 30.895 8.61996L31.6735 8.17359C32.37 7.82022 33.14 7.63606 33.921 7.63606C34.702 7.63606 35.472 7.82022 36.1685 8.17359L107.751 49.49L109.702 48.3636L37.1391 6.46072Z" fill="#332ECF"/>
<path opacity="0.3" d="M37.1391 6.46072C36.1457 5.93921 35.0404 5.66675 33.9184 5.66675C32.7964 5.66675 31.6912 5.93921 30.6977 6.46072L29.9243 6.9071C29.3912 7.20122 28.9322 7.61312 28.5823 8.11143C28.2324 8.60974 28.0009 9.18131 27.9052 9.78264C27.8807 9.95456 27.8686 10.128 27.8689 10.3017V12.6374L29.8153 14.6721V10.3432C29.8241 9.98551 29.9289 9.63675 30.1189 9.33354C30.3088 9.03033 30.5769 8.78385 30.895 8.61996L31.6735 8.17359C32.37 7.82022 33.14 7.63606 33.921 7.63606C34.702 7.63606 35.472 7.82022 36.1685 8.17359L107.751 49.49L109.702 48.3636L37.1391 6.46072Z" fill="black"/>
<path d="M107.751 49.464L109.702 48.3376V59.082L107.751 57.9245V49.464Z" fill="#332ECF"/>
<path opacity="0.4" d="M107.751 49.464L109.702 48.3376V59.082L107.751 57.9245V49.464Z" fill="black"/>
<path d="M110.252 106.544V58.0543L38.8675 16.8002C38.1342 16.378 37.3028 16.1558 36.4565 16.1558C35.6103 16.1558 34.7789 16.378 34.0455 16.8002L32.2393 17.8383V64.096L108.021 107.842C108.248 107.969 108.505 108.034 108.765 108.032C109.026 108.03 109.281 107.96 109.506 107.829C109.732 107.698 109.919 107.511 110.05 107.285C110.181 107.06 110.25 106.804 110.252 106.544Z" fill="#263238"/>
<path d="M103.313 104.733L104.538 104.027C104.74 103.893 104.908 103.714 105.028 103.504C105.149 103.294 105.219 103.059 105.233 102.817V52.9886C105.22 52.7459 105.15 52.5097 105.029 52.2988C104.909 52.0878 104.74 51.9081 104.538 51.774L39.921 14.4543C39.7044 14.3457 39.4653 14.2891 39.2229 14.2891C38.9805 14.2891 38.7415 14.3457 38.5248 14.4543L37.2998 15.1602C37.0969 15.2933 36.9278 15.4719 36.8062 15.6819C36.6845 15.8919 36.6136 16.1274 36.5991 16.3696V66.1984C36.613 66.4402 36.6831 66.6754 36.8039 66.8854C36.9246 67.0953 37.0926 67.2742 37.2946 67.4078L101.916 104.733C102.133 104.841 102.372 104.898 102.614 104.898C102.857 104.898 103.096 104.841 103.313 104.733Z" fill="#332ECF"/>
<path opacity="0.7" d="M103.313 104.733L104.538 104.027C104.74 103.893 104.908 103.714 105.028 103.504C105.149 103.294 105.219 103.059 105.233 102.817V52.9886C105.22 52.7459 105.15 52.5097 105.029 52.2988C104.909 52.0878 104.74 51.9081 104.538 51.774L39.921 14.4543C39.7044 14.3457 39.4653 14.2891 39.2229 14.2891C38.9805 14.2891 38.7415 14.3457 38.5248 14.4543L37.2998 15.1602C37.0969 15.2933 36.9278 15.4719 36.8062 15.6819C36.6845 15.8919 36.6136 16.1274 36.5991 16.3696V66.1984C36.613 66.4402 36.6831 66.6754 36.8039 66.8854C36.9246 67.0953 37.0926 67.2742 37.2946 67.4078L101.916 104.733C102.133 104.841 102.372 104.898 102.614 104.898C102.857 104.898 103.096 104.841 103.313 104.733Z" fill="white"/>
<path d="M101.916 53.2791L37.2998 15.9646C36.9157 15.7414 36.5991 15.9231 36.5991 16.3694V66.1982C36.613 66.44 36.6831 66.6752 36.8039 66.8852C36.9246 67.0951 37.0926 67.274 37.2946 67.4076L101.916 104.732C102.3 104.956 102.612 104.774 102.612 104.333V54.504C102.6 54.2596 102.531 54.0212 102.411 53.8084C102.29 53.5956 102.12 53.4142 101.916 53.2791Z" fill="#332ECF"/>
<path d="M101.916 53.2791L37.2998 15.9646C36.9157 15.7414 36.5991 15.9231 36.5991 16.3694V66.1982C36.613 66.44 36.6831 66.6752 36.8039 66.8852C36.9246 67.0951 37.0926 67.274 37.2946 67.4076L101.916 104.732C102.3 104.956 102.612 104.774 102.612 104.333V54.504C102.6 54.2596 102.531 54.0212 102.411 53.8084C102.29 53.5956 102.12 53.4142 101.916 53.2791Z" fill="#332ECF"/>
<path opacity="0.5" d="M101.916 53.2791L37.2998 15.9646C36.9157 15.7414 36.5991 15.9231 36.5991 16.3694V66.1982C36.613 66.44 36.6831 66.6752 36.8039 66.8852C36.9246 67.0951 37.0926 67.274 37.2946 67.4076L101.916 104.732C102.3 104.956 102.612 104.774 102.612 104.333V54.504C102.6 54.2596 102.531 54.0212 102.411 53.8084C102.29 53.5956 102.12 53.4142 101.916 53.2791Z" fill="white"/>
<path d="M37.3 15.9646C42.6047 19.219 47.9458 22.3956 53.3024 25.5618L69.3929 34.967L85.5924 44.2165L93.726 48.7841L101.901 53.2791L93.918 48.4467L85.8987 43.6819L69.8081 34.2767L53.593 25.0272C48.1897 21.9752 42.7656 18.9336 37.3 15.9646Z" fill="white"/>
<path d="M102.384 53.7985L104.979 52.2881C105.109 52.4935 105.181 52.7303 105.187 52.9732V102.802C105.174 103.044 105.105 103.28 104.985 103.491C104.865 103.702 104.698 103.882 104.496 104.017L103.271 104.722C103.077 104.82 102.864 104.877 102.647 104.887C102.43 104.898 102.213 104.863 102.01 104.785C102.332 104.889 102.571 104.702 102.571 104.312V54.4837C102.571 54.2427 102.506 54.0061 102.384 53.7985Z" fill="#332ECF"/>
<path d="M102.612 60.1772L105.233 58.6667V71.6949L102.612 73.1898V60.1772Z" fill="#332ECF"/>
<path opacity="0.2" d="M102.612 60.1772L105.233 58.6667V71.6949L102.612 73.1898V60.1772Z" fill="black"/>
<path opacity="0.2" d="M36.5991 22.053L102.612 60.1772V73.1898L36.5991 35.0656V22.053Z" fill="black"/>
<path d="M98.5371 88.6578V97.1755C98.5371 97.8139 98.0907 98.0734 97.5353 97.7568L88.5921 92.6597C88.3005 92.4699 88.0578 92.214 87.8837 91.9128C87.7097 91.6115 87.6091 91.2735 87.5903 90.9261V82.4085C87.5903 81.77 88.0419 81.5105 88.5921 81.8323C91.0316 83.239 95.0958 85.5176 97.5353 86.9242C97.8269 87.114 98.0696 87.3699 98.2437 87.6711C98.4178 87.9724 98.5183 88.3104 98.5371 88.6578Z" fill="#02004E"/>
<mask id="mask0_3426_38512" style="mask-type:luminance" maskUnits="userSpaceOnUse" x="87" y="81" width="12" height="17">
<path d="M98.5371 88.6578V97.1755C98.5371 97.8139 98.0907 98.0734 97.5353 97.7568L88.5921 92.6597C88.3005 92.4699 88.0578 92.214 87.8837 91.9128C87.7097 91.6115 87.6091 91.2735 87.5903 90.9261V82.4085C87.5903 81.77 88.0419 81.5105 88.5921 81.8323C91.0316 83.239 95.0958 85.5176 97.5353 86.9242C97.8269 87.114 98.0696 87.3699 98.2437 87.6711C98.4178 87.9724 98.5183 88.3104 98.5371 88.6578Z" fill="white"/>
</mask>
<g mask="url(#mask0_3426_38512)">
<path d="M100.297 92.0317L100.525 91.6372L85.8309 83.2234L85.6025 83.6127L100.297 92.0317Z" fill="white"/>
<path d="M95.0131 88.5854H94.5615V92.9247H95.0131V88.5854Z" fill="white"/>
<path d="M91.5666 86.6855H91.115V91.0196H91.5666V86.6855Z" fill="white"/>
<path d="M100.297 96.3815L100.525 95.987L85.8309 87.5732L85.6025 87.9625L100.297 96.3815Z" fill="white"/>
</g>
<path d="M63.8386 45.5611C63.4654 44.84 63.2781 44.0372 63.2936 43.2254C63.2936 42.3482 63.4701 41.7772 63.8127 41.5177C64.1552 41.2582 64.6795 41.3256 65.3698 41.7097C65.6409 41.8662 65.8949 42.0506 66.1276 42.2599C66.3457 42.4516 66.5392 42.6695 66.7038 42.9087C66.739 42.9532 66.759 43.0078 66.7609 43.0645C66.7617 43.1031 66.7508 43.1411 66.7297 43.1735L66.5273 43.5264C66.5013 43.5627 66.4754 43.5783 66.4443 43.5627C66.4086 43.5325 66.3771 43.4976 66.3508 43.4589C66.1153 43.1469 65.8208 42.8841 65.484 42.6855C65.0895 42.4572 64.7833 42.4312 64.5653 42.6077C64.4335 42.7684 64.3363 42.9547 64.2801 43.1548C64.2238 43.3549 64.2096 43.5645 64.2383 43.7704C64.2227 44.3097 64.3404 44.8445 64.5809 45.3275C64.7881 45.7396 65.111 46.0823 65.51 46.3137C65.7758 46.4971 66.096 46.585 66.4183 46.5628C66.4506 46.5543 66.4846 46.5543 66.5169 46.5628C66.5545 46.598 66.5815 46.6429 66.5948 46.6926L66.818 47.3362C66.8229 47.3707 66.8229 47.4056 66.818 47.44C66.818 47.4712 66.818 47.4971 66.7453 47.5179C66.4494 47.6269 65.9875 47.5179 65.3646 47.1442C64.719 46.7682 64.1906 46.2201 63.8386 45.5611Z" fill="#02004E"/>
<path d="M67.3583 48.0941C67.3142 48.0055 67.2928 47.9074 67.296 47.8086V43.2773C67.296 43.1631 67.3167 43.0904 67.3583 43.0593C67.3946 43.0229 67.4621 43.0333 67.5555 43.0904L69.0036 43.9261C69.4614 44.1685 69.8413 44.5355 70.0994 44.9846C70.3575 45.4337 70.4832 45.9467 70.4622 46.4642C70.4797 46.7497 70.4205 47.0346 70.2909 47.2895C70.2381 47.3791 70.1618 47.4525 70.0704 47.5019C69.9789 47.5513 69.8757 47.5748 69.7718 47.5698L70.3739 49.6772C70.3781 49.7151 70.3781 49.7534 70.3739 49.7914C70.3739 49.8848 70.3324 49.9107 70.2546 49.864L69.6161 49.4955C69.5701 49.4709 69.5295 49.4374 69.4968 49.3969C69.4623 49.351 69.4392 49.2977 69.4293 49.2412L68.9102 47.2532L68.2251 46.8587V48.3588C68.2251 48.4678 68.2251 48.5404 68.168 48.5716C68.1109 48.6027 68.0642 48.5716 67.9707 48.5353L67.5399 48.2913C67.4618 48.2443 67.3987 48.1758 67.3583 48.0941ZM68.8687 46.3085C69.0867 46.4331 69.2476 46.4694 69.3566 46.4072C69.4656 46.3449 69.5227 46.1892 69.5227 45.9244C69.5299 45.6921 69.4781 45.4617 69.3722 45.2549C69.2675 45.069 69.1129 44.9162 68.9258 44.8137L68.2406 44.4192V45.9504L68.8687 46.3085Z" fill="#02004E"/>
<path d="M70.9912 50.1959C70.9513 50.1062 70.9318 50.0087 70.9342 49.9105V45.374C70.9253 45.2967 70.9457 45.219 70.9912 45.156C71.0328 45.1248 71.1002 45.156 71.1885 45.1871L73.5709 46.5626C73.6511 46.6034 73.7178 46.6665 73.763 46.7443C73.7975 46.8317 73.8135 46.9254 73.8097 47.0194V47.3048C73.8201 47.3824 73.8036 47.4611 73.763 47.528C73.7266 47.5592 73.6643 47.528 73.5709 47.4969L71.8788 46.5159V47.7149L73.0623 48.4C73.141 48.4409 73.206 48.5041 73.2491 48.5817C73.2882 48.6679 73.306 48.7623 73.301 48.8568V49.1267C73.301 49.2409 73.301 49.3187 73.2491 49.3499C73.1972 49.381 73.1505 49.3499 73.0623 49.3135L71.8788 48.6336V49.8482L73.5657 50.824C73.6472 50.8636 73.713 50.9294 73.7526 51.0108C73.7921 51.0988 73.8099 51.1949 73.8045 51.2911V51.5662C73.8045 51.6856 73.8045 51.7583 73.7526 51.7842C73.7007 51.8102 73.6592 51.7842 73.5657 51.7479L71.1885 50.3776C71.108 50.3354 71.0399 50.2727 70.9912 50.1959Z" fill="#02004E"/>
<path d="M74.2871 52.0958C74.243 52.0073 74.2216 51.9092 74.2248 51.8104V47.2739C74.2198 47.2352 74.2227 47.1959 74.2334 47.1584C74.2441 47.1209 74.2624 47.086 74.2871 47.0559C74.3234 47.0247 74.3909 47.0559 74.4843 47.087L75.6885 47.7825C76.3132 48.1319 76.8289 48.6475 77.1782 49.2722C77.543 49.9712 77.7218 50.7524 77.6973 51.5405C77.6973 52.4263 77.5243 52.9817 77.1782 53.2066C76.8356 53.4298 76.3373 53.3571 75.6937 52.9834L74.4895 52.2879C74.4031 52.2475 74.332 52.1801 74.2871 52.0958ZM75.7353 52.0958C76.0813 52.2931 76.3356 52.3138 76.4983 52.1581C76.7142 51.8153 76.8024 51.4073 76.7474 51.0058C76.7697 50.5142 76.6847 50.0236 76.4983 49.5681C76.3316 49.226 76.0657 48.942 75.7353 48.7532L75.1695 48.4314V51.774L75.7353 52.0958Z" fill="#02004E"/>
<path d="M78.2217 54.3641C78.1776 54.2774 78.1562 54.181 78.1594 54.0838V49.5473C78.1543 49.5086 78.1573 49.4694 78.168 49.4319C78.1787 49.3944 78.197 49.3595 78.2217 49.3293C78.258 49.2982 78.3255 49.3293 78.4189 49.3605L78.8497 49.6096C78.9346 49.6529 79.0037 49.7219 79.047 49.8068C79.0899 49.8956 79.1096 49.9938 79.1041 50.0923V54.6288C79.1041 54.743 79.1041 54.8157 79.047 54.8468C78.9899 54.8779 78.9432 54.8468 78.8497 54.8105L78.4189 54.5613C78.334 54.518 78.265 54.449 78.2217 54.3641Z" fill="#02004E"/>
<path d="M80.7028 55.8018C80.6605 55.7128 80.6409 55.6147 80.6457 55.5163V51.5767L79.701 51.0577C79.6243 51.014 79.56 50.9515 79.5142 50.876C79.475 50.788 79.4573 50.6919 79.4622 50.5957V50.3103C79.4622 50.1961 79.4622 50.1234 79.5142 50.0922C79.5661 50.0611 79.6128 50.0923 79.701 50.1234L82.535 51.7584C82.6167 51.7996 82.6837 51.8648 82.7271 51.9453C82.768 52.0347 82.7876 52.1324 82.7842 52.2307V52.511C82.7842 52.6252 82.7842 52.6979 82.7271 52.7238C82.67 52.7498 82.6285 52.7238 82.535 52.6927L81.6215 52.1269V56.0665C81.6215 56.1807 81.6215 56.2482 81.5592 56.2793C81.4969 56.3105 81.4554 56.2793 81.3568 56.243L80.9312 55.999C80.8372 55.9574 80.7577 55.8887 80.7028 55.8018Z" fill="#02004E"/>
<path d="M85.6389 58.1429C85.261 57.4252 85.0716 56.6233 85.0887 55.8124C85.0887 54.93 85.2652 54.359 85.6078 54.1047C85.9503 53.8503 86.4798 53.9075 87.1649 54.2915C87.4365 54.4472 87.6906 54.6317 87.9227 54.8417C88.1396 55.0346 88.333 55.2524 88.4989 55.4906C88.5359 55.534 88.5561 55.5892 88.556 55.6463C88.5586 55.6867 88.5477 55.7269 88.5248 55.7605L88.3224 56.1082C88.3224 56.1497 88.2705 56.1601 88.2445 56.1445C88.2052 56.1188 88.1717 56.0852 88.1459 56.0459C87.9132 55.7299 87.6182 55.4649 87.2791 55.2674C86.8846 55.0442 86.5784 55.0182 86.3604 55.1947C86.2283 55.3552 86.131 55.5415 86.0747 55.7417C86.0184 55.9418 86.0043 56.1515 86.0334 56.3574C86.0167 56.8968 86.1344 57.4319 86.376 57.9145C86.585 58.3283 86.9095 58.6727 87.3102 58.9059C87.574 59.0897 87.8927 59.1776 88.2134 59.155C88.2453 59.1435 88.2801 59.1435 88.312 59.155C88.3508 59.1892 88.378 59.2345 88.3899 59.2848L88.6183 59.9232C88.6239 59.9593 88.6239 59.9961 88.6183 60.0322C88.6183 60.0634 88.6183 60.0841 88.5508 60.1049C88.2497 60.2191 87.7878 60.1049 87.1649 59.7364C86.5156 59.3605 85.9864 58.8079 85.6389 58.1429Z" fill="#02004E"/>
<path d="M88.8414 60.4473C88.8363 60.4112 88.8363 60.3745 88.8414 60.3383L90.3259 56.4766C90.3386 56.4241 90.37 56.378 90.4141 56.3468C90.4391 56.3404 90.4652 56.3398 90.4905 56.3452C90.5157 56.3506 90.5393 56.3619 90.5594 56.378L90.9747 56.6219C91.0313 56.6507 91.0796 56.6936 91.1148 56.7465C91.1531 56.8202 91.1811 56.8988 91.1979 56.9801L92.6875 62.5547C92.6915 62.5978 92.6915 62.6413 92.6875 62.6844C92.6875 62.7727 92.6512 62.7986 92.5837 62.7571L91.8882 62.3574C91.8423 62.3326 91.8031 62.297 91.774 62.2536C91.7429 62.2022 91.7201 62.1461 91.7065 62.0875L91.4418 61.0494L90.0508 60.2449L89.7912 60.9975C89.7912 61.0494 89.7497 61.0806 89.7238 61.0858C89.6978 61.091 89.6615 61.0858 89.6044 61.0546L88.914 60.6549C88.8832 60.631 88.8599 60.5987 88.8471 60.5619C88.8342 60.525 88.8322 60.4853 88.8414 60.4473ZM91.255 60.0321L90.7774 58.1012L90.2999 59.4767L91.255 60.0321Z" fill="#02004E"/>
<path d="M93.2531 63.0478C93.2108 62.9588 93.1912 62.8607 93.196 62.7623V58.2258C93.1906 58.1875 93.1928 58.1485 93.2026 58.111C93.2124 58.0736 93.2296 58.0385 93.2531 58.0078C93.2947 57.9766 93.3621 58.0078 93.4504 58.0389L94.9037 58.8798C95.3615 59.1222 95.7414 59.4891 95.9994 59.9383C96.2575 60.3874 96.3833 60.9004 96.3622 61.4179C96.3812 61.7024 96.32 61.9865 96.1858 62.238C96.1336 62.3285 96.0577 62.403 95.9662 62.4534C95.8746 62.5037 95.7711 62.528 95.6667 62.5235L96.2688 64.6308C96.2735 64.6688 96.2735 64.7071 96.2688 64.745C96.2688 64.8385 96.2325 64.8592 96.1494 64.8125L95.5162 64.444C95.4691 64.4211 95.4268 64.3894 95.3916 64.3506C95.3602 64.3011 95.3374 64.2467 95.3241 64.1897L94.8051 62.2069L94.1251 61.8124V63.2865C94.1356 63.3639 94.1151 63.4422 94.0681 63.5045C94.0265 63.5357 93.9642 63.5045 93.8656 63.4682L93.4348 63.219C93.3612 63.1776 93.2989 63.1188 93.2531 63.0478ZM94.7636 61.2622C94.9816 61.3868 95.1477 61.4179 95.2567 61.3608C95.3657 61.3037 95.4176 61.1377 95.4176 60.8729C95.4264 60.6427 95.3764 60.4141 95.2722 60.2086C95.1644 60.022 95.0084 59.8679 94.8207 59.7622L94.1407 59.3729V60.8989L94.7636 61.2622Z" fill="#02004E"/>
<path d="M96.8919 65.1446C96.8482 65.0578 96.8268 64.9615 96.8296 64.8643V60.3278C96.8296 60.2136 96.8504 60.141 96.8919 60.1098C96.9334 60.0787 96.9957 60.1098 97.0891 60.141L98.2933 60.8365C98.9188 61.1824 99.4349 61.6967 99.783 62.321C100.147 63.0202 100.326 63.8012 100.302 64.5892C100.302 65.4768 100.131 66.0322 99.783 66.2606C99.4352 66.4889 98.9421 66.4111 98.2985 66.0374L97.0891 65.3626C97.0023 65.3122 96.9334 65.236 96.8919 65.1446ZM98.34 65.1446C98.6861 65.3418 98.9404 65.3626 99.103 65.2069C99.2691 65.0564 99.3522 64.6878 99.3522 64.0598C99.375 63.5681 99.29 63.0774 99.103 62.622C98.9377 62.279 98.6715 61.9947 98.34 61.8071L97.7795 61.4801V64.8228L98.34 65.1446Z" fill="#02004E"/>
<g opacity="0.15">
<path d="M63.8386 45.5611C63.4654 44.84 63.2781 44.0372 63.2936 43.2254C63.2936 42.3482 63.4701 41.7772 63.8127 41.5177C64.1552 41.2582 64.6795 41.3256 65.3698 41.7097C65.6409 41.8662 65.8949 42.0506 66.1276 42.2599C66.3457 42.4516 66.5392 42.6695 66.7038 42.9087C66.739 42.9532 66.759 43.0078 66.7609 43.0645C66.7617 43.1031 66.7508 43.1411 66.7297 43.1735L66.5273 43.5264C66.5013 43.5627 66.4754 43.5783 66.4443 43.5627C66.4086 43.5325 66.3771 43.4976 66.3508 43.4589C66.1153 43.1469 65.8208 42.8841 65.484 42.6855C65.0895 42.4572 64.7833 42.4312 64.5653 42.6077C64.4335 42.7684 64.3363 42.9547 64.2801 43.1548C64.2238 43.3549 64.2096 43.5645 64.2383 43.7704C64.2227 44.3097 64.3404 44.8445 64.5809 45.3275C64.7881 45.7396 65.111 46.0823 65.51 46.3137C65.7758 46.4971 66.096 46.585 66.4183 46.5628C66.4506 46.5543 66.4846 46.5543 66.5169 46.5628C66.5545 46.598 66.5815 46.6429 66.5948 46.6926L66.818 47.3362C66.8229 47.3707 66.8229 47.4056 66.818 47.44C66.818 47.4712 66.818 47.4971 66.7453 47.5179C66.4494 47.6269 65.9875 47.5179 65.3646 47.1442C64.719 46.7682 64.1906 46.2201 63.8386 45.5611Z" fill="#02004E"/>
<path d="M67.3578 48.0941C67.3137 48.0055 67.2923 47.9074 67.2955 47.8086V43.2773C67.2955 43.1631 67.3162 43.0904 67.3578 43.0593C67.3941 43.0229 67.4616 43.0333 67.555 43.0904L69.0032 43.9261C69.4609 44.1685 69.8408 44.5355 70.0989 44.9846C70.357 45.4337 70.4827 45.9467 70.4617 46.4642C70.4792 46.7497 70.4201 47.0346 70.2904 47.2895C70.2376 47.3791 70.1614 47.4525 70.0699 47.5019C69.9784 47.5513 69.8752 47.5748 69.7714 47.5698L70.3734 49.6772C70.3776 49.7151 70.3776 49.7534 70.3734 49.7914C70.3734 49.8848 70.3319 49.9107 70.2541 49.864L69.6156 49.4955C69.5696 49.4709 69.5291 49.4374 69.4963 49.3969C69.4618 49.351 69.4387 49.2977 69.4288 49.2412L68.9097 47.2532L68.2246 46.8587V48.3588C68.2246 48.4678 68.2246 48.5404 68.1675 48.5716C68.1104 48.6027 68.0637 48.5716 67.9703 48.5353L67.5394 48.2913C67.4613 48.2443 67.3982 48.1758 67.3578 48.0941ZM68.8682 46.3085C69.0862 46.4331 69.2471 46.4694 69.3561 46.4072C69.4651 46.3449 69.5222 46.1892 69.5222 45.9244C69.5294 45.6921 69.4776 45.4617 69.3717 45.2549C69.267 45.069 69.1124 44.9162 68.9253 44.8137L68.2402 44.4192V45.9504L68.8682 46.3085Z" fill="#02004E"/>
<path d="M70.9912 50.1959C70.9513 50.1062 70.9318 50.0087 70.9342 49.9105V45.374C70.9253 45.2967 70.9457 45.219 70.9912 45.156C71.0328 45.1248 71.1002 45.156 71.1885 45.1871L73.5709 46.5626C73.6511 46.6034 73.7178 46.6665 73.763 46.7443C73.7975 46.8317 73.8135 46.9254 73.8097 47.0194V47.3048C73.8201 47.3824 73.8036 47.4611 73.763 47.528C73.7266 47.5592 73.6643 47.528 73.5709 47.4969L71.8788 46.5159V47.7149L73.0623 48.4C73.141 48.4409 73.206 48.5041 73.2491 48.5817C73.2882 48.6679 73.306 48.7623 73.301 48.8568V49.1267C73.301 49.2409 73.301 49.3187 73.2491 49.3499C73.1972 49.381 73.1505 49.3499 73.0623 49.3135L71.8788 48.6336V49.8482L73.5657 50.824C73.6472 50.8636 73.713 50.9294 73.7526 51.0108C73.7921 51.0988 73.8099 51.1949 73.8045 51.2911V51.5662C73.8045 51.6856 73.8045 51.7583 73.7526 51.7842C73.7007 51.8102 73.6592 51.7842 73.5657 51.7479L71.1885 50.3776C71.108 50.3354 71.0399 50.2727 70.9912 50.1959Z" fill="#02004E"/>
<path d="M74.2871 52.0958C74.243 52.0073 74.2216 51.9092 74.2248 51.8104V47.2739C74.2198 47.2352 74.2227 47.1959 74.2334 47.1584C74.2441 47.1209 74.2624 47.086 74.2871 47.0559C74.3234 47.0247 74.3909 47.0559 74.4843 47.087L75.6885 47.7825C76.3132 48.1319 76.8289 48.6475 77.1782 49.2722C77.543 49.9712 77.7218 50.7524 77.6973 51.5405C77.6973 52.4263 77.5243 52.9817 77.1782 53.2066C76.8356 53.4298 76.3373 53.3571 75.6937 52.9834L74.4895 52.2879C74.4031 52.2475 74.332 52.1801 74.2871 52.0958ZM75.7353 52.0958C76.0813 52.2931 76.3356 52.3138 76.4983 52.1581C76.7142 51.8153 76.8024 51.4073 76.7474 51.0058C76.7697 50.5142 76.6847 50.0236 76.4983 49.5681C76.3316 49.226 76.0657 48.942 75.7353 48.7532L75.1695 48.4314V51.774L75.7353 52.0958Z" fill="#02004E"/>
<path d="M78.2214 54.3641C78.1774 54.2774 78.1559 54.181 78.1591 54.0838V49.5473C78.1541 49.5086 78.157 49.4694 78.1677 49.4319C78.1784 49.3944 78.1967 49.3595 78.2214 49.3293C78.2578 49.2982 78.3252 49.3293 78.4187 49.3605L78.8495 49.6096C78.9344 49.6529 79.0034 49.7219 79.0467 49.8068C79.0897 49.8956 79.1093 49.9938 79.1038 50.0923V54.6288C79.1038 54.743 79.1038 54.8157 79.0467 54.8468C78.9896 54.8779 78.9429 54.8468 78.8495 54.8105L78.4187 54.5613C78.3338 54.518 78.2647 54.449 78.2214 54.3641Z" fill="#02004E"/>
<path d="M80.7028 55.8018C80.6605 55.7128 80.6409 55.6147 80.6457 55.5163V51.5767L79.701 51.0577C79.6243 51.014 79.56 50.9515 79.5142 50.876C79.475 50.788 79.4573 50.6919 79.4622 50.5957V50.3103C79.4622 50.1961 79.4622 50.1234 79.5142 50.0922C79.5661 50.0611 79.6128 50.0923 79.701 50.1234L82.535 51.7584C82.6167 51.7996 82.6837 51.8648 82.7271 51.9453C82.768 52.0347 82.7876 52.1324 82.7842 52.2307V52.511C82.7842 52.6252 82.7842 52.6979 82.7271 52.7238C82.67 52.7498 82.6285 52.7238 82.535 52.6927L81.6215 52.1269V56.0665C81.6215 56.1807 81.6215 56.2482 81.5592 56.2793C81.4969 56.3105 81.4554 56.2793 81.3568 56.243L80.9312 55.999C80.8372 55.9574 80.7577 55.8887 80.7028 55.8018Z" fill="#02004E"/>
<path d="M85.6389 58.1429C85.261 57.4252 85.0716 56.6233 85.0887 55.8124C85.0887 54.93 85.2652 54.359 85.6078 54.1047C85.9503 53.8503 86.4798 53.9075 87.1649 54.2915C87.4365 54.4472 87.6906 54.6317 87.9227 54.8417C88.1396 55.0346 88.333 55.2524 88.4989 55.4906C88.5359 55.534 88.5561 55.5892 88.556 55.6463C88.5586 55.6867 88.5477 55.7269 88.5248 55.7605L88.3224 56.1082C88.3224 56.1497 88.2705 56.1601 88.2445 56.1445C88.2052 56.1188 88.1717 56.0852 88.1459 56.0459C87.9132 55.7299 87.6182 55.4649 87.2791 55.2674C86.8846 55.0442 86.5784 55.0182 86.3604 55.1947C86.2283 55.3552 86.131 55.5415 86.0747 55.7417C86.0184 55.9418 86.0043 56.1515 86.0334 56.3574C86.0167 56.8968 86.1344 57.4319 86.376 57.9145C86.585 58.3283 86.9095 58.6727 87.3102 58.9059C87.574 59.0897 87.8927 59.1776 88.2134 59.155C88.2453 59.1435 88.2801 59.1435 88.312 59.155C88.3508 59.1892 88.378 59.2345 88.3899 59.2848L88.6183 59.9232C88.6239 59.9593 88.6239 59.9961 88.6183 60.0322C88.6183 60.0634 88.6183 60.0841 88.5508 60.1049C88.2497 60.2191 87.7878 60.1049 87.1649 59.7364C86.5156 59.3605 85.9864 58.8079 85.6389 58.1429Z" fill="#02004E"/>
<path d="M88.8414 60.4473C88.8363 60.4112 88.8363 60.3745 88.8414 60.3383L90.3259 56.4766C90.3386 56.4241 90.37 56.378 90.4141 56.3468C90.4391 56.3404 90.4652 56.3398 90.4905 56.3452C90.5157 56.3506 90.5393 56.3619 90.5594 56.378L90.9747 56.6219C91.0313 56.6507 91.0796 56.6936 91.1148 56.7465C91.1531 56.8202 91.1811 56.8988 91.1979 56.9801L92.6875 62.5547C92.6915 62.5978 92.6915 62.6413 92.6875 62.6844C92.6875 62.7727 92.6512 62.7986 92.5837 62.7571L91.8882 62.3574C91.8423 62.3326 91.8031 62.297 91.774 62.2536C91.7429 62.2022 91.7201 62.1461 91.7065 62.0875L91.4418 61.0494L90.0508 60.2449L89.7912 60.9975C89.7912 61.0494 89.7497 61.0806 89.7238 61.0858C89.6978 61.091 89.6615 61.0858 89.6044 61.0546L88.914 60.6549C88.8832 60.631 88.8599 60.5987 88.8471 60.5619C88.8342 60.525 88.8322 60.4853 88.8414 60.4473ZM91.255 60.0321L90.7774 58.1012L90.2999 59.4767L91.255 60.0321Z" fill="#02004E"/>
<path d="M93.2531 63.0478C93.2108 62.9588 93.1912 62.8607 93.196 62.7623V58.2258C93.1906 58.1875 93.1928 58.1485 93.2026 58.111C93.2124 58.0736 93.2296 58.0385 93.2531 58.0078C93.2947 57.9766 93.3621 58.0078 93.4504 58.0389L94.9037 58.8798C95.3615 59.1222 95.7414 59.4891 95.9994 59.9383C96.2575 60.3874 96.3833 60.9004 96.3622 61.4179C96.3812 61.7024 96.32 61.9865 96.1858 62.238C96.1336 62.3285 96.0577 62.403 95.9662 62.4534C95.8746 62.5037 95.7711 62.528 95.6667 62.5235L96.2688 64.6308C96.2735 64.6688 96.2735 64.7071 96.2688 64.745C96.2688 64.8385 96.2325 64.8592 96.1494 64.8125L95.5162 64.444C95.4691 64.4211 95.4268 64.3894 95.3916 64.3506C95.3602 64.3011 95.3374 64.2467 95.3241 64.1897L94.8051 62.2069L94.1251 61.8124V63.2865C94.1356 63.3639 94.1151 63.4422 94.0681 63.5045C94.0265 63.5357 93.9642 63.5045 93.8656 63.4682L93.4348 63.219C93.3612 63.1776 93.2989 63.1188 93.2531 63.0478ZM94.7636 61.2622C94.9816 61.3868 95.1477 61.4179 95.2567 61.3608C95.3657 61.3037 95.4176 61.1377 95.4176 60.8729C95.4264 60.6427 95.3764 60.4141 95.2722 60.2086C95.1644 60.022 95.0084 59.8679 94.8207 59.7622L94.1407 59.3729V60.8989L94.7636 61.2622Z" fill="#02004E"/>
<path d="M96.8919 65.1446C96.8482 65.0578 96.8268 64.9615 96.8296 64.8643V60.3278C96.8296 60.2136 96.8504 60.141 96.8919 60.1098C96.9334 60.0787 96.9957 60.1098 97.0891 60.141L98.2933 60.8365C98.9188 61.1824 99.4349 61.6967 99.783 62.321C100.147 63.0202 100.326 63.8012 100.302 64.5892C100.302 65.4768 100.131 66.0322 99.783 66.2606C99.4352 66.4889 98.9421 66.4111 98.2985 66.0374L97.0891 65.3626C97.0023 65.3122 96.9334 65.236 96.8919 65.1446ZM98.34 65.1446C98.6861 65.3418 98.9404 65.3626 99.103 65.2069C99.2691 65.0564 99.3522 64.6878 99.3522 64.0598C99.375 63.5681 99.29 63.0774 99.103 62.622C98.9377 62.279 98.6715 61.9947 98.34 61.8071L97.7795 61.4801V64.8228L98.34 65.1446Z" fill="#02004E"/>
</g>
<path d="M46.2117 56.1186L48.7603 57.5927C48.9359 57.7055 49.0821 57.8584 49.1868 58.039C49.2915 58.2195 49.3517 58.4224 49.3624 58.6308V59.4094C49.3624 59.7935 49.0924 59.9285 48.7603 59.7572L46.2117 58.2831C46.0367 58.1697 45.8909 58.0166 45.7863 57.8362C45.6816 57.6558 45.6211 57.4532 45.6096 57.245V56.4664C45.6096 56.0823 45.8795 55.9266 46.2117 56.1186Z" fill="#332ECF"/>
<path d="M40.5855 52.8691L43.134 54.3432C43.3091 54.4566 43.4549 54.6097 43.5595 54.7901C43.6641 54.9705 43.7247 55.1731 43.7361 55.3813V56.1599C43.7361 56.544 43.4662 56.6789 43.134 56.5077L40.5855 55.0336C40.4105 54.9202 40.2647 54.7671 40.16 54.5867C40.0554 54.4063 39.9949 54.2037 39.9834 53.9955V53.2169C39.9834 52.8328 40.2533 52.6771 40.5855 52.8691Z" fill="#332ECF"/>
<path d="M72.7978 76.8803L41.032 58.5423C40.4818 58.2205 40.0354 58.48 40.0354 59.1185V60.0579C40.054 60.4048 40.154 60.7424 40.3271 61.0435C40.5002 61.3447 40.7416 61.6009 41.032 61.7916L72.7978 80.1244C73.3532 80.4462 73.7996 80.1867 73.7996 79.5482V78.6088C73.7816 78.2619 73.6814 77.9242 73.5072 77.6237C73.3331 77.3232 73.0899 77.0684 72.7978 76.8803Z" fill="#332ECF"/>
<path d="M46.2117 56.1186L48.7603 57.5927C48.9359 57.7055 49.0821 57.8584 49.1868 58.039C49.2915 58.2195 49.3517 58.4224 49.3624 58.6308V59.4094C49.3624 59.7935 49.0924 59.9285 48.7603 59.7572L46.2117 58.2831C46.0367 58.1697 45.8909 58.0166 45.7863 57.8362C45.6816 57.6558 45.6211 57.4532 45.6096 57.245V56.4664C45.6096 56.0823 45.8795 55.9266 46.2117 56.1186Z" fill="#02004E"/>
<path d="M40.5855 52.8691L43.134 54.3432C43.3091 54.4566 43.4549 54.6097 43.5595 54.7901C43.6641 54.9705 43.7247 55.1731 43.7361 55.3813V56.1599C43.7361 56.544 43.4662 56.6789 43.134 56.5077L40.5855 55.0336C40.4105 54.9202 40.2647 54.7671 40.16 54.5867C40.0554 54.4063 39.9949 54.2037 39.9834 53.9955V53.2169C39.9834 52.8328 40.2533 52.6771 40.5855 52.8691Z" fill="#02004E"/>
<path d="M72.7978 76.8803L41.032 58.5423C40.4818 58.2205 40.0354 58.48 40.0354 59.1185V60.0579C40.054 60.4048 40.154 60.7424 40.3271 61.0435C40.5002 61.3447 40.7416 61.6009 41.032 61.7916L72.7978 80.1244C73.3532 80.4462 73.7996 80.1867 73.7996 79.5482V78.6088C73.7816 78.2619 73.6814 77.9242 73.5072 77.6237C73.3331 77.3232 73.0899 77.0684 72.7978 76.8803Z" fill="#02004E"/>
<path d="M40.6166 44.0246L40.736 44.092C40.9341 44.2343 41.0961 44.4212 41.2088 44.6376C41.3215 44.854 41.3818 45.0938 41.3848 45.3378V47.8396C41.3848 48.3171 41.0941 48.5455 40.7256 48.3586L40.627 48.3067C40.4266 48.1706 40.2621 47.9882 40.1474 47.775C40.0326 47.5617 39.971 47.3239 39.9678 47.0818V44.528C39.9833 44.0401 40.274 43.8169 40.6166 44.0246Z" fill="#FAFAFA"/>
<path d="M43.9904 45.9762L44.1046 46.0437C44.3031 46.1849 44.4656 46.3707 44.5792 46.5861C44.6928 46.8016 44.7542 47.0407 44.7586 47.2842V49.7912C44.7586 50.2739 44.4628 50.5023 44.0994 50.3102L43.9956 50.2532C43.795 50.1174 43.6302 49.935 43.5155 49.7217C43.4007 49.5084 43.3392 49.2704 43.3364 49.0282V46.4693C43.3364 45.9866 43.6271 45.7686 43.9904 45.9762Z" fill="#FAFAFA"/>
<path d="M47.3642 47.9225L47.4836 47.99C47.6818 48.1323 47.8437 48.3192 47.9564 48.5355C48.0691 48.7519 48.1294 48.9918 48.1324 49.2357V51.7375C48.1324 52.2151 47.8365 52.4434 47.4732 52.2566L47.3746 52.2047C47.1737 52.0692 47.0087 51.887 46.8938 51.6736C46.779 51.4602 46.7178 51.222 46.7154 50.9797V48.426C46.6946 47.9381 46.9853 47.7149 47.3642 47.9225Z" fill="#FAFAFA"/>
<path d="M50.6967 49.8745L50.816 49.9419C51.0135 50.0837 51.1751 50.2698 51.2877 50.4852C51.4004 50.7006 51.461 50.9394 51.4648 51.1825V53.6843C51.4648 54.167 51.169 54.3954 50.8057 54.2033L50.707 54.1462C50.5067 54.0101 50.3422 53.8277 50.2274 53.6145C50.1127 53.4012 50.0511 53.1634 50.0479 52.9213V50.3624C50.0479 49.8848 50.3385 49.6668 50.6967 49.8745Z" fill="#FAFAFA"/>
<path d="M56.323 53.0822L56.4423 53.1497C56.6405 53.292 56.8025 53.4788 56.9152 53.6952C57.0279 53.9116 57.0881 54.1514 57.0911 54.3954V56.8972C57.0911 57.3747 56.7953 57.6031 56.4319 57.4163L56.3333 57.3643C56.133 57.2283 55.9685 57.0458 55.8537 56.8326C55.739 56.6193 55.6774 56.3815 55.6741 56.1394V53.5857C55.6689 53.0978 55.9648 52.8746 56.323 53.0822Z" fill="#FAFAFA"/>
<path d="M59.676 55.0337L59.7954 55.1012C59.9928 55.243 60.1544 55.429 60.267 55.6445C60.3797 55.8599 60.4404 56.0987 60.4442 56.3417V58.8436C60.4442 59.3211 60.1483 59.5495 59.785 59.3626L59.6812 59.3107C59.4809 59.1746 59.3163 58.9922 59.2016 58.779C59.0868 58.5657 59.0252 58.3279 59.022 58.0858V55.5009C59.0272 55.0441 59.3023 54.8261 59.676 55.0337Z" fill="#FAFAFA"/>
<path d="M63.0344 56.9801L63.1486 57.0475C63.3477 57.1893 63.5107 57.3759 63.6243 57.5923C63.7379 57.8087 63.799 58.0489 63.8026 58.2933V60.7951C63.8026 61.2726 63.5067 61.501 63.1434 61.3141L63.0396 61.257C62.8397 61.1217 62.6753 60.9402 62.5606 60.7279C62.4458 60.5155 62.384 60.2786 62.3804 60.0373V57.4731C62.3804 56.9956 62.671 56.7724 63.0344 56.9801Z" fill="#FAFAFA"/>
<path d="M66.3873 58.932L66.5067 58.9994C66.7042 59.1412 66.8657 59.3273 66.9784 59.5427C67.0911 59.7581 67.1517 59.9969 67.1555 60.24V62.7677C67.1555 63.2453 66.8597 63.4737 66.4963 63.2868L66.3977 63.2349C66.1974 63.0988 66.0329 62.9164 65.9181 62.7031C65.8034 62.4899 65.7418 62.2521 65.7385 62.0099V59.4562C65.7385 58.9423 66.05 58.7243 66.3873 58.932Z" fill="#FAFAFA"/>
<path d="M72.0136 62.1396L72.1329 62.2071C72.3311 62.3494 72.4931 62.5362 72.6058 62.7526C72.7185 62.969 72.7788 63.2088 72.7818 63.4528V65.9546C72.7818 66.4321 72.4859 66.6605 72.1226 66.4736L72.0239 66.4165C71.824 66.2813 71.6597 66.0997 71.545 65.8874C71.4302 65.675 71.3684 65.4381 71.3647 65.1968V62.6431C71.3647 62.15 71.6554 61.932 72.0136 62.1396Z" fill="#FAFAFA"/>
<path d="M75.3929 64.0911L75.5122 64.1586C75.7097 64.3003 75.8712 64.4864 75.9839 64.7018C76.0966 64.9172 76.1572 65.156 76.1611 65.3991V67.9009C76.1611 68.3784 75.8704 68.6068 75.5019 68.42L75.4032 68.3681C75.2029 68.232 75.0384 68.0495 74.9237 67.8363C74.8089 67.623 74.7473 67.3852 74.744 67.1431V64.5894C74.7181 64.1015 75.0088 63.8835 75.3929 64.0911Z" fill="#FAFAFA"/>
<path d="M78.7251 66.0376L78.8392 66.1051C79.0384 66.2468 79.2013 66.4335 79.315 66.6499C79.4286 66.8663 79.4896 67.1064 79.4932 67.3508V69.8475C79.4932 70.3302 79.1974 70.5585 78.834 70.3665L78.7302 70.3094C78.5296 70.1736 78.3649 69.9913 78.2501 69.7779C78.1353 69.5646 78.0738 69.3267 78.071 69.0844V66.5359C78.071 66.048 78.3617 65.83 78.7251 66.0376Z" fill="#FAFAFA"/>
<path d="M82.0781 67.9837L82.1975 68.0564C82.3949 68.1982 82.5565 68.3842 82.6691 68.5996C82.7818 68.815 82.8425 69.0538 82.8463 69.2969V71.7987C82.8463 72.2763 82.5504 72.5046 82.1871 72.3178L82.0885 72.2659C81.8875 72.1304 81.7225 71.9482 81.6077 71.7348C81.4929 71.5214 81.4316 71.2833 81.4293 71.0409V68.4768C81.4241 67.9993 81.7199 67.7761 82.0781 67.9837Z" fill="#FAFAFA"/>
<path d="M87.7047 71.1968L87.8241 71.2643C88.0223 71.4066 88.1842 71.5934 88.2969 71.8098C88.4096 72.0262 88.4699 72.266 88.4729 72.51V75.0066C88.4729 75.4893 88.1771 75.7177 87.8137 75.5257L87.7151 75.4686C87.5135 75.3338 87.3481 75.1516 87.2331 74.9381C87.1182 74.7246 87.0574 74.4861 87.0559 74.2436V71.6951C87.0559 71.2072 87.331 70.9892 87.7047 71.1968Z" fill="#FAFAFA"/>
<path d="M91.058 73.1485L91.1774 73.2211C91.3749 73.3629 91.5364 73.549 91.6491 73.7644C91.7617 73.9798 91.8224 74.2186 91.8262 74.4617V76.9635C91.8262 77.441 91.5303 77.6694 91.167 77.4825L91.0684 77.4306C90.8681 77.2945 90.7035 77.1121 90.5888 76.8988C90.474 76.6856 90.4124 76.4478 90.4092 76.2057V73.6519C90.4092 73.1485 90.6998 72.9356 91.058 73.1485Z" fill="#FAFAFA"/>
<path d="M94.4108 75.0948L94.5301 75.1623C94.7276 75.3041 94.8892 75.4901 95.0018 75.7055C95.1145 75.921 95.1752 76.1598 95.179 76.4028V78.9047C95.179 79.3874 94.8883 79.6158 94.5198 79.4237L94.4212 79.3666C94.2205 79.2308 94.0558 79.0485 93.941 78.8352C93.8262 78.6218 93.7648 78.3839 93.762 78.1416V75.5879C93.762 75.1052 94.0786 74.8872 94.4108 75.0948Z" fill="#FAFAFA"/>
<path d="M97.769 77.0417L97.8832 77.1091C98.0823 77.2509 98.2453 77.4375 98.3589 77.6539C98.4725 77.8703 98.5336 78.1105 98.5372 78.3549V80.8567C98.5372 81.3342 98.2413 81.5626 97.878 81.3757L97.7742 81.3238C97.5739 81.1877 97.4093 81.0053 97.2946 80.792C97.1798 80.5788 97.1182 80.341 97.115 80.0989V77.5451C97.115 77.0572 97.4056 76.834 97.769 77.0417Z" fill="#FAFAFA"/>
<path opacity="0.35" d="M106.759 106.975C106.759 108.402 105.747 108.984 104.512 108.273L43.6479 73.1485C42.9944 72.7211 42.4506 72.1461 42.0602 71.4699C41.6698 70.7937 41.4438 70.0352 41.4004 69.2556V35.3149L106.759 73.0499V106.975Z" fill="white"/>
<path d="M25.1594 83.0624L76.0574 136.364C76.5765 136.919 77.0955 137.085 77.3966 136.883C77.6976 136.68 77.8481 136.296 77.8481 135.637V72.697C77.8141 71.904 77.6383 71.1235 77.3291 70.3924C77.0365 69.5957 76.5963 68.8614 76.0315 68.228L25.1594 14.8956C23.6914 13.402 22.8566 11.3995 22.8289 9.30542V77.4671C22.8552 79.5629 23.6902 81.5675 25.1594 83.0624Z" fill="#332ECF"/>
<path d="M26.4624 22.5619C26.3936 22.5619 26.3276 22.5346 26.2789 22.4859C26.2302 22.4373 26.2029 22.3713 26.2029 22.3024V21.5238C26.2036 21.472 26.2197 21.4216 26.2493 21.379C26.2789 21.3365 26.3206 21.3037 26.369 21.2851C26.416 21.2654 26.4679 21.2603 26.5179 21.2705C26.5679 21.2807 26.6137 21.3057 26.6493 21.3422L27.1683 21.9079C27.1926 21.9321 27.2119 21.9608 27.2251 21.9924C27.2383 22.024 27.2451 22.0579 27.2451 22.0922C27.2451 22.1265 27.2383 22.1604 27.2251 22.192C27.2119 22.2236 27.1926 22.2523 27.1683 22.2765C27.1446 22.3006 27.1164 22.3198 27.0852 22.333C27.054 22.3461 27.0205 22.3528 26.9867 22.3528C26.9528 22.3528 26.9193 22.3461 26.8881 22.333C26.8569 22.3198 26.8287 22.3006 26.805 22.2765L26.7116 22.183V22.2817C26.7144 22.3166 26.7101 22.3517 26.699 22.385C26.6879 22.4182 26.6701 22.4488 26.6468 22.475C26.6236 22.5012 26.5952 22.5224 26.5635 22.5374C26.5318 22.5523 26.4974 22.5607 26.4624 22.5619Z" fill="#02004E"/>
<path d="M74.2149 126.091C74.1464 126.09 74.0812 126.062 74.0328 126.014C73.9844 125.965 73.9567 125.9 73.9553 125.832V124.301C73.9553 124.232 73.9827 124.166 74.0313 124.117C74.08 124.068 74.146 124.041 74.2149 124.041C74.2837 124.041 74.3497 124.068 74.3984 124.117C74.447 124.166 74.4744 124.232 74.4744 124.301V125.832C74.4744 125.901 74.447 125.967 74.3984 126.015C74.3497 126.064 74.2837 126.091 74.2149 126.091ZM74.2149 122.006C74.146 122.006 74.08 121.979 74.0313 121.93C73.9827 121.882 73.9553 121.816 73.9553 121.747V120.226C73.9553 120.157 73.9827 120.091 74.0313 120.043C74.08 119.994 74.146 119.967 74.2149 119.967C74.2837 119.967 74.3497 119.994 74.3984 120.043C74.447 120.091 74.4744 120.157 74.4744 120.226V121.757C74.4744 121.826 74.447 121.892 74.3984 121.941C74.3497 121.989 74.2837 122.017 74.2149 122.017V122.006ZM74.2149 117.922C74.146 117.922 74.08 117.894 74.0313 117.845C73.9827 117.797 73.9553 117.731 73.9553 117.662V116.131C73.9553 116.062 73.9827 115.996 74.0313 115.947C74.08 115.899 74.146 115.871 74.2149 115.871C74.2837 115.871 74.3497 115.899 74.3984 115.947C74.447 115.996 74.4744 116.062 74.4744 116.131V117.662C74.4758 117.697 74.4701 117.732 74.4577 117.764C74.4453 117.797 74.4264 117.827 74.4021 117.852C74.3779 117.877 74.3488 117.897 74.3166 117.911C74.2844 117.925 74.2498 117.932 74.2149 117.932V117.922ZM74.2149 113.837C74.146 113.837 74.08 113.809 74.0313 113.761C73.9827 113.712 73.9553 113.646 73.9553 113.577V112.02C73.9553 111.951 73.9827 111.885 74.0313 111.836C74.08 111.788 74.146 111.76 74.2149 111.76C74.2837 111.76 74.3497 111.788 74.3984 111.836C74.447 111.885 74.4744 111.951 74.4744 112.02V113.577C74.4758 113.612 74.4701 113.647 74.4577 113.68C74.4453 113.712 74.4264 113.742 74.4021 113.767C74.3779 113.793 74.3488 113.813 74.3166 113.826C74.2844 113.84 74.2498 113.847 74.2149 113.847V113.837ZM74.2149 109.752C74.146 109.752 74.08 109.724 74.0313 109.676C73.9827 109.627 73.9553 109.561 73.9553 109.492V107.935C73.9553 107.866 73.9827 107.8 74.0313 107.751C74.08 107.703 74.146 107.675 74.2149 107.675C74.2837 107.675 74.3497 107.703 74.3984 107.751C74.447 107.8 74.4744 107.866 74.4744 107.935V109.492C74.4758 109.527 74.4701 109.562 74.4577 109.595C74.4453 109.627 74.4264 109.657 74.4021 109.682C74.3779 109.708 74.3488 109.728 74.3166 109.741C74.2844 109.755 74.2498 109.762 74.2149 109.762V109.752ZM74.2149 105.667C74.146 105.667 74.08 105.639 74.0313 105.591C73.9827 105.542 73.9553 105.476 73.9553 105.407V103.876C73.9567 103.808 73.9844 103.742 74.0328 103.694C74.0812 103.646 74.1464 103.618 74.2149 103.616C74.2837 103.616 74.3497 103.644 74.3984 103.692C74.447 103.741 74.4744 103.807 74.4744 103.876V105.407C74.4758 105.442 74.4701 105.477 74.4577 105.51C74.4453 105.542 74.4264 105.572 74.4021 105.597C74.3779 105.623 74.3488 105.643 74.3166 105.656C74.2844 105.67 74.2498 105.677 74.2149 105.677V105.667ZM74.2149 101.582C74.146 101.582 74.08 101.554 74.0313 101.506C73.9827 101.457 73.9553 101.391 73.9553 101.322V99.7911C73.9567 99.7227 73.9844 99.6574 74.0328 99.609C74.0812 99.5607 74.1464 99.5329 74.2149 99.5315C74.2837 99.5315 74.3497 99.5589 74.3984 99.6076C74.447 99.6562 74.4744 99.7222 74.4744 99.7911V101.322C74.4758 101.357 74.4701 101.392 74.4577 101.425C74.4453 101.457 74.4264 101.487 74.4021 101.513C74.3779 101.538 74.3488 101.558 74.3166 101.571C74.2844 101.585 74.2498 101.592 74.2149 101.592V101.582ZM74.2149 97.5021C74.1464 97.5007 74.0812 97.473 74.0328 97.4246C73.9844 97.3762 73.9567 97.311 73.9553 97.2426V95.6854C73.9567 95.617 73.9844 95.5517 74.0328 95.5034C74.0812 95.455 74.1464 95.4272 74.2149 95.4259C74.2837 95.4259 74.3497 95.4532 74.3984 95.5019C74.447 95.5506 74.4744 95.6166 74.4744 95.6854V97.2426C74.4758 97.2775 74.4701 97.3124 74.4577 97.3451C74.4453 97.3778 74.4264 97.4076 74.4021 97.4328C74.3779 97.458 74.3488 97.4781 74.3166 97.4918C74.2844 97.5054 74.2498 97.5125 74.2149 97.5125V97.5021ZM74.2149 93.4171C74.1464 93.4158 74.0812 93.3881 74.0328 93.3397C73.9844 93.2913 73.9567 93.226 73.9553 93.1576V91.6264C73.9553 91.5576 73.9827 91.4916 74.0313 91.4429C74.08 91.3943 74.146 91.3669 74.2149 91.3669C74.2837 91.3669 74.3497 91.3943 74.3984 91.4429C74.447 91.4916 74.4744 91.5576 74.4744 91.6264V93.1576C74.4758 93.1926 74.4701 93.2274 74.4577 93.2601C74.4453 93.2928 74.4264 93.3227 74.4021 93.3479C74.3779 93.3731 74.3488 93.3931 74.3166 93.4068C74.2844 93.4205 74.2498 93.4276 74.2149 93.4275V93.4171ZM74.2149 89.3322C74.1464 89.3309 74.0812 89.3031 74.0328 89.2548C73.9844 89.2064 73.9567 89.1411 73.9553 89.0727V87.5415C73.9553 87.4727 73.9827 87.4067 74.0313 87.358C74.08 87.3093 74.146 87.282 74.2149 87.282C74.2837 87.282 74.3497 87.3093 74.3984 87.358C74.447 87.4067 74.4744 87.4727 74.4744 87.5415V89.0727C74.4758 89.1076 74.4701 89.1425 74.4577 89.1752C74.4453 89.2079 74.4264 89.2377 74.4021 89.263C74.3779 89.2882 74.3488 89.3082 74.3166 89.3219C74.2844 89.3356 74.2498 89.3426 74.2149 89.3426V89.3322ZM74.2149 85.2473C74.1464 85.246 74.0812 85.2182 74.0328 85.1698C73.9844 85.1214 73.9567 85.0562 73.9553 84.9878V83.4566C73.9553 83.3877 73.9827 83.3217 74.0313 83.2731C74.08 83.2244 74.146 83.1971 74.2149 83.1971C74.2837 83.1971 74.3497 83.2244 74.3984 83.2731C74.447 83.3217 74.4744 83.3877 74.4744 83.4566V84.9878C74.4758 85.0227 74.4701 85.0576 74.4577 85.0903C74.4453 85.123 74.4264 85.1528 74.4021 85.178C74.3779 85.2032 74.3488 85.2233 74.3166 85.237C74.2844 85.2507 74.2498 85.2577 74.2149 85.2577V85.2473ZM74.2149 81.1624C74.146 81.1624 74.08 81.135 74.0313 81.0864C73.9827 81.0377 73.9553 80.9717 73.9553 80.9029V79.3769C73.9553 79.308 73.9827 79.242 74.0313 79.1933C74.08 79.1447 74.146 79.1173 74.2149 79.1173C74.2837 79.1173 74.3497 79.1447 74.3984 79.1933C74.447 79.242 74.4744 79.308 74.4744 79.3769V80.934C74.4692 80.9992 74.4395 81.06 74.3914 81.1042C74.3433 81.1485 74.2802 81.173 74.2149 81.1728V81.1624ZM74.2149 77.0775C74.146 77.0775 74.08 77.0501 74.0313 77.0014C73.9827 76.9528 73.9553 76.8868 73.9553 76.8179V75.2867C73.9553 75.2179 73.9827 75.1519 74.0313 75.1032C74.08 75.0546 74.146 75.0272 74.2149 75.0272C74.2837 75.0272 74.3497 75.0546 74.3984 75.1032C74.447 75.1519 74.4744 75.2179 74.4744 75.2867V76.8179C74.4758 76.8529 74.4701 76.8877 74.4577 76.9204C74.4453 76.9531 74.4264 76.983 74.4021 77.0082C74.3779 77.0334 74.3488 77.0535 74.3166 77.0671C74.2844 77.0808 74.2498 77.0879 74.2149 77.0878V77.0775ZM74.2149 72.9718C74.182 72.9739 74.149 72.9693 74.1179 72.9583C74.0868 72.9473 74.0583 72.9302 74.0341 72.9079C74.0098 72.8856 73.9903 72.8585 73.9768 72.8285C73.9633 72.7984 73.956 72.766 73.9553 72.733C73.9323 72.4093 73.8551 72.0917 73.7269 71.7935C73.6647 71.643 73.6076 71.5081 73.5505 71.3939C73.5345 71.3637 73.5248 71.3306 73.5219 71.2965C73.5191 71.2625 73.5231 71.2282 73.5337 71.1957C73.5444 71.1633 73.5615 71.1333 73.584 71.1076C73.6065 71.0819 73.6339 71.061 73.6647 71.0461C73.6949 71.0302 73.728 71.0204 73.762 71.0176C73.7961 71.0147 73.8303 71.0187 73.8628 71.0294C73.8953 71.04 73.9252 71.0571 73.9509 71.0796C73.9766 71.1021 73.9976 71.1295 74.0124 71.1603C74.0747 71.2901 74.1422 71.4354 74.2097 71.6067C74.3561 71.9497 74.4455 72.3144 74.4744 72.6863C74.4787 72.7598 74.4538 72.8321 74.4053 72.8874C74.3567 72.9428 74.2883 72.9768 74.2149 72.9822V72.9718ZM72.1387 69.6135C72.0679 69.6114 72.0008 69.5816 71.9518 69.5305L70.9137 68.4249C70.8662 68.3747 70.8406 68.3076 70.8426 68.2385C70.8445 68.1694 70.8738 68.1039 70.9241 68.0564C70.9743 68.0089 71.0414 67.9833 71.1105 67.9852C71.1796 67.9872 71.2451 68.0165 71.2926 68.0668L72.3307 69.1723C72.355 69.1965 72.3743 69.2252 72.3875 69.2568C72.4007 69.2884 72.4075 69.3223 72.4075 69.3566C72.4075 69.3909 72.4007 69.4248 72.3875 69.4564C72.3743 69.488 72.355 69.5167 72.3307 69.5409C72.3035 69.5694 72.2703 69.5917 72.2335 69.606C72.1967 69.6204 72.1573 69.6265 72.1179 69.6239L72.1387 69.6135ZM69.3202 66.6549C69.2501 66.6548 69.1829 66.6268 69.1334 66.5771L68.0953 65.4663C68.0536 65.4158 68.0325 65.3514 68.0363 65.286C68.0402 65.2206 68.0686 65.1591 68.1159 65.1138C68.1632 65.0685 68.2258 65.0427 68.2913 65.0416C68.3568 65.0406 68.4203 65.0644 68.469 65.1082L69.5071 66.2189C69.5412 66.2557 69.564 66.3017 69.5725 66.3512C69.5811 66.4006 69.5751 66.4515 69.5554 66.4977C69.5356 66.5438 69.5028 66.5832 69.4611 66.6112C69.4194 66.6391 69.3704 66.6543 69.3202 66.6549ZM66.5018 63.7015C66.4669 63.702 66.4324 63.6954 66.4003 63.682C66.3681 63.6686 66.3391 63.6488 66.3149 63.6237L65.2768 62.5129C65.2525 62.4888 65.2332 62.4601 65.22 62.4285C65.2068 62.3968 65.2 62.3629 65.2 62.3287C65.2 62.2944 65.2068 62.2605 65.22 62.2289C65.2332 62.1972 65.2525 62.1685 65.2768 62.1444C65.3005 62.1202 65.3288 62.101 65.3599 62.0879C65.3911 62.0748 65.4246 62.0681 65.4585 62.0681C65.4923 62.0681 65.5258 62.0748 65.557 62.0879C65.5882 62.101 65.6165 62.1202 65.6401 62.1444L66.6782 63.2552C66.7124 63.292 66.7351 63.3379 66.7437 63.3874C66.7523 63.4368 66.7463 63.4877 66.7265 63.5339C66.7067 63.58 66.674 63.6195 66.6323 63.6474C66.5905 63.6753 66.5416 63.6905 66.4914 63.6912L66.5018 63.7015ZM63.6781 60.7481C63.6391 60.7573 63.5984 60.7569 63.5595 60.747C63.5207 60.737 63.4848 60.7178 63.4549 60.6911L62.4168 59.5855C62.3925 59.5614 62.3732 59.5326 62.36 59.501C62.3469 59.4694 62.3401 59.4355 62.3401 59.4012C62.3401 59.367 62.3469 59.333 62.36 59.3014C62.3732 59.2698 62.3925 59.2411 62.4168 59.217C62.441 59.1926 62.4697 59.1733 62.5013 59.1602C62.5329 59.147 62.5669 59.1402 62.6011 59.1402C62.6354 59.1402 62.6693 59.147 62.7009 59.1602C62.7326 59.1733 62.7612 59.1926 62.7854 59.217L63.8235 60.3225C63.8478 60.3467 63.8671 60.3754 63.8803 60.407C63.8935 60.4386 63.9002 60.4725 63.9002 60.5068C63.9002 60.541 63.8935 60.575 63.8803 60.6066C63.8671 60.6382 63.8478 60.6669 63.8235 60.6911C63.7774 60.7318 63.7188 60.7556 63.6574 60.7585L63.6781 60.7481ZM60.8597 57.8051C60.7889 57.803 60.7218 57.7732 60.6728 57.7221L59.6347 56.6165C59.5873 56.5663 59.5617 56.4992 59.5636 56.4301C59.5656 56.361 59.5949 56.2955 59.6451 56.248C59.6954 56.2005 59.7624 56.1749 59.8315 56.1769C59.9006 56.1788 59.9662 56.2081 60.0136 56.2584L61.0517 57.3639C61.0761 57.3881 61.0954 57.4168 61.1085 57.4484C61.1217 57.48 61.1285 57.514 61.1285 57.5482C61.1285 57.5825 61.1217 57.6164 61.1085 57.648C61.0954 57.6796 61.0761 57.7083 61.0517 57.7325C60.9998 57.781 60.9308 57.8072 60.8597 57.8051ZM58.0413 54.8466C57.9711 54.8464 57.9039 54.8184 57.8544 54.7687L56.8163 53.6579C56.7746 53.6074 56.7536 53.543 56.7574 53.4776C56.7612 53.4122 56.7896 53.3507 56.8369 53.3054C56.8842 53.2601 56.9469 53.2343 57.0124 53.2333C57.0779 53.2322 57.1413 53.256 57.19 53.2998L58.2281 54.4106C58.2523 54.4342 58.2715 54.4625 58.2846 54.4937C58.2977 54.5249 58.3044 54.5584 58.3044 54.5922C58.3044 54.6261 58.2977 54.6596 58.2846 54.6908C58.2715 54.7219 58.2523 54.7502 58.2281 54.7739C58.2021 54.8021 58.1696 54.8235 58.1334 54.8362C58.0972 54.8489 58.0584 54.8524 58.0205 54.8466H58.0413ZM55.2228 51.8932C55.188 51.894 55.1533 51.8875 55.1211 51.8741C55.0889 51.8607 55.0599 51.8406 55.036 51.8153L53.9979 50.7045C53.9713 50.6807 53.95 50.6516 53.9352 50.6191C53.9204 50.5866 53.9125 50.5514 53.9119 50.5157C53.9113 50.48 53.9181 50.4445 53.9319 50.4116C53.9457 50.3787 53.9661 50.3489 53.9918 50.3242C54.0176 50.2995 54.0482 50.2804 54.0817 50.268C54.1152 50.2557 54.1509 50.2504 54.1865 50.2525C54.2222 50.2546 54.257 50.264 54.2889 50.2801C54.3207 50.2963 54.3489 50.3189 54.3716 50.3464L55.4097 51.4572C55.4338 51.4808 55.453 51.5091 55.4661 51.5403C55.4793 51.5715 55.486 51.605 55.486 51.6388C55.486 51.6727 55.4793 51.7062 55.4661 51.7374C55.453 51.7685 55.4338 51.7968 55.4097 51.8205C55.3823 51.8468 55.3496 51.8669 55.3138 51.8794C55.2779 51.892 55.2399 51.8966 55.2021 51.8932H55.2228ZM52.3992 48.9398C52.3639 48.9399 52.3291 48.9326 52.2969 48.9183C52.2646 48.904 52.2358 48.883 52.2123 48.8567L51.1742 47.7512C51.1507 47.7263 51.1323 47.697 51.1201 47.665C51.1079 47.633 51.1021 47.599 51.1031 47.5647C51.1041 47.5305 51.1118 47.4968 51.1257 47.4656C51.1397 47.4343 51.1597 47.4061 51.1846 47.3826C51.2095 47.3591 51.2388 47.3407 51.2707 47.3285C51.3027 47.3163 51.3368 47.3105 51.371 47.3115C51.4052 47.3125 51.4389 47.3201 51.4702 47.3341C51.5014 47.3481 51.5296 47.3681 51.5531 47.393L52.5912 48.4986C52.6156 48.5227 52.6349 48.5514 52.648 48.583C52.6612 48.6147 52.668 48.6486 52.668 48.6828C52.668 48.7171 52.6612 48.751 52.648 48.7826C52.6349 48.8143 52.6156 48.843 52.5912 48.8671C52.5631 48.8938 52.5295 48.9141 52.4928 48.9267C52.456 48.9392 52.417 48.9437 52.3784 48.9398H52.3992ZM49.5807 45.9812C49.5106 45.981 49.4434 45.953 49.3939 45.9033L48.3558 44.7978C48.3315 44.7736 48.3122 44.7449 48.299 44.7133C48.2858 44.6817 48.279 44.6477 48.279 44.6135C48.279 44.5792 48.2858 44.5453 48.299 44.5137C48.3122 44.4821 48.3315 44.4534 48.3558 44.4292C48.3795 44.4051 48.4077 44.3859 48.4389 44.3727C48.4701 44.3596 48.5036 44.3529 48.5375 44.3529C48.5713 44.3529 48.6048 44.3596 48.636 44.3727C48.6672 44.3859 48.6954 44.4051 48.7191 44.4292L49.7572 45.5348C49.7815 45.5589 49.8009 45.5876 49.814 45.6193C49.8272 45.6509 49.834 45.6848 49.834 45.7191C49.834 45.7533 49.8272 45.7873 49.814 45.8189C49.8009 45.8505 49.7815 45.8792 49.7572 45.9033C49.7311 45.9287 49.7003 45.9487 49.6664 45.962C49.6325 45.9754 49.5964 45.9819 49.56 45.9812H49.5807ZM46.7415 43.0434C46.7067 43.0439 46.6722 43.0372 46.64 43.0238C46.6079 43.0104 46.5788 42.9906 46.5547 42.9655L45.5166 41.8547C45.4924 41.8311 45.4732 41.8028 45.4601 41.7716C45.447 41.7404 45.4403 41.7069 45.4403 41.6731C45.4403 41.6392 45.447 41.6057 45.4601 41.5745C45.4732 41.5434 45.4924 41.5151 45.5166 41.4914C45.5407 41.4671 45.5694 41.4478 45.601 41.4346C45.6327 41.4214 45.6666 41.4146 45.7009 41.4146C45.7351 41.4146 45.769 41.4214 45.8006 41.4346C45.8323 41.4478 45.861 41.4671 45.8851 41.4914L46.9232 42.6022C46.9474 42.6259 46.9666 42.6541 46.9797 42.6853C46.9928 42.7165 46.9995 42.75 46.9995 42.7838C46.9995 42.8177 46.9928 42.8512 46.9797 42.8824C46.9666 42.9136 46.9474 42.9418 46.9232 42.9655C46.9005 42.991 46.8724 43.0112 46.841 43.0246C46.8096 43.0381 46.7757 43.0445 46.7415 43.0434ZM43.9179 40.09C43.8478 40.0898 43.7806 40.0618 43.7311 40.0121L42.693 38.891C42.6686 38.8668 42.6493 38.8381 42.6362 38.8065C42.623 38.7749 42.6162 38.741 42.6162 38.7067C42.6162 38.6724 42.623 38.6385 42.6362 38.6069C42.6493 38.5753 42.6686 38.5466 42.693 38.5224C42.7171 38.4981 42.7458 38.4788 42.7774 38.4656C42.809 38.4525 42.843 38.4457 42.8772 38.4457C42.9115 38.4457 42.9454 38.4525 42.977 38.4656C43.0087 38.4788 43.0373 38.4981 43.0615 38.5224L44.0996 39.6332C44.1237 39.6569 44.143 39.6852 44.1561 39.7163C44.1692 39.7475 44.1759 39.781 44.1759 39.8149C44.1759 39.8487 44.1692 39.8822 44.1561 39.9134C44.143 39.9446 44.1237 39.9729 44.0996 39.9965C44.051 40.0445 43.9861 40.0723 43.9179 40.0744V40.09ZM41.0995 37.1366C41.0642 37.1367 41.0293 37.1294 40.9971 37.1151C40.9649 37.1008 40.9361 37.0798 40.9126 37.0535L39.8745 35.948C39.827 35.8977 39.8014 35.8307 39.8034 35.7615C39.8053 35.6924 39.8346 35.6269 39.8849 35.5794C39.9351 35.5319 40.0022 35.5063 40.0713 35.5083C40.1404 35.5102 40.2059 35.5396 40.2534 35.5898L41.2915 36.6954C41.3158 36.7195 41.3352 36.7482 41.3483 36.7798C41.3615 36.8115 41.3683 36.8454 41.3683 36.8796C41.3683 36.9139 41.3615 36.9478 41.3483 36.9795C41.3352 37.0111 41.3158 37.0398 41.2915 37.0639C41.2372 37.1069 41.1684 37.1273 41.0995 37.121V37.1366ZM38.281 34.1832C38.2103 34.1811 38.1432 34.1513 38.0942 34.1001L37.0561 32.9946C37.0079 32.945 36.9814 32.8783 36.9823 32.8092C36.9833 32.7401 37.0117 32.6742 37.0613 32.626C37.1108 32.5779 37.1775 32.5513 37.2466 32.5523C37.3157 32.5533 37.3816 32.5817 37.4298 32.6312L38.4679 33.742C38.4922 33.7661 38.5115 33.7948 38.5247 33.8264C38.5379 33.8581 38.5447 33.892 38.5447 33.9263C38.5447 33.9605 38.5379 33.9944 38.5247 34.0261C38.5115 34.0577 38.4922 34.0864 38.4679 34.1105C38.442 34.1319 38.4122 34.1479 38.3802 34.1577C38.3481 34.1675 38.3144 34.1709 38.281 34.1676V34.1832ZM35.4626 31.2246C35.427 31.2252 35.3916 31.2186 35.3586 31.2052C35.3256 31.1919 35.2957 31.172 35.2705 31.1467L34.2324 30.036C34.2083 30.0123 34.1891 29.984 34.176 29.9528C34.1629 29.9216 34.1561 29.8881 34.1561 29.8543C34.1561 29.8205 34.1629 29.787 34.176 29.7558C34.1891 29.7246 34.2083 29.6963 34.2324 29.6726C34.2566 29.6483 34.2853 29.629 34.3169 29.6158C34.3485 29.6027 34.3824 29.5959 34.4167 29.5959C34.451 29.5959 34.4849 29.6027 34.5165 29.6158C34.5481 29.629 34.5768 29.6483 34.601 29.6726L35.6391 30.7834C35.6632 30.8071 35.6824 30.8354 35.6955 30.8665C35.7087 30.8977 35.7154 30.9312 35.7154 30.9651C35.7154 30.9989 35.7087 31.0324 35.6955 31.0636C35.6824 31.0948 35.6632 31.1231 35.6391 31.1467C35.6152 31.1682 35.5873 31.1848 35.557 31.1955C35.5268 31.2062 35.4947 31.2108 35.4626 31.209V31.2246ZM32.639 28.2712C32.6037 28.2714 32.5688 28.2641 32.5366 28.2497C32.5044 28.2354 32.4756 28.2144 32.4521 28.1882L31.414 27.0826C31.3665 27.0323 31.3409 26.9653 31.3429 26.8962C31.3448 26.8271 31.3741 26.7615 31.4244 26.7141C31.4746 26.6666 31.5417 26.641 31.6108 26.6429C31.6799 26.6449 31.7454 26.6742 31.7929 26.7244L32.831 27.83C32.8553 27.8541 32.8746 27.8828 32.8878 27.9145C32.901 27.9461 32.9078 27.98 32.9078 28.0143C32.9078 28.0485 32.901 28.0825 32.8878 28.1141C32.8746 28.1457 32.8553 28.1744 32.831 28.1985C32.7767 28.2415 32.7079 28.2619 32.639 28.2556V28.2712ZM29.8205 25.3178C29.7853 25.318 29.7504 25.3107 29.7182 25.2963C29.686 25.282 29.6572 25.261 29.6337 25.2348L28.5956 24.1292C28.5712 24.1051 28.5519 24.0764 28.5388 24.0447C28.5256 24.0131 28.5188 23.9792 28.5188 23.9449C28.5188 23.9107 28.5256 23.8767 28.5388 23.8451C28.5519 23.8135 28.5712 23.7848 28.5956 23.7607C28.6192 23.7365 28.6475 23.7173 28.6787 23.7042C28.7099 23.6911 28.7434 23.6843 28.7772 23.6843C28.8111 23.6843 28.8446 23.6911 28.8758 23.7042C28.907 23.7173 28.9352 23.7365 28.9589 23.7607L29.997 24.8662C30.0213 24.8904 30.0406 24.9191 30.0538 24.9507C30.067 24.9823 30.0738 25.0162 30.0738 25.0505C30.0738 25.0848 30.067 25.1187 30.0538 25.1503C30.0406 25.1819 30.0213 25.2106 29.997 25.2348C29.949 25.2791 29.8858 25.3032 29.8205 25.3022V25.3178Z" fill="#02004E"/>
<path d="M74.2149 129.434C74.1448 129.434 74.0775 129.406 74.028 129.356L73.509 128.79C73.4855 128.766 73.4671 128.736 73.4549 128.704C73.4427 128.672 73.4369 128.638 73.4378 128.604C73.4388 128.57 73.4465 128.536 73.4605 128.505C73.4745 128.474 73.4945 128.445 73.5194 128.422C73.5443 128.398 73.5735 128.38 73.6055 128.368C73.6375 128.356 73.6716 128.35 73.7058 128.351C73.74 128.352 73.7737 128.359 73.8049 128.373C73.8362 128.387 73.8644 128.407 73.8879 128.432L73.9761 128.526V128.396C73.9761 128.327 74.0035 128.261 74.0521 128.212C74.1008 128.164 74.1668 128.136 74.2357 128.136C74.3045 128.136 74.3705 128.164 74.4192 128.212C74.4678 128.261 74.4952 128.327 74.4952 128.396V129.175C74.4964 129.226 74.4815 129.277 74.4527 129.32C74.4239 129.362 74.3825 129.395 74.3343 129.413C74.2972 129.431 74.2558 129.438 74.2149 129.434Z" fill="#02004E"/>
<path d="M71.8585 126.963C71.8236 126.964 71.789 126.958 71.7568 126.944C71.7246 126.931 71.6956 126.911 71.6716 126.886L70.5765 125.739C70.5286 125.689 70.5018 125.623 70.5018 125.554C70.5018 125.485 70.5286 125.419 70.5765 125.37C70.6006 125.346 70.6293 125.326 70.6609 125.313C70.6925 125.3 70.7265 125.293 70.7607 125.293C70.795 125.293 70.8289 125.3 70.8605 125.313C70.8922 125.326 70.9208 125.346 70.945 125.37L72.0402 126.517C72.0643 126.541 72.0835 126.569 72.0966 126.6C72.1098 126.631 72.1165 126.665 72.1165 126.699C72.1165 126.733 72.1098 126.766 72.0966 126.797C72.0835 126.828 72.0643 126.857 72.0402 126.88C71.9928 126.931 71.9276 126.961 71.8585 126.963ZM68.9414 123.911C68.9062 123.912 68.8713 123.904 68.8391 123.89C68.8069 123.876 68.7781 123.855 68.7546 123.828L67.6594 122.686C67.6119 122.636 67.5863 122.569 67.5883 122.5C67.5902 122.431 67.6195 122.365 67.6698 122.318C67.72 122.27 67.7871 122.245 67.8562 122.247C67.9253 122.249 67.9908 122.278 68.0383 122.328L69.1283 123.47C69.1526 123.494 69.1719 123.523 69.1851 123.555C69.1983 123.586 69.2051 123.62 69.2051 123.655C69.2051 123.689 69.1983 123.723 69.1851 123.754C69.1719 123.786 69.1526 123.815 69.1283 123.839C69.0771 123.885 69.0106 123.911 68.9414 123.911ZM66.0503 120.859C66.0151 120.86 65.9802 120.852 65.948 120.838C65.9158 120.824 65.887 120.803 65.8635 120.776L64.7735 119.634C64.7492 119.61 64.7298 119.582 64.7167 119.55C64.7035 119.518 64.6967 119.484 64.6967 119.45C64.6967 119.416 64.7035 119.382 64.7167 119.35C64.7298 119.319 64.7492 119.29 64.7735 119.266C64.7976 119.242 64.8263 119.222 64.8579 119.209C64.8895 119.196 64.9235 119.189 64.9577 119.189C64.992 119.189 65.0259 119.196 65.0575 119.209C65.0892 119.222 65.1179 119.242 65.142 119.266L66.232 120.408C66.2563 120.432 66.2756 120.461 66.2888 120.492C66.302 120.524 66.3088 120.558 66.3088 120.592C66.3088 120.626 66.302 120.66 66.2888 120.692C66.2756 120.724 66.2563 120.752 66.232 120.776C66.1843 120.826 66.1193 120.856 66.0503 120.859ZM63.1125 117.787C63.0774 117.786 63.0427 117.779 63.0106 117.764C62.9784 117.75 62.9496 117.729 62.9257 117.704L61.8305 116.557C61.7888 116.506 61.7677 116.442 61.7715 116.376C61.7754 116.311 61.8038 116.249 61.8511 116.204C61.8984 116.159 61.961 116.133 62.0265 116.132C62.092 116.131 62.1555 116.155 62.2042 116.198L63.2994 117.345C63.3237 117.37 63.343 117.398 63.3562 117.43C63.3694 117.462 63.3761 117.495 63.3761 117.53C63.3761 117.564 63.3694 117.598 63.3562 117.63C63.343 117.661 63.3237 117.69 63.2994 117.714C63.249 117.762 63.1819 117.788 63.1125 117.787ZM60.1955 114.729C60.1253 114.729 60.0581 114.701 60.0086 114.652L58.9134 113.504C58.8892 113.481 58.87 113.453 58.8569 113.421C58.8438 113.39 58.8371 113.357 58.8371 113.323C58.8371 113.289 58.8438 113.255 58.8569 113.224C58.87 113.193 58.8892 113.165 58.9134 113.141C58.9375 113.117 58.9662 113.098 58.9979 113.084C59.0295 113.071 59.0634 113.064 59.0977 113.064C59.1319 113.064 59.1659 113.071 59.1975 113.084C59.2291 113.098 59.2578 113.117 59.2819 113.141L60.3719 114.288C60.3963 114.312 60.4156 114.341 60.4287 114.373C60.4419 114.404 60.4487 114.438 60.4487 114.473C60.4487 114.507 60.4419 114.541 60.4287 114.572C60.4156 114.604 60.3963 114.633 60.3719 114.657C60.3269 114.709 60.2639 114.742 60.1955 114.75V114.729ZM57.2784 111.677C57.2083 111.677 57.141 111.649 57.0915 111.6L56.0015 110.452C55.975 110.429 55.9537 110.4 55.9389 110.367C55.9241 110.335 55.9161 110.299 55.9156 110.264C55.915 110.228 55.9218 110.192 55.9356 110.16C55.9493 110.127 55.9697 110.097 55.9955 110.072C56.0213 110.047 56.0519 110.028 56.0854 110.016C56.1189 110.004 56.1546 109.998 56.1902 110C56.2259 110.003 56.2607 110.012 56.2925 110.028C56.3244 110.044 56.3525 110.067 56.3752 110.094L57.4704 111.241C57.4946 111.265 57.5138 111.293 57.5269 111.325C57.54 111.356 57.5468 111.389 57.5468 111.423C57.5468 111.457 57.54 111.49 57.5269 111.522C57.5138 111.553 57.4946 111.581 57.4704 111.605C57.4476 111.634 57.4185 111.657 57.3852 111.674C57.3519 111.69 57.3154 111.698 57.2784 111.698V111.677ZM54.3665 108.625C54.3317 108.626 54.2972 108.619 54.265 108.606C54.2329 108.592 54.2038 108.573 54.1797 108.548L53.0741 107.406C53.0498 107.382 53.0305 107.353 53.0173 107.321C53.0041 107.29 52.9973 107.256 52.9973 107.221C52.9973 107.187 53.0041 107.153 53.0173 107.122C53.0305 107.09 53.0498 107.061 53.0741 107.037C53.0978 107.013 53.126 106.994 53.1572 106.981C53.1884 106.968 53.2219 106.961 53.2558 106.961C53.2896 106.961 53.3231 106.968 53.3543 106.981C53.3855 106.994 53.4138 107.013 53.4374 107.037L54.5326 108.179C54.5569 108.203 54.5762 108.232 54.5894 108.263C54.6026 108.295 54.6094 108.329 54.6094 108.363C54.6094 108.398 54.6026 108.431 54.5894 108.463C54.5762 108.495 54.5569 108.523 54.5326 108.548C54.4924 108.601 54.4327 108.636 54.3665 108.646V108.625ZM51.4495 105.573C51.4142 105.574 51.3793 105.566 51.3471 105.552C51.3149 105.538 51.2861 105.517 51.2626 105.49L50.1674 104.348C50.1199 104.298 50.0943 104.231 50.0963 104.162C50.0982 104.093 50.1276 104.027 50.1778 103.98C50.228 103.932 50.2951 103.907 50.3642 103.909C50.4333 103.911 50.4988 103.94 50.5463 103.99L51.6363 105.132C51.6607 105.156 51.68 105.185 51.6931 105.217C51.7063 105.248 51.7131 105.282 51.7131 105.316C51.7131 105.351 51.7063 105.385 51.6931 105.416C51.68 105.448 51.6607 105.477 51.6363 105.501C51.613 105.528 51.5844 105.55 51.5523 105.566C51.5202 105.582 51.4853 105.592 51.4495 105.594V105.573ZM48.5324 102.521C48.4972 102.522 48.4623 102.514 48.4301 102.5C48.3979 102.486 48.3691 102.465 48.3456 102.438L47.2555 101.296C47.229 101.273 47.2077 101.243 47.1929 101.211C47.1781 101.178 47.1702 101.143 47.1696 101.108C47.169 101.072 47.1758 101.036 47.1896 101.004C47.2033 100.971 47.2237 100.941 47.2495 100.916C47.2753 100.891 47.3059 100.872 47.3394 100.86C47.3729 100.848 47.4086 100.842 47.4442 100.844C47.4799 100.846 47.5147 100.856 47.5465 100.872C47.5784 100.888 47.6065 100.911 47.6293 100.938L48.7245 102.08C48.7488 102.104 48.7681 102.133 48.7813 102.165C48.7944 102.196 48.8012 102.23 48.8012 102.264C48.8012 102.299 48.7944 102.333 48.7813 102.364C48.7681 102.396 48.7488 102.425 48.7245 102.449C48.7005 102.477 48.6711 102.499 48.6381 102.515C48.605 102.531 48.5691 102.54 48.5324 102.542V102.521ZM45.6205 99.4694C45.5498 99.4673 45.4827 99.4375 45.4337 99.3863L44.3385 98.2392C44.2968 98.1887 44.2758 98.1243 44.2796 98.0589C44.2834 97.9935 44.3118 97.932 44.3591 97.8867C44.4064 97.8414 44.4691 97.8156 44.5345 97.8146C44.6 97.8135 44.6635 97.8373 44.7122 97.8811L45.8074 99.049C45.8317 99.0731 45.851 99.1018 45.8642 99.1334C45.8774 99.165 45.8842 99.199 45.8842 99.2332C45.8842 99.2675 45.8774 99.3014 45.8642 99.333C45.851 99.3647 45.8317 99.3933 45.8074 99.4175C45.7828 99.4416 45.7536 99.4605 45.7214 99.473C45.6893 99.4855 45.655 99.4913 45.6205 99.4902V99.4694ZM42.6931 96.4329C42.623 96.4328 42.5558 96.4048 42.5062 96.3551L41.411 95.208C41.3869 95.1843 41.3677 95.156 41.3546 95.1248C41.3415 95.0937 41.3347 95.0602 41.3347 95.0263C41.3347 94.9925 41.3415 94.959 41.3546 94.9278C41.3677 94.8966 41.3869 94.8683 41.411 94.8447C41.4352 94.8203 41.4639 94.801 41.4955 94.7878C41.5271 94.7747 41.5611 94.7679 41.5953 94.7679C41.6296 94.7679 41.6635 94.7747 41.6951 94.7878C41.7267 94.801 41.7554 94.8203 41.7796 94.8447L42.8696 95.9918C42.9063 96.0276 42.9312 96.0738 42.9412 96.1241C42.9512 96.1744 42.9457 96.2266 42.9255 96.2738C42.9053 96.3209 42.8713 96.3609 42.828 96.3884C42.7846 96.4158 42.734 96.4296 42.6827 96.4278L42.6931 96.4329ZM39.7916 93.3913C39.756 93.3919 39.7206 93.3853 39.6877 93.372C39.6547 93.3586 39.6247 93.3387 39.5996 93.3135L38.5096 92.1664C38.483 92.1425 38.4617 92.1134 38.4469 92.0809C38.4321 92.0484 38.4242 92.0132 38.4236 91.9775C38.423 91.9418 38.4298 91.9064 38.4436 91.8734C38.4573 91.8405 38.4778 91.8107 38.5035 91.786C38.5293 91.7613 38.5599 91.7422 38.5934 91.7299C38.6269 91.7175 38.6626 91.7122 38.6982 91.7143C38.7339 91.7164 38.7687 91.7258 38.8006 91.742C38.8324 91.7581 38.8605 91.7807 38.8833 91.8082L39.9785 92.9553C40.0026 92.979 40.0218 93.0073 40.0349 93.0385C40.0481 93.0697 40.0548 93.1031 40.0548 93.137C40.0548 93.1708 40.0481 93.2043 40.0349 93.2355C40.0218 93.2667 40.0026 93.295 39.9785 93.3186C39.9542 93.3433 39.9251 93.3625 39.8928 93.3751C39.8606 93.3876 39.8261 93.3931 39.7916 93.3913ZM36.8746 90.3393C36.8044 90.3391 36.7372 90.3111 36.6877 90.2614L35.5925 89.1143C35.5682 89.0902 35.5489 89.0615 35.5357 89.0299C35.5225 88.9983 35.5157 88.9643 35.5157 88.9301C35.5157 88.8958 35.5225 88.8619 35.5357 88.8303C35.5489 88.7986 35.5682 88.7699 35.5925 88.7458C35.6162 88.7216 35.6444 88.7025 35.6756 88.6893C35.7068 88.6762 35.7403 88.6695 35.7742 88.6695C35.808 88.6695 35.8415 88.6762 35.8727 88.6893C35.9039 88.7025 35.9321 88.7216 35.9558 88.7458L37.051 89.8877C37.0754 89.9119 37.0947 89.9406 37.1078 89.9722C37.121 90.0038 37.1278 90.0377 37.1278 90.072C37.1278 90.1063 37.121 90.1402 37.1078 90.1718C37.0947 90.2034 37.0754 90.2321 37.051 90.2562C37.0039 90.3025 36.9406 90.3285 36.8746 90.3289V90.3393ZM33.9575 87.2873C33.9222 87.2874 33.8874 87.2801 33.8551 87.2658C33.8229 87.2515 33.7941 87.2305 33.7706 87.2042L32.6754 86.0623C32.6519 86.0375 32.6335 86.0082 32.6213 85.9762C32.6091 85.9442 32.6033 85.9101 32.6043 85.8759C32.6053 85.8417 32.613 85.808 32.6269 85.7768C32.6409 85.7455 32.6609 85.7173 32.6858 85.6938C32.7107 85.6703 32.74 85.6519 32.7719 85.6397C32.8039 85.6275 32.838 85.6217 32.8722 85.6227C32.9065 85.6236 32.9401 85.6313 32.9714 85.6453C33.0026 85.6593 33.0308 85.6793 33.0543 85.7042L34.1443 86.8461C34.1687 86.8702 34.188 86.8989 34.2012 86.9305C34.2143 86.9622 34.2211 86.9961 34.2211 87.0304C34.2211 87.0646 34.2143 87.0985 34.2012 87.1302C34.188 87.1618 34.1687 87.1905 34.1443 87.2146C34.0921 87.2582 34.0254 87.2804 33.9575 87.2769V87.2873ZM31.0456 84.2353C31.0095 84.2358 30.9738 84.2287 30.9407 84.2144C30.9075 84.2001 30.8779 84.1789 30.8536 84.1522L29.7636 83.0103C29.737 82.9864 29.7157 82.9574 29.7009 82.9249C29.6861 82.8924 29.6782 82.8572 29.6776 82.8215C29.677 82.7858 29.6839 82.7503 29.6976 82.7174C29.7114 82.6844 29.7318 82.6547 29.7575 82.63C29.7833 82.6053 29.8139 82.5862 29.8474 82.5738C29.8809 82.5615 29.9166 82.5562 29.9523 82.5583C29.9879 82.5604 30.0227 82.5698 30.0546 82.5859C30.0864 82.6021 30.1146 82.6246 30.1373 82.6522L31.2325 83.7941C31.2568 83.8182 31.2761 83.8469 31.2893 83.8785C31.3025 83.9102 31.3092 83.9441 31.3092 83.9783C31.3092 84.0126 31.3025 84.0465 31.2893 84.0782C31.2761 84.1098 31.2568 84.1385 31.2325 84.1626C31.1805 84.2066 31.1136 84.2289 31.0456 84.2249V84.2353ZM28.1286 81.1833C28.0578 81.1812 27.9907 81.1513 27.9417 81.1002L27.5991 80.7421C27.3336 80.4686 27.1002 80.1655 26.9036 79.8389C26.8849 79.8106 26.8722 79.7787 26.8662 79.7453C26.8602 79.7119 26.8612 79.6776 26.869 79.6445C26.8767 79.6115 26.8912 79.5804 26.9114 79.5531C26.9317 79.5258 26.9573 79.503 26.9867 79.486C27.0154 79.4671 27.0476 79.4543 27.0815 79.4483C27.1153 79.4423 27.15 79.4432 27.1835 79.451C27.2169 79.4587 27.2485 79.4732 27.2762 79.4935C27.3039 79.5138 27.3273 79.5395 27.3448 79.569C27.5267 79.8621 27.7389 80.1353 27.978 80.3839L28.3154 80.7421C28.3397 80.7662 28.359 80.7949 28.3722 80.8265C28.3854 80.8582 28.3922 80.8921 28.3922 80.9263C28.3922 80.9606 28.3854 80.9945 28.3722 81.0261C28.359 81.0578 28.3397 81.0865 28.3154 81.1106C28.29 81.1329 28.2603 81.1499 28.2283 81.1606C28.1962 81.1713 28.1623 81.1754 28.1286 81.1729V81.1833ZM26.4624 77.4513C26.3936 77.4513 26.3276 77.424 26.2789 77.3753C26.2302 77.3266 26.2029 77.2606 26.2029 77.1918V75.6346C26.2029 75.5658 26.2302 75.4998 26.2789 75.4511C26.3276 75.4024 26.3936 75.3751 26.4624 75.3751C26.5312 75.3751 26.5973 75.4024 26.6459 75.4511C26.6946 75.4998 26.7219 75.5658 26.7219 75.6346V77.1918C26.7192 77.2588 26.6907 77.3222 26.6423 77.3686C26.594 77.4151 26.5295 77.441 26.4624 77.4409V77.4513ZM26.4624 73.2314C26.394 73.2301 26.3287 73.2023 26.2804 73.1539C26.232 73.1055 26.2042 73.0403 26.2029 72.9719V71.3888C26.2029 71.32 26.2302 71.2539 26.2789 71.2053C26.3276 71.1566 26.3936 71.1293 26.4624 71.1293C26.5312 71.1293 26.5973 71.1566 26.6459 71.2053C26.6946 71.2539 26.7219 71.32 26.7219 71.3888V72.9719C26.7192 73.0389 26.6907 73.1023 26.6423 73.1487C26.594 73.1952 26.5295 73.2211 26.4624 73.221V73.2314ZM26.4624 69.0063C26.3936 69.0063 26.3276 68.979 26.2789 68.9303C26.2302 68.8817 26.2029 68.8157 26.2029 68.7468V67.1637C26.2042 67.0953 26.232 67.0301 26.2804 66.9817C26.3287 66.9333 26.394 66.9055 26.4624 66.9042C26.5312 66.9042 26.5973 66.9315 26.6459 66.9802C26.6946 67.0289 26.7219 67.0949 26.7219 67.1637V68.7468C26.7192 68.8138 26.6907 68.8772 26.6423 68.9237C26.594 68.9701 26.5295 68.996 26.4624 68.996V69.0063ZM26.4624 64.7865C26.3936 64.7865 26.3276 64.7591 26.2789 64.7105C26.2302 64.6618 26.2029 64.5958 26.2029 64.527V62.9439C26.2042 62.8754 26.232 62.8102 26.2804 62.7618C26.3287 62.7134 26.394 62.6857 26.4624 62.6843C26.5312 62.6843 26.5973 62.7117 26.6459 62.7603C26.6946 62.809 26.7219 62.875 26.7219 62.9439V64.527C26.7192 64.594 26.6907 64.6573 26.6423 64.7038C26.594 64.7502 26.5295 64.7761 26.4624 64.7761V64.7865ZM26.4624 60.5666C26.3936 60.5666 26.3276 60.5393 26.2789 60.4906C26.2302 60.4419 26.2029 60.3759 26.2029 60.3071V58.724C26.2029 58.6551 26.2302 58.5891 26.2789 58.5405C26.3276 58.4918 26.3936 58.4644 26.4624 58.4644C26.5312 58.4644 26.5973 58.4918 26.6459 58.5405C26.6946 58.5891 26.7219 58.6551 26.7219 58.724V60.3071C26.7192 60.3741 26.6907 60.4375 26.6423 60.4839C26.594 60.5304 26.5295 60.5563 26.4624 60.5562V60.5666ZM26.4624 56.3467C26.394 56.3454 26.3287 56.3176 26.2804 56.2692C26.232 56.2209 26.2042 56.1556 26.2029 56.0872V54.5041C26.2029 54.4353 26.2302 54.3693 26.2789 54.3206C26.3276 54.2719 26.3936 54.2446 26.4624 54.2446C26.5312 54.2446 26.5973 54.2719 26.6459 54.3206C26.6946 54.3693 26.7219 54.4353 26.7219 54.5041V56.0872C26.7192 56.1542 26.6907 56.2176 26.6423 56.264C26.594 56.3105 26.5295 56.3364 26.4624 56.3363V56.3467ZM26.4624 52.1217C26.3936 52.1217 26.3276 52.0943 26.2789 52.0457C26.2302 51.997 26.2029 51.931 26.2029 51.8621V50.279C26.2042 50.2106 26.232 50.1454 26.2804 50.097C26.3287 50.0486 26.394 50.0208 26.4624 50.0195C26.5312 50.0195 26.5973 50.0469 26.6459 50.0955C26.6946 50.1442 26.7219 50.2102 26.7219 50.279V51.8673C26.718 51.9334 26.6889 51.9955 26.6406 52.0409C26.5924 52.0862 26.5286 52.1114 26.4624 52.1113V52.1217ZM26.4624 47.9018C26.3936 47.9018 26.3276 47.8744 26.2789 47.8258C26.2302 47.7771 26.2029 47.7111 26.2029 47.6423V46.0592C26.2042 45.9907 26.232 45.9255 26.2804 45.8771C26.3287 45.8287 26.394 45.801 26.4624 45.7996C26.5312 45.7996 26.5973 45.827 26.6459 45.8757C26.6946 45.9243 26.7219 45.9903 26.7219 46.0592V47.6423C26.7192 47.7093 26.6907 47.7727 26.6423 47.8191C26.594 47.8656 26.5295 47.8915 26.4624 47.8914V47.9018ZM26.4624 43.6819C26.3936 43.6819 26.3276 43.6546 26.2789 43.6059C26.2302 43.5572 26.2029 43.4912 26.2029 43.4224V41.8393C26.2029 41.7705 26.2302 41.7044 26.2789 41.6558C26.3276 41.6071 26.3936 41.5798 26.4624 41.5798C26.5312 41.5798 26.5973 41.6071 26.6459 41.6558C26.6946 41.7044 26.7219 41.7705 26.7219 41.8393V43.4224C26.7192 43.4894 26.6907 43.5528 26.6423 43.5992C26.594 43.6457 26.5295 43.6716 26.4624 43.6715V43.6819ZM26.4624 39.462C26.394 39.4607 26.3287 39.4329 26.2804 39.3846C26.232 39.3362 26.2042 39.2709 26.2029 39.2025V37.6194C26.2029 37.5506 26.2302 37.4846 26.2789 37.4359C26.3276 37.3872 26.3936 37.3599 26.4624 37.3599C26.5312 37.3599 26.5973 37.3872 26.6459 37.4359C26.6946 37.4846 26.7219 37.5506 26.7219 37.6194V39.2025C26.7192 39.2695 26.6907 39.3329 26.6423 39.3793C26.594 39.4258 26.5295 39.4517 26.4624 39.4517V39.462ZM26.4624 35.237C26.3936 35.237 26.3276 35.2096 26.2789 35.161C26.2302 35.1123 26.2029 35.0463 26.2029 34.9775V33.3943C26.2042 33.3259 26.232 33.2607 26.2804 33.2123C26.3287 33.1639 26.394 33.1362 26.4624 33.1348C26.5312 33.1348 26.5973 33.1622 26.6459 33.2108C26.6946 33.2595 26.7219 33.3255 26.7219 33.3943V34.9775C26.7192 35.0445 26.6907 35.1078 26.6423 35.1543C26.594 35.2007 26.5295 35.2266 26.4624 35.2266V35.237ZM26.4624 31.0171C26.3936 31.0171 26.3276 30.9898 26.2789 30.9411C26.2302 30.8924 26.2029 30.8264 26.2029 30.7576V29.1745C26.2042 29.1061 26.232 29.0408 26.2804 28.9924C26.3287 28.944 26.394 28.9163 26.4624 28.9149C26.5312 28.9149 26.5973 28.9423 26.6459 28.991C26.6946 29.0396 26.7219 29.1056 26.7219 29.1745V30.7576C26.7192 30.8246 26.6907 30.888 26.6423 30.9344C26.594 30.9809 26.5295 31.0068 26.4624 31.0067V31.0171ZM26.4624 26.7972C26.3936 26.7972 26.3276 26.7699 26.2789 26.7212C26.2302 26.6725 26.2029 26.6065 26.2029 26.5377V24.9546C26.2029 24.8858 26.2302 24.8198 26.2789 24.7711C26.3276 24.7224 26.3936 24.6951 26.4624 24.6951C26.5312 24.6951 26.5973 24.7224 26.6459 24.7711C26.6946 24.8198 26.7219 24.8858 26.7219 24.9546V26.5377C26.7192 26.6047 26.6907 26.6681 26.6423 26.7145C26.594 26.761 26.5295 26.7869 26.4624 26.7868V26.7972Z" fill="#02004E"/>
<path d="M80.8793 68.3525L77.355 70.3924C77.6642 71.1235 77.84 71.904 77.874 72.697V135.647C77.874 136.307 77.7027 136.727 77.4225 136.893L80.8897 134.89C81.1752 134.729 81.3465 134.303 81.3465 133.644V70.6934C81.3385 69.8908 81.18 69.0968 80.8793 68.3525Z" fill="#263238"/>
<path d="M68.547 94.4763C68.4914 92.629 67.8272 90.8518 66.6577 89.4208C65.6196 88.3307 64.7683 88.8186 64.7683 90.5159C64.8231 92.3618 65.4875 94.1377 66.6577 95.5663C67.7009 96.6615 68.547 96.1736 68.547 94.4763Z" fill="#FAFAFA"/>
<path d="M116.849 71.5652L125.595 76.6155L116.849 81.6659V71.5652Z" fill="#332ECF"/>
<path d="M123.488 77.8197L125.455 76.683C125.726 76.591 125.962 76.4163 126.129 76.1836C126.295 75.9508 126.385 75.6717 126.385 75.3853C126.385 75.099 126.295 74.8199 126.129 74.5871C125.962 74.3544 125.726 74.1797 125.455 74.0877L116.849 69.1152V71.5911L122.855 75.0583C122.918 75.096 122.971 75.1496 123.007 75.2138C123.044 75.2779 123.063 75.3505 123.063 75.4243C123.063 75.4981 123.044 75.5706 123.007 75.6348C122.971 75.699 122.918 75.7525 122.855 75.7902L121.381 76.6415L123.488 77.8197Z" fill="#02004E"/>
<path d="M111.114 82.5432C108.633 83.9758 106.619 87.3185 106.619 90.0072C106.619 91.3048 107.091 92.2131 107.854 92.6439C108.617 93.0747 109.988 93.8741 109.988 93.8741L123.348 85.2163C123.605 85.1044 123.827 84.9253 123.99 84.6978C124.154 84.4703 124.253 84.203 124.277 83.9239V74.1865C124.254 74.4665 124.155 74.735 123.992 74.9634C123.828 75.1919 123.606 75.3718 123.348 75.4841L111.114 82.5432Z" fill="#02004E"/>
<path d="M113.226 83.7578C110.74 85.1904 108.731 88.5331 108.731 91.2218C108.731 93.9104 110.74 94.9278 113.226 93.4952L125.455 86.4309C125.711 86.317 125.932 86.1374 126.096 85.9105C126.26 85.6835 126.362 85.4172 126.39 85.1385V75.4011C126.366 75.6817 126.266 75.9505 126.102 76.179C125.937 76.4075 125.714 76.5871 125.455 76.6987L113.226 83.7578Z" fill="#332ECF"/>
<path d="M113.984 85.2161C115.412 84.3908 116.58 85.0603 116.58 86.7057C116.528 87.6034 116.266 88.4763 115.815 89.2543C115.364 90.0323 114.737 90.6936 113.984 91.1851C112.557 92.0104 111.389 91.3408 111.389 89.6903C111.439 88.7929 111.7 87.9199 112.151 87.1424C112.602 86.365 113.23 85.7049 113.984 85.2161Z" fill="#FAFAFA"/>
<path d="M79.5455 66.2245L27.9779 12.207C27.4974 11.7165 27.1337 11.1239 26.9138 10.4734L25.1594 14.8957L76.0574 68.2281C76.6195 68.8635 77.0594 69.5973 77.3551 70.3925L80.8794 68.3526C80.5782 67.5629 80.125 66.8398 79.5455 66.2245Z" fill="#02004E"/>
</svg>
